SpartanTT-Bold.ufo
<glyph name="exclam" format="2">
  <advance width="773"/>
  <unicode hex="0021"/>
  <outline>
    <component base="period" xOffset="-19"/>
    <contour>
      <point x="493" y="496" type="line"/>
      <point x="532" y="1720" type="line"/>
      <point x="241" y="1720" type="line"/>
      <point x="280" y="496" type="line"/>
    </contour>
  </outline>
</glyph>
<glyph name="numbersign" format="2">
  <advance width="1552"/>
  <unicode hex="0023"/>
  <outline>
    <contour>
      <point x="496" y="0" type="line"/>
      <point x="549" y="432" type="line"/>
      <point x="910" y="432" type="line"/>
      <point x="857" y="0" type="line"/>
      <point x="1055" y="0" type="line"/>
      <point x="1108" y="432" type="line"/>
      <point x="1397" y="432" type="line"/>
      <point x="1397" y="631" type="line"/>
      <point x="1133" y="631" type="line"/>
      <point x="1174" y="958" type="line"/>
      <point x="1397" y="958" type="line"/>
      <point x="1397" y="1157" type="line"/>
      <point x="1198" y="1157" type="line"/>
      <point x="1253" y="1589" type="line"/>
      <point x="1054" y="1589" type="line"/>
      <point x="999" y="1157" type="line"/>
      <point x="639" y="1157" type="line"/>
      <point x="695" y="1589" type="line"/>
      <point x="495" y="1589" type="line"/>
      <point x="441" y="1157" type="line"/>
      <point x="155" y="1157" type="line"/>
      <point x="155" y="958" type="line"/>
      <point x="417" y="958" type="line"/>
      <point x="375" y="631" type="line"/>
      <point x="155" y="631" type="line"/>
      <point x="155" y="432" type="line"/>
      <point x="350" y="432" type="line"/>
      <point x="298" y="0" type="line"/>
    </contour>
    <contour>
      <point x="616" y="958" type="line"/>
      <point x="976" y="958" type="line"/>
      <point x="934" y="631" type="line"/>
      <point x="574" y="631" type="line"/>
    </contour>
  </outline>
</glyph>
<glyph name="dollar" format="2">
  <advance width="1442"/>
  <unicode hex="0024"/>
  <outline>
    <component base="S" xOffset="45"/>
    <contour>
      <point x="662" y="1926" type="line"/>
      <point x="662" y="1668" type="line"/>
      <point x="842" y="1668" type="line"/>
      <point x="842" y="1926" type="line"/>
    </contour>
    <contour>
      <point x="662" y="-16" type="line"/>
      <point x="662" y="-276" type="line"/>
      <point x="842" y="-276" type="line"/>
      <point x="842" y="-16" type="line"/>
    </contour>
  </outline>
</glyph>
<glyph name="percent" format="2">
  <advance width="2062"/>
  <unicode hex="0025"/>
  <outline>
    <contour>
      <point x="539" y="892" type="curve" smooth="yes"/>
      <point x="785" y="892"/>
      <point x="974" y="1054"/>
      <point x="974" y="1286" type="curve" smooth="yes"/>
      <point x="974" y="1518"/>
      <point x="785" y="1680"/>
      <point x="539" y="1680" type="curve" smooth="yes"/>
      <point x="293" y="1680"/>
      <point x="104" y="1518"/>
      <point x="104" y="1286" type="curve" smooth="yes"/>
      <point x="104" y="1054"/>
      <point x="293" y="892"/>
    </contour>
    <contour>
      <point x="539" y="1070" type="curve" smooth="yes"/>
      <point x="418" y="1070"/>
      <point x="322" y="1159"/>
      <point x="322" y="1286" type="curve" smooth="yes"/>
      <point x="322" y="1413"/>
      <point x="418" y="1502"/>
      <point x="539" y="1502" type="curve" smooth="yes"/>
      <point x="660" y="1502"/>
      <point x="756" y="1413"/>
      <point x="756" y="1286" type="curve" smooth="yes"/>
      <point x="756" y="1159"/>
      <point x="660" y="1070"/>
    </contour>
    <contour>
      <point x="1522" y="-32" type="curve" smooth="yes"/>
      <point x="1768" y="-32"/>
      <point x="1957" y="130"/>
      <point x="1957" y="362" type="curve" smooth="yes"/>
      <point x="1957" y="594"/>
      <point x="1768" y="756"/>
      <point x="1522" y="756" type="curve" smooth="yes"/>
      <point x="1276" y="756"/>
      <point x="1087" y="594"/>
      <point x="1087" y="362" type="curve" smooth="yes"/>
      <point x="1087" y="130"/>
      <point x="1276" y="-32"/>
    </contour>
    <contour>
      <point x="1522" y="146" type="curve" smooth="yes"/>
      <point x="1401" y="146"/>
      <point x="1305" y="235"/>
      <point x="1305" y="362" type="curve" smooth="yes"/>
      <point x="1305" y="489"/>
      <point x="1401" y="578"/>
      <point x="1522" y="578" type="curve" smooth="yes"/>
      <point x="1643" y="578"/>
      <point x="1739" y="489"/>
      <point x="1739" y="362" type="curve" smooth="yes"/>
      <point x="1739" y="235"/>
      <point x="1643" y="146"/>
    </contour>
    <contour>
      <point x="651" y="0" type="line"/>
      <point x="1611" y="1650" type="line"/>
      <point x="1412" y="1650" type="line"/>
      <point x="452" y="0" type="line"/>
    </contour>
  </outline>
</glyph>
<glyph name="ampersand" format="2">
  <advance width="1829"/>
  <unicode hex="0026"/>
  <outline>
    <contour>
      <point x="649" y="-32" type="curve" smooth="yes"/>
      <point x="859" y="-32"/>
      <point x="1044" y="49"/>
      <point x="1200" y="190" type="curve"/>
      <point x="1380" y="0" type="line" name=".hr01"/>
      <point x="1767" y="0" type="line"/>
      <point x="1429" y="357" type="line"/>
      <point x="1493" y="416"/>
      <point x="1580" y="512"/>
      <point x="1653" y="599" type="curve"/>
      <point x="1463" y="780" type="line"/>
      <point x="1414" y="724"/>
      <point x="1305" y="607"/>
      <point x="1237" y="554" type="curve"/>
      <point x="946" y="862" type="line"/>
      <point x="1162" y="975"/>
      <point x="1278" y="1108"/>
      <point x="1278" y="1278" type="curve" smooth="yes"/>
      <point x="1278" y="1474"/>
      <point x="1121" y="1682"/>
      <point x="807" y="1682" type="curve" smooth="yes"/>
      <point x="544" y="1682"/>
      <point x="332" y="1533"/>
      <point x="332" y="1276" type="curve" smooth="yes"/>
      <point x="332" y="1156"/>
      <point x="380" y="1055"/>
      <point x="515" y="896" type="curve"/>
      <point x="247" y="783"/>
      <point x="115" y="629" name=".hr02"/>
      <point x="115" y="416" type="curve" smooth="yes"/>
      <point x="115" y="144"/>
      <point x="334" y="-32"/>
    </contour>
    <contour>
      <point x="691" y="260" type="curve" smooth="yes"/>
      <point x="562" y="260"/>
      <point x="461" y="332"/>
      <point x="461" y="462" type="curve" smooth="yes"/>
      <point x="461" y="577"/>
      <point x="542" y="679"/>
      <point x="674" y="731" type="curve"/>
      <point x="1000" y="399" type="line"/>
      <point x="905" y="310"/>
      <point x="797" y="260"/>
    </contour>
    <contour>
      <point x="790" y="1031" type="curve"/>
      <point x="686" y="1131"/>
      <point x="644" y="1203"/>
      <point x="644" y="1284" type="curve" smooth="yes"/>
      <point x="644" y="1389" name=".hr03"/>
      <point x="716" y="1462"/>
      <point x="822" y="1462" type="curve" smooth="yes"/>
      <point x="929" y="1462"/>
      <point x="1008" y="1387"/>
      <point x="1008" y="1280" type="curve" smooth="yes"/>
      <point x="1008" y="1177"/>
      <point x="933" y="1109"/>
    </contour>
  </outline>
</glyph>
<glyph name="quotesingle" format="2">
  <advance width="670"/>
  <unicode hex="0027"/>
  <outline>
    <contour>
      <point x="424" y="1085" type="line"/>
      <point x="476" y="1720" type="line"/>
      <point x="194" y="1720" type="line"/>
      <point x="247" y="1085" type="line"/>
    </contour>
  </outline>
</glyph>
<glyph name="parenleft" format="2">
  <advance width="738"/>
  <unicode hex="0028"/>
  <outline>
    <contour>
      <point x="657" y="-427" type="line"/>
      <point x="538" y="-244"/>
      <point x="390" y="130"/>
      <point x="390" y="614" type="curve" smooth="yes"/>
      <point x="390" y="1105"/>
      <point x="539" y="1478"/>
      <point x="657" y="1657" type="curve"/>
      <point x="477" y="1750" type="line"/>
      <point x="321" y="1548"/>
      <point x="120" y="1132"/>
      <point x="120" y="614" type="curve" smooth="yes"/>
      <point x="120" y="98"/>
      <point x="321" y="-317"/>
      <point x="477" y="-520" type="curve"/>
    </contour>
  </outline>
</glyph>
<glyph name="asterisk" format="2">
  <advance width="986"/>
  <unicode hex="002A"/>
  <outline>
    <contour>
      <point x="491" y="1275" type="line"/>
      <point x="622" y="1104" type="line"/>
      <point x="731" y="1179" type="line"/>
      <point x="607" y="1362" type="line"/>
      <point x="818" y="1437" type="line"/>
      <point x="775" y="1568" type="line"/>
      <point x="564" y="1502" type="line"/>
      <point x="564" y="1720" type="line"/>
      <point x="419" y="1720" type="line"/>
      <point x="419" y="1502" type="line"/>
      <point x="208" y="1568" type="line"/>
      <point x="165" y="1437" type="line"/>
      <point x="376" y="1362" type="line"/>
      <point x="252" y="1179" type="line"/>
      <point x="361" y="1104" type="line"/>
    </contour>
  </outline>
</glyph>
<glyph name="plus" format="2">
  <advance width="1349"/>
  <unicode hex="002B"/>
  <outline>
    <contour>
      <point x="800" y="316" type="line"/>
      <point x="800" y="703" type="line"/>
      <point x="1187" y="703" type="line"/>
      <point x="1187" y="955" type="line"/>
      <point x="800" y="955" type="line"/>
      <point x="800" y="1342" type="line"/>
      <point x="548" y="1342" type="line"/>
      <point x="548" y="955" type="line"/>
      <point x="161" y="955" type="line"/>
      <point x="161" y="703" type="line"/>
      <point x="548" y="703" type="line"/>
      <point x="548" y="316" type="line"/>
    </contour>
  </outline>
</glyph>
<glyph name="comma" format="2">
  <advance width="753"/>
  <unicode hex="002C"/>
  <outline>
    <contour>
      <point x="294" y="-335" type="line"/>
      <point x="469" y="-192"/>
      <point x="578" y="-11"/>
      <point x="578" y="139" type="curve" smooth="yes"/>
      <point x="578" y="269"/>
      <point x="495" y="350"/>
      <point x="386" y="350" type="curve" smooth="yes"/>
      <point x="276" y="350"/>
      <point x="193" y="268"/>
      <point x="193" y="161" type="curve" smooth="yes"/>
      <point x="193" y="74"/>
      <point x="248" y="6"/>
      <point x="338" y="-16" type="curve"/>
      <point x="325" y="-99"/>
      <point x="262" y="-221"/>
      <point x="212" y="-268" type="curve"/>
    </contour>
  </outline>
</glyph>
<glyph name="hyphen" format="2">
  <advance width="1012"/>
  <unicode hex="002D"/>
  <outline>
    <contour>
      <point x="828" y="453" type="line"/>
      <point x="828" y="704" type="line"/>
      <point x="184" y="704" type="line"/>
      <point x="184" y="453" type="line"/>
    </contour>
  </outline>
</glyph>
<glyph name="period" format="2">
  <advance width="750"/>
  <unicode hex="002E"/>
  <outline>
    <contour>
      <point x="375" y="-32" type="curve" smooth="yes"/>
      <point x="481" y="-32"/>
      <point x="566" y="53"/>
      <point x="566" y="159" type="curve" smooth="yes"/>
      <point x="566" y="265"/>
      <point x="481" y="350"/>
      <point x="375" y="350" type="curve" smooth="yes"/>
      <point x="269" y="350"/>
      <point x="184" y="265"/>
      <point x="184" y="159" type="curve" smooth="yes"/>
      <point x="184" y="53"/>
      <point x="269" y="-32"/>
    </contour>
  </outline>
</glyph>
<glyph name="slash" format="2">
  <advance width="1017"/>
  <unicode hex="002F"/>
  <outline>
    <contour>
      <point x="221" y="-240" type="line"/>
      <point x="1045" y="1720" type="line"/>
      <point x="796" y="1720" type="line"/>
      <point x="-28" y="-240" type="line"/>
    </contour>
  </outline>
</glyph>
<glyph name="zero" format="2">
  <advance width="1500"/>
  <unicode hex="0030"/>
  <outline>
    <contour>
      <point x="750" y="-32" type="curve" smooth="yes"/>
      <point x="1154" y="-32"/>
      <point x="1428" y="315"/>
      <point x="1428" y="824" type="curve" smooth="yes"/>
      <point x="1428" y="1333"/>
      <point x="1154" y="1680"/>
      <point x="750" y="1680" type="curve" smooth="yes"/>
      <point x="345" y="1680"/>
      <point x="72" y="1333"/>
      <point x="72" y="824" type="curve" smooth="yes"/>
      <point x="72" y="315"/>
      <point x="345" y="-32"/>
    </contour>
    <contour>
      <point x="750" y="240" type="curve" smooth="yes"/>
      <point x="533" y="240"/>
      <point x="397" y="463"/>
      <point x="397" y="824" type="curve" smooth="yes"/>
      <point x="397" y="1185"/>
      <point x="533" y="1408"/>
      <point x="750" y="1408" type="curve" smooth="yes"/>
      <point x="966" y="1408"/>
      <point x="1102" y="1185"/>
      <point x="1102" y="824" type="curve" smooth="yes"/>
      <point x="1102" y="463"/>
      <point x="966" y="240"/>
    </contour>
  </outline>
</glyph>
<glyph name="one" format="2">
  <advance width="1500"/>
  <unicode hex="0031"/>
  <outline>
    <contour>
      <point x="942" y="0" type="line"/>
      <point x="942" y="1650" type="line"/>
      <point x="395" y="1650" type="line"/>
      <point x="395" y="1348" type="line"/>
      <point x="634" y="1348" type="line"/>
      <point x="634" y="0" type="line"/>
    </contour>
  </outline>
</glyph>
<glyph name="two" format="2">
  <advance width="1500"/>
  <unicode hex="0032"/>
  <outline>
    <contour>
      <point x="1347" y="0" type="line"/>
      <point x="1347" y="275" type="line"/>
      <point x="660" y="275" type="line"/>
      <point x="1143" y="629"/>
      <point x="1317" y="862"/>
      <point x="1317" y="1128" type="curve" smooth="yes"/>
      <point x="1317" y="1447"/>
      <point x="1065" y="1681"/>
      <point x="720" y="1681" type="curve" smooth="yes"/>
      <point x="423" y="1681"/>
      <point x="207" y="1498"/>
      <point x="130" y="1198" type="curve"/>
      <point x="385" y="1096" type="line"/>
      <point x="420" y="1284"/>
      <point x="547" y="1405"/>
      <point x="701" y="1405" type="curve" smooth="yes"/>
      <point x="862" y="1405"/>
      <point x="985" y="1276"/>
      <point x="985" y="1119" type="curve" smooth="yes"/>
      <point x="985" y="912"/>
      <point x="756" y="665"/>
      <point x="96" y="157" type="curve"/>
      <point x="96" y="0" type="line"/>
    </contour>
  </outline>
</glyph>
<glyph name="three" format="2">
  <advance width="1500"/>
  <unicode hex="0033"/>
  <outline>
    <contour>
      <point x="717" y="-32" type="curve" smooth="yes"/>
      <point x="1062" y="-32"/>
      <point x="1298" y="188"/>
      <point x="1298" y="486" type="curve" smooth="yes"/>
      <point x="1298" y="666"/>
      <point x="1208" y="803"/>
      <point x="1066" y="876" type="curve"/>
      <point x="1178" y="948"/>
      <point x="1245" y="1068"/>
      <point x="1245" y="1210" type="curve" smooth="yes"/>
      <point x="1245" y="1479"/>
      <point x="1025" y="1680"/>
      <point x="727" y="1680" type="curve" smooth="yes"/>
      <point x="476" y="1680"/>
      <point x="283" y="1534"/>
      <point x="228" y="1300" type="curve"/>
      <point x="454" y="1199" type="line"/>
      <point x="474" y="1333"/>
      <point x="587" y="1430"/>
      <point x="722" y="1430" type="curve" smooth="yes"/>
      <point x="857" y="1430"/>
      <point x="964" y="1331"/>
      <point x="964" y="1204" type="curve" smooth="yes"/>
      <point x="964" y="1075"/>
      <point x="855" y="960"/>
      <point x="722" y="960" type="curve" smooth="yes"/>
      <point x="648" y="960" type="line"/>
      <point x="648" y="753" type="line"/>
      <point x="668" y="761"/>
      <point x="693" y="764"/>
      <point x="720" y="764" type="curve" smooth="yes"/>
      <point x="868" y="764"/>
      <point x="989" y="644"/>
      <point x="989" y="485" type="curve" smooth="yes"/>
      <point x="989" y="335"/>
      <point x="883" y="236"/>
      <point x="718" y="236" type="curve" smooth="yes"/>
      <point x="556" y="236"/>
      <point x="444" y="329"/>
      <point x="422" y="469" type="curve"/>
      <point x="156" y="387" type="line"/>
      <point x="202" y="132"/>
      <point x="423" y="-32"/>
    </contour>
  </outline>
</glyph>
<glyph name="four" format="2">
  <advance width="1500"/>
  <unicode hex="0034"/>
  <outline>
    <contour>
      <point x="1172" y="0" type="line"/>
      <point x="1172" y="304" type="line"/>
      <point x="1364" y="304" type="line"/>
      <point x="1364" y="574" type="line"/>
      <point x="1172" y="574" type="line"/>
      <point x="1172" y="1650" type="line"/>
      <point x="866" y="1650" type="line"/>
      <point x="59" y="402" type="line"/>
      <point x="59" y="304" type="line"/>
      <point x="882" y="304" type="line"/>
      <point x="882" y="0" type="line"/>
    </contour>
    <contour>
      <point x="882" y="1236" type="line"/>
      <point x="882" y="574" type="line"/>
      <point x="477" y="574" type="line"/>
    </contour>
  </outline>
</glyph>
<glyph name="five" format="2">
  <advance width="1500"/>
  <unicode hex="0035"/>
  <outline>
    <contour>
      <point x="374" y="1650" type="line"/>
      <point x="235" y="756" type="line"/>
      <point x="331" y="825"/>
      <point x="447" y="863"/>
      <point x="573" y="863" type="curve" smooth="yes"/>
      <point x="840" y="863"/>
      <point x="1015" y="734"/>
      <point x="1015" y="521" type="curve" smooth="yes"/>
      <point x="1015" y="347"/>
      <point x="897" y="226"/>
      <point x="708" y="226" type="curve" smooth="yes"/>
      <point x="547" y="226"/>
      <point x="418" y="313"/>
      <point x="376" y="446" type="curve"/>
      <point x="132" y="327" type="line"/>
      <point x="217" y="97"/>
      <point x="451" y="-32"/>
      <point x="714" y="-32" type="curve" smooth="yes"/>
      <point x="1055" y="-32"/>
      <point x="1322" y="182"/>
      <point x="1322" y="540" type="curve" smooth="yes"/>
      <point x="1322" y="870"/>
      <point x="1095" y="1087"/>
      <point x="772" y="1087" type="curve" smooth="yes"/>
      <point x="682" y="1087"/>
      <point x="602" y="1064"/>
      <point x="531" y="1018" type="curve"/>
      <point x="579" y="1004" type="line"/>
      <point x="637" y="1380" type="line"/>
      <point x="1216" y="1380" type="line"/>
      <point x="1216" y="1650" type="line"/>
    </contour>
  </outline>
</glyph>
<glyph name="six" format="2">
  <advance width="1500"/>
  <unicode hex="0036"/>
  <outline>
    <contour>
      <point x="769" y="-32" type="curve" smooth="yes"/>
      <point x="1127" y="-32"/>
      <point x="1372" y="199"/>
      <point x="1372" y="539" type="curve" smooth="yes"/>
      <point x="1372" y="870"/>
      <point x="1146" y="1105"/>
      <point x="848" y="1105" type="curve" smooth="yes"/>
      <point x="787" y="1105"/>
      <point x="735" y="1093"/>
      <point x="692" y="1072" type="curve"/>
      <point x="1178" y="1650" type="line"/>
      <point x="805" y="1650" type="line"/>
      <point x="375" y="1130" type="line" smooth="yes"/>
      <point x="218" y="941"/>
      <point x="132" y="737"/>
      <point x="132" y="550" type="curve" smooth="yes"/>
      <point x="132" y="227"/>
      <point x="388" y="-32"/>
    </contour>
    <contour>
      <point x="754" y="224" type="curve" smooth="yes"/>
      <point x="573" y="224"/>
      <point x="451" y="359"/>
      <point x="451" y="527" type="curve" smooth="yes"/>
      <point x="451" y="704"/>
      <point x="587" y="841"/>
      <point x="760" y="841" type="curve" smooth="yes"/>
      <point x="930" y="841"/>
      <point x="1064" y="709"/>
      <point x="1064" y="530" type="curve" smooth="yes"/>
      <point x="1064" y="353"/>
      <point x="933" y="224"/>
    </contour>
  </outline>
</glyph>
<glyph name="seven" format="2">
  <advance width="1500"/>
  <unicode hex="0037"/>
  <outline>
    <contour>
      <point x="514" y="0" type="line"/>
      <point x="1386" y="1558" type="line"/>
      <point x="1386" y="1650" type="line"/>
      <point x="190" y="1650" type="line"/>
      <point x="190" y="1380" type="line"/>
      <point x="931" y="1380" type="line"/>
      <point x="150" y="0" type="line"/>
    </contour>
  </outline>
</glyph>
<glyph name="eight" format="2">
  <advance width="1500"/>
  <unicode hex="0038"/>
  <outline>
    <contour>
      <point x="749" y="-32" type="curve" smooth="yes"/>
      <point x="1079" y="-32"/>
      <point x="1338" y="172"/>
      <point x="1338" y="453" type="curve" smooth="yes"/>
      <point x="1338" y="645"/>
      <point x="1221" y="812"/>
      <point x="1043" y="886" type="curve"/>
      <point x="1181" y="958"/>
      <point x="1270" y="1097" name=".hr01"/>
      <point x="1270" y="1253" type="curve" smooth="yes"/>
      <point x="1270" y="1523"/>
      <point x="1002" y="1680" name=".hr02"/>
      <point x="749" y="1680" type="curve" smooth="yes"/>
      <point x="461" y="1680"/>
      <point x="228" y="1498"/>
      <point x="228" y="1252" type="curve" smooth="yes"/>
      <point x="228" y="1101"/>
      <point x="313" y="960"/>
      <point x="455" y="886" type="curve"/>
      <point x="280" y="813"/>
      <point x="161" y="647" name=".hr03"/>
      <point x="161" y="454" type="curve" smooth="yes"/>
      <point x="161" y="171"/>
      <point x="419" y="-32"/>
    </contour>
    <contour>
      <point x="749" y="235" type="curve" smooth="yes"/>
      <point x="599" y="235"/>
      <point x="496" y="343"/>
      <point x="496" y="487" type="curve" smooth="yes"/>
      <point x="496" y="636"/>
      <point x="605" y="741"/>
      <point x="749" y="741" type="curve" smooth="yes"/>
      <point x="896" y="741"/>
      <point x="1002" y="634"/>
      <point x="1002" y="487" type="curve" smooth="yes"/>
      <point x="1002" y="344"/>
      <point x="901" y="235"/>
    </contour>
    <contour>
      <point x="749" y="999" type="curve" smooth="yes"/>
      <point x="620" y="999"/>
      <point x="525" y="1094"/>
      <point x="525" y="1222" type="curve" smooth="yes"/>
      <point x="525" y="1349" name=".hr04"/>
      <point x="621" y="1445"/>
      <point x="749" y="1445" type="curve" smooth="yes"/>
      <point x="877" y="1445"/>
      <point x="973" y="1349"/>
      <point x="973" y="1222" type="curve" smooth="yes"/>
      <point x="973" y="1094"/>
      <point x="878" y="999"/>
    </contour>
  </outline>
</glyph>
<glyph name="nine" format="2">
  <advance width="1500"/>
  <unicode hex="0039"/>
  <outline>
    <contour>
      <point x="692" y="0" type="line"/>
      <point x="1122" y="520" type="line" smooth="yes"/>
      <point x="1282" y="713"/>
      <point x="1364" y="909"/>
      <point x="1364" y="1093" type="curve" smooth="yes"/>
      <point x="1364" y="1421"/>
      <point x="1111" y="1680"/>
      <point x="728" y="1680" type="curve" smooth="yes"/>
      <point x="352" y="1680"/>
      <point x="125" y="1430"/>
      <point x="125" y="1114" type="curve" smooth="yes"/>
      <point x="125" y="778"/>
      <point x="382" y="544"/>
      <point x="658" y="544" type="curve" smooth="yes"/>
      <point x="715" y="544"/>
      <point x="771" y="558"/>
      <point x="811" y="583" type="curve"/>
      <point x="318" y="0" type="line"/>
    </contour>
    <contour>
      <point x="742" y="810" type="curve" smooth="yes"/>
      <point x="568" y="810"/>
      <point x="435" y="943"/>
      <point x="435" y="1119" type="curve" smooth="yes"/>
      <point x="435" y="1294"/>
      <point x="566" y="1422"/>
      <point x="742" y="1422" type="curve" smooth="yes"/>
      <point x="918" y="1422"/>
      <point x="1044" y="1295"/>
      <point x="1044" y="1119" type="curve" smooth="yes"/>
      <point x="1044" y="947"/>
      <point x="911" y="810"/>
    </contour>
  </outline>
</glyph>
<glyph name="less" format="2">
  <advance width="1431"/>
  <unicode hex="003C"/>
  <outline>
    <contour>
      <point x="1227" y="505" type="line"/>
      <point x="445" y="832" type="line"/>
      <point x="1227" y="1159" type="line"/>
      <point x="1227" y="1394" type="line"/>
      <point x="134" y="928" type="line"/>
      <point x="134" y="736" type="line"/>
      <point x="1227" y="270" type="line"/>
    </contour>
  </outline>
</glyph>
<glyph name="equal" format="2">
  <advance width="1577"/>
  <unicode hex="003D"/>
  <outline>
    <contour>
      <point x="1302" y="933" type="line"/>
      <point x="1302" y="1185" type="line"/>
      <point x="275" y="1185" type="line"/>
      <point x="275" y="933" type="line"/>
    </contour>
    <contour>
      <point x="1302" y="475" type="line"/>
      <point x="1302" y="727" type="line"/>
      <point x="275" y="727" type="line"/>
      <point x="275" y="475" type="line"/>
    </contour>
  </outline>
</glyph>
<glyph name="greater" format="2">
  <advance width="1431"/>
  <unicode hex="003E"/>
  <outline>
    <contour>
      <point x="1296" y="736" type="line"/>
      <point x="1296" y="928" type="line"/>
      <point x="203" y="1394" type="line"/>
      <point x="203" y="1159" type="line"/>
      <point x="985" y="832" type="line"/>
      <point x="203" y="505" type="line"/>
      <point x="203" y="270" type="line"/>
    </contour>
  </outline>
</glyph>
<glyph name="question" format="2">
  <advance width="1228"/>
  <unicode hex="003F"/>
  <outline>
    <component base="period" xOffset="171"/>
    <contour>
      <point x="712" y="505" type="line"/>
      <point x="712" y="699" type="line"/>
      <point x="947" y="734"/>
      <point x="1131" y="938"/>
      <point x="1131" y="1186" type="curve" smooth="yes"/>
      <point x="1131" y="1454"/>
      <point x="913" y="1680"/>
      <point x="596" y="1680" type="curve" smooth="yes"/>
      <point x="354" y="1680"/>
      <point x="147" y="1546"/>
      <point x="81" y="1317" type="curve"/>
      <point x="286" y="1200" type="line"/>
      <point x="327" y="1339"/>
      <point x="436" y="1421"/>
      <point x="587" y="1421" type="curve" smooth="yes"/>
      <point x="747" y="1421"/>
      <point x="856" y="1330"/>
      <point x="856" y="1183" type="curve" smooth="yes"/>
      <point x="856" y="1031"/>
      <point x="741" y="942"/>
      <point x="557" y="942" type="curve" smooth="yes"/>
      <point x="512" y="942"/>
      <point x="470" y="948"/>
      <point x="441" y="956" type="curve"/>
      <point x="441" y="505" type="line"/>
    </contour>
  </outline>
</glyph>
<glyph name="at" format="2">
  <advance width="2016"/>
  <unicode hex="0040"/>
  <outline>
    <contour>
      <point x="1035" y="-474" type="curve" smooth="yes"/>
      <point x="1337" y="-474"/>
      <point x="1544" y="-339"/>
      <point x="1645" y="-200" type="curve"/>
      <point x="1452" y="-73" type="line"/>
      <point x="1378" y="-157"/>
      <point x="1234" y="-239"/>
      <point x="1037" y="-239" type="curve" smooth="yes"/>
      <point x="670" y="-239"/>
      <point x="391" y="35"/>
      <point x="391" y="384" type="curve" smooth="yes"/>
      <point x="391" y="720"/>
      <point x="645" y="1026"/>
      <point x="1041" y="1026" type="curve" smooth="yes"/>
      <point x="1349" y="1026"/>
      <point x="1692" y="839"/>
      <point x="1692" y="427" type="curve" smooth="yes"/>
      <point x="1692" y="260"/>
      <point x="1635" y="194"/>
      <point x="1561" y="194" type="curve" smooth="yes"/>
      <point x="1468" y="194"/>
      <point x="1446" y="262"/>
      <point x="1446" y="325" type="curve" smooth="yes"/>
      <point x="1446" y="763" type="line"/>
      <point x="1260" y="763" type="line"/>
      <point x="1260" y="651" type="line"/>
      <point x="1200" y="734"/>
      <point x="1096" y="787"/>
      <point x="979" y="787" type="curve" smooth="yes"/>
      <point x="748" y="787"/>
      <point x="584" y="606"/>
      <point x="584" y="371" type="curve" smooth="yes"/>
      <point x="584" y="132"/>
      <point x="752" y="-45"/>
      <point x="974" y="-45" type="curve" smooth="yes"/>
      <point x="1111" y="-45"/>
      <point x="1212" y="23"/>
      <point x="1272" y="118" type="curve"/>
      <point x="1332" y="57"/>
      <point x="1418" y="18"/>
      <point x="1525" y="18" type="curve" smooth="yes"/>
      <point x="1713" y="18"/>
      <point x="1883" y="148"/>
      <point x="1883" y="443" type="curve" smooth="yes"/>
      <point x="1883" y="924"/>
      <point x="1496" y="1238"/>
      <point x="1035" y="1238" type="curve" smooth="yes"/>
      <point x="547" y="1238"/>
      <point x="149" y="882"/>
      <point x="149" y="382" type="curve" smooth="yes"/>
      <point x="149" y="-115"/>
      <point x="544" y="-474"/>
    </contour>
    <contour>
      <point x="1027" y="135" type="curve" smooth="yes"/>
      <point x="894" y="135"/>
      <point x="797" y="231"/>
      <point x="797" y="371" type="curve" smooth="yes"/>
      <point x="797" y="515"/>
      <point x="899" y="613"/>
      <point x="1029" y="613" type="curve" smooth="yes"/>
      <point x="1159" y="613"/>
      <point x="1261" y="515"/>
      <point x="1261" y="372" type="curve" smooth="yes"/>
      <point x="1261" y="233"/>
      <point x="1164" y="135"/>
    </contour>
  </outline>
</glyph>
<glyph name="A" format="2">
  <advance width="1664"/>
  <unicode hex="0041"/>
  <anchor x="832" y="0" name="bottom"/>
  <anchor x="1637" y="0" name="ogonek"/>
  <anchor x="832" y="1650" name="top"/>
  <outline>
    <contour>
      <point x="359" y="0" type="line"/>
      <point x="505" y="389" type="line"/>
      <point x="1159" y="389" type="line"/>
      <point x="1305" y="0" type="line"/>
      <point x="1637" y="0" type="line"/>
      <point x="974" y="1650" type="line"/>
      <point x="690" y="1650" type="line"/>
      <point x="27" y="0" type="line"/>
    </contour>
    <contour>
      <point x="832" y="1234" type="line"/>
      <point x="1053" y="660" type="line"/>
      <point x="611" y="660" type="line"/>
    </contour>
  </outline>
</glyph>
<glyph name="B" format="2">
  <advance width="1321"/>
  <unicode hex="0042"/>
  <anchor x="660" y="0" name="bottom"/>
  <anchor x="660" y="1650" name="top"/>
  <outline>
    <contour>
      <point x="728" y="0" type="line" smooth="yes"/>
      <point x="1056" y="0"/>
      <point x="1261" y="172"/>
      <point x="1261" y="461" type="curve" smooth="yes"/>
      <point x="1261" y="690"/>
      <point x="1132" y="835"/>
      <point x="899" y="871" type="curve"/>
      <point x="1041" y="941"/>
      <point x="1114" y="1065"/>
      <point x="1114" y="1235" type="curve" smooth="yes"/>
      <point x="1114" y="1510"/>
      <point x="924" y="1650"/>
      <point x="607" y="1650" type="curve" smooth="yes"/>
      <point x="144" y="1650" type="line"/>
      <point x="144" y="0" type="line"/>
    </contour>
    <contour>
      <point x="452" y="1411" type="line"/>
      <point x="536" y="1411" type="line" smooth="yes"/>
      <point x="722" y="1411"/>
      <point x="817" y="1338"/>
      <point x="817" y="1195" type="curve" smooth="yes"/>
      <point x="817" y="1054"/>
      <point x="718" y="976"/>
      <point x="536" y="976" type="curve" smooth="yes"/>
      <point x="452" y="976" type="line"/>
    </contour>
    <contour>
      <point x="452" y="709" type="line"/>
      <point x="624" y="709" type="line" smooth="yes"/>
      <point x="826" y="709"/>
      <point x="938" y="623"/>
      <point x="938" y="470" type="curve" smooth="yes"/>
      <point x="938" y="318"/>
      <point x="831" y="239"/>
      <point x="624" y="239" type="curve" smooth="yes"/>
      <point x="452" y="239" type="line"/>
    </contour>
  </outline>
</glyph>
<glyph name="C" format="2">
  <advance width="1536"/>
  <unicode hex="0043"/>
  <anchor x="871" y="0" name="bottom"/>
  <anchor x="871" y="1650" name="top"/>
  <outline>
    <contour>
      <point x="88" y="824" type="curve" smooth="yes"/>
      <point x="88" y="346"/>
      <point x="460" y="-32"/>
      <point x="969" y="-32" type="curve" smooth="yes"/>
      <point x="1172" y="-32"/>
      <point x="1363" y="31"/>
      <point x="1494" y="125" type="curve"/>
      <point x="1345" y="377" type="line"/>
      <point x="1253" y="309"/>
      <point x="1123" y="271"/>
      <point x="989" y="271" type="curve" smooth="yes"/>
      <point x="641" y="271"/>
      <point x="422" y="511"/>
      <point x="422" y="824" type="curve" smooth="yes"/>
      <point x="422" y="1137"/>
      <point x="641" y="1377"/>
      <point x="989" y="1377" type="curve" smooth="yes"/>
      <point x="1123" y="1377"/>
      <point x="1253" y="1339"/>
      <point x="1345" y="1271" type="curve"/>
      <point x="1494" y="1523" type="line"/>
      <point x="1363" y="1617"/>
      <point x="1172" y="1680"/>
      <point x="969" y="1680" type="curve" smooth="yes"/>
      <point x="460" y="1680"/>
      <point x="88" y="1302"/>
    </contour>
  </outline>
</glyph>
<glyph name="D" format="2">
  <advance width="1614"/>
  <unicode hex="0044"/>
  <anchor x="807" y="0" name="bottom"/>
  <anchor x="807" y="825" name="center"/>
  <anchor x="807" y="1650" name="top"/>
  <outline>
    <contour>
      <point x="675" y="0" type="line" smooth="yes"/>
      <point x="1145" y="0"/>
      <point x="1507" y="360"/>
      <point x="1507" y="825" type="curve" smooth="yes"/>
      <point x="1507" y="1290"/>
      <point x="1143" y="1650"/>
      <point x="675" y="1650" type="curve" smooth="yes"/>
      <point x="229" y="1650" type="line"/>
      <point x="229" y="0" type="line"/>
    </contour>
    <contour>
      <point x="537" y="1374" type="line"/>
      <point x="641" y="1374" type="line" smooth="yes"/>
      <point x="947" y="1374"/>
      <point x="1176" y="1140"/>
      <point x="1176" y="825" type="curve" smooth="yes"/>
      <point x="1176" y="510"/>
      <point x="947" y="276"/>
      <point x="641" y="276" type="curve" smooth="yes"/>
      <point x="537" y="276" type="line"/>
    </contour>
  </outline>
</glyph>
<glyph name="E" format="2">
  <advance width="1310"/>
  <unicode hex="0045"/>
  <anchor x="682" y="0" name="bottom"/>
  <anchor x="1139" y="0" name="ogonek"/>
  <anchor x="682" y="1650" name="top"/>
  <outline>
    <contour>
      <point x="1139" y="0" type="line"/>
      <point x="1139" y="271" type="line"/>
      <point x="537" y="271" type="line"/>
      <point x="537" y="692" type="line"/>
      <point x="1115" y="692" type="line"/>
      <point x="1115" y="963" type="line"/>
      <point x="537" y="963" type="line"/>
      <point x="537" y="1379" type="line"/>
      <point x="1139" y="1379" type="line"/>
      <point x="1139" y="1650" type="line"/>
      <point x="229" y="1650" type="line"/>
      <point x="229" y="0" type="line"/>
    </contour>
  </outline>
</glyph>
<glyph name="F" format="2">
  <advance width="1253"/>
  <unicode hex="0046"/>
  <anchor x="626" y="0" name="bottom"/>
  <anchor x="626" y="1650" name="top"/>
  <outline>
    <contour>
      <point x="229" y="1650" type="line"/>
      <point x="229" y="0" type="line"/>
      <point x="537" y="0" type="line"/>
      <point x="537" y="691" type="line"/>
      <point x="1102" y="691" type="line"/>
      <point x="1102" y="962" type="line"/>
      <point x="537" y="962" type="line"/>
      <point x="537" y="1379" type="line"/>
      <point x="1147" y="1379" type="line"/>
      <point x="1147" y="1650" type="line"/>
    </contour>
  </outline>
</glyph>
<glyph name="G" format="2">
  <advance width="1787"/>
  <unicode hex="0047"/>
  <anchor x="902" y="0" name="bottom"/>
  <anchor x="902" y="1650" name="top"/>
  <outline>
    <contour>
      <point x="933" y="-32" type="curve" smooth="yes"/>
      <point x="1308" y="-32"/>
      <point x="1680" y="211"/>
      <point x="1680" y="694" type="curve" smooth="yes"/>
      <point x="1680" y="890" type="line"/>
      <point x="917" y="890" type="line"/>
      <point x="917" y="651" type="line"/>
      <point x="1366" y="651" type="line"/>
      <point x="1366" y="624" type="line" smooth="yes"/>
      <point x="1366" y="404"/>
      <point x="1161" y="252"/>
      <point x="941" y="252" type="curve" smooth="yes"/>
      <point x="652" y="252"/>
      <point x="445" y="511"/>
      <point x="445" y="824" type="curve" smooth="yes"/>
      <point x="445" y="1124"/>
      <point x="628" y="1401"/>
      <point x="962" y="1401" type="curve" smooth="yes"/>
      <point x="1127" y="1401"/>
      <point x="1275" y="1334"/>
      <point x="1363" y="1230" type="curve"/>
      <point x="1550" y="1412" type="line"/>
      <point x="1391" y="1575"/>
      <point x="1198" y="1680"/>
      <point x="942" y="1680" type="curve" smooth="yes"/>
      <point x="442" y="1680"/>
      <point x="113" y="1281"/>
      <point x="113" y="823" type="curve" smooth="yes"/>
      <point x="113" y="351"/>
      <point x="461" y="-32"/>
    </contour>
  </outline>
</glyph>
<glyph name="H" format="2">
  <advance width="1718"/>
  <unicode hex="0048"/>
  <anchor x="858" y="0" name="bottom"/>
  <anchor x="858" y="825" name="center"/>
  <anchor x="858" y="1650" name="top"/>
  <outline>
    <contour>
      <point x="537" y="0" type="line"/>
      <point x="537" y="692" type="line"/>
      <point x="1179" y="692" type="line"/>
      <point x="1179" y="0" type="line"/>
      <point x="1487" y="0" type="line"/>
      <point x="1487" y="1651" type="line"/>
      <point x="1179" y="1651" type="line"/>
      <point x="1179" y="963" type="line"/>
      <point x="537" y="963" type="line"/>
      <point x="537" y="1651" type="line"/>
      <point x="229" y="1651" type="line"/>
      <point x="229" y="0" type="line"/>
    </contour>
  </outline>
</glyph>
<glyph name="J" format="2">
  <advance width="1171"/>
  <unicode hex="004A"/>
  <anchor x="473" y="-20" name="bottom"/>
  <anchor x="681" y="1650" name="top"/>
  <outline>
    <contour>
      <point x="467" y="-32" type="curve" smooth="yes"/>
      <point x="775" y="-32"/>
      <point x="960" y="149"/>
      <point x="960" y="464" type="curve" smooth="yes"/>
      <point x="960" y="1650" type="line"/>
      <point x="652" y="1650" type="line"/>
      <point x="652" y="544" type="line" smooth="yes"/>
      <point x="652" y="368"/>
      <point x="565" y="263"/>
      <point x="418" y="263" type="curve" smooth="yes"/>
      <point x="342" y="263"/>
      <point x="263" y="294"/>
      <point x="191" y="367" type="curve"/>
      <point x="22" y="178" type="line"/>
      <point x="151" y="32"/>
      <point x="287" y="-32"/>
    </contour>
  </outline>
</glyph>
<glyph name="K" format="2">
  <advance width="1633"/>
  <unicode hex="004B"/>
  <anchor x="818" y="0" name="bottom"/>
  <anchor x="818" y="1650" name="top"/>
  <outline>
    <contour>
      <point x="537" y="0" type="line"/>
      <point x="537" y="702" type="line"/>
      <point x="1204" y="0" type="line"/>
      <point x="1630" y="0" type="line"/>
      <point x="818" y="854" type="line"/>
      <point x="1532" y="1650" type="line"/>
      <point x="1155" y="1650" type="line"/>
      <point x="537" y="956" type="line"/>
      <point x="537" y="1650" type="line"/>
      <point x="229" y="1650" type="line"/>
      <point x="229" y="0" type="line"/>
    </contour>
  </outline>
</glyph>
<glyph name="L" format="2">
  <advance width="1187"/>
  <unicode hex="004C"/>
  <anchor x="687" y="0" name="bottom"/>
  <anchor x="594" y="825" name="center"/>
  <anchor x="597" y="1650" name="top"/>
  <anchor x="1167" y="1650" name="topright"/>
  <outline>
    <contour>
      <point x="1142" y="0" type="line"/>
      <point x="1142" y="271" type="line"/>
      <point x="537" y="271" type="line"/>
      <point x="537" y="1650" type="line"/>
      <point x="229" y="1650" type="line"/>
      <point x="229" y="0" type="line"/>
    </contour>
  </outline>
</glyph>
<glyph name="M" format="2">
  <advance width="2054"/>
  <unicode hex="004D"/>
  <anchor x="1027" y="46" name="bottom"/>
  <anchor x="1027" y="1650" name="top"/>
  <outline>
    <contour>
      <point x="537" y="0" type="line"/>
      <point x="537" y="995" type="line"/>
      <point x="932" y="46" type="line"/>
      <point x="1122" y="46" type="line"/>
      <point x="1517" y="995" type="line"/>
      <point x="1517" y="0" type="line"/>
      <point x="1825" y="0" type="line"/>
      <point x="1825" y="1650" type="line"/>
      <point x="1474" y="1650" type="line"/>
      <point x="1027" y="595" type="line"/>
      <point x="580" y="1650" type="line"/>
      <point x="229" y="1650" type="line"/>
      <point x="229" y="0" type="line"/>
    </contour>
  </outline>
</glyph>
<glyph name="N" format="2">
  <advance width="1800"/>
  <unicode hex="004E"/>
  <anchor x="900" y="0" name="bottom"/>
  <anchor x="900" y="1650" name="top"/>
  <outline>
    <contour>
      <point x="537" y="0" type="line"/>
      <point x="537" y="1135" type="line"/>
      <point x="1263" y="0" type="line"/>
      <point x="1571" y="0" type="line"/>
      <point x="1571" y="1650" type="line"/>
      <point x="1263" y="1650" type="line"/>
      <point x="1263" y="514" type="line"/>
      <point x="537" y="1650" type="line"/>
      <point x="229" y="1650" type="line"/>
      <point x="229" y="0" type="line"/>
    </contour>
  </outline>
</glyph>
<glyph name="O" format="2">
  <advance width="1884"/>
  <unicode hex="004F"/>
  <anchor x="942" y="0" name="bottom"/>
  <anchor x="942" y="824" name="center"/>
  <anchor x="1003" y="0" name="ogonek"/>
  <anchor x="942" y="1650" name="top"/>
  <anchor x="19" y="1650" name="topleft"/>
  <anchor x="1864" y="1650" name="topright"/>
  <outline>
    <contour>
      <point x="942" y="-32" type="curve" smooth="yes"/>
      <point x="1404" y="-32"/>
      <point x="1774" y="348"/>
      <point x="1774" y="824" type="curve" smooth="yes"/>
      <point x="1774" y="1300"/>
      <point x="1404" y="1680"/>
      <point x="942" y="1680" type="curve" smooth="yes"/>
      <point x="480" y="1680"/>
      <point x="110" y="1300"/>
      <point x="110" y="824" type="curve" smooth="yes"/>
      <point x="110" y="348"/>
      <point x="480" y="-32"/>
    </contour>
    <contour>
      <point x="942" y="265" type="curve" smooth="yes"/>
      <point x="652" y="265"/>
      <point x="442" y="500"/>
      <point x="442" y="824" type="curve" smooth="yes"/>
      <point x="442" y="1148"/>
      <point x="652" y="1383"/>
      <point x="942" y="1383" type="curve" smooth="yes"/>
      <point x="1232" y="1383"/>
      <point x="1442" y="1148"/>
      <point x="1442" y="824" type="curve" smooth="yes"/>
      <point x="1442" y="500"/>
      <point x="1232" y="265"/>
    </contour>
  </outline>
</glyph>
<glyph name="P" format="2">
  <advance width="1412"/>
  <unicode hex="0050"/>
  <outline>
    <contour>
      <point x="537" y="0" type="line"/>
      <point x="537" y="638" type="line"/>
      <point x="778" y="638" type="line" smooth="yes"/>
      <point x="1100" y="638"/>
      <point x="1330" y="818"/>
      <point x="1330" y="1144" type="curve" smooth="yes"/>
      <point x="1330" y="1470"/>
      <point x="1100" y="1650"/>
      <point x="778" y="1650" type="curve" smooth="yes"/>
      <point x="229" y="1650" type="line"/>
      <point x="229" y="0" type="line"/>
    </contour>
    <contour>
      <point x="537" y="1404" type="line"/>
      <point x="684" y="1404" type="line" smooth="yes"/>
      <point x="861" y="1404"/>
      <point x="1008" y="1328"/>
      <point x="1008" y="1144" type="curve" smooth="yes"/>
      <point x="1008" y="960"/>
      <point x="861" y="884"/>
      <point x="684" y="884" type="curve" smooth="yes"/>
      <point x="537" y="884" type="line"/>
    </contour>
  </outline>
</glyph>
<glyph name="Q" format="2">
  <advance width="1921"/>
  <unicode hex="0051"/>
  <outline>
    <component base="O" xOffset="-14" yOffset="-1"/>
    <contour>
      <point x="884" y="558" type="line"/>
      <point x="1078" y="306"/>
      <point x="1398" y="65"/>
      <point x="1703" y="-54" type="curve"/>
      <point x="1839" y="221" type="line"/>
      <point x="1515" y="316"/>
      <point x="1249" y="475"/>
      <point x="1044" y="691" type="curve"/>
    </contour>
  </outline>
</glyph>
<glyph name="R" format="2">
  <advance width="1499"/>
  <unicode hex="0052"/>
  <anchor x="749" y="0" name="bottom"/>
  <anchor x="749" y="1650" name="top"/>
  <outline>
    <contour>
      <point x="537" y="1404" type="line"/>
      <point x="685" y="1404" type="line" smooth="yes"/>
      <point x="869" y="1404"/>
      <point x="1008" y="1329"/>
      <point x="1008" y="1150" type="curve" smooth="yes"/>
      <point x="1008" y="972"/>
      <point x="869" y="895"/>
      <point x="685" y="895" type="curve" smooth="yes"/>
      <point x="537" y="895" type="line"/>
    </contour>
    <contour>
      <point x="537" y="0" type="line"/>
      <point x="537" y="628" type="line"/>
      <point x="624" y="628" type="line"/>
      <point x="1105" y="0" type="line"/>
      <point x="1496" y="0" type="line"/>
      <point x="949" y="671" type="line"/>
      <point x="1182" y="723"/>
      <point x="1331" y="891"/>
      <point x="1331" y="1150" type="curve" smooth="yes"/>
      <point x="1331" y="1470"/>
      <point x="1103" y="1650"/>
      <point x="779" y="1650" type="curve" smooth="yes"/>
      <point x="229" y="1650" type="line"/>
      <point x="229" y="0" type="line"/>
    </contour>
  </outline>
</glyph>
<glyph name="S" format="2">
  <advance width="1364"/>
  <unicode hex="0053"/>
  <anchor x="678" y="0" name="bottom"/>
  <anchor x="717" y="1672" name="top"/>
  <anchor x="710" y="0" name="cedilla"/>
  <outline>
    <contour>
      <point x="670" y="-32" type="curve" smooth="yes"/>
      <point x="1009" y="-32"/>
      <point x="1252" y="152"/>
      <point x="1252" y="468" type="curve" smooth="yes"/>
      <point x="1252" y="729"/>
      <point x="1063" y="855"/>
      <point x="748" y="975" type="curve" smooth="yes"/>
      <point x="534" y="1056"/>
      <point x="461" y="1121"/>
      <point x="461" y="1212" type="curve" smooth="yes"/>
      <point x="461" y="1312"/>
      <point x="545" y="1399"/>
      <point x="693" y="1399" type="curve" smooth="yes"/>
      <point x="809" y="1399"/>
      <point x="927" y="1350"/>
      <point x="1012" y="1284" type="curve"/>
      <point x="1161" y="1504" type="line"/>
      <point x="1067" y="1599"/>
      <point x="886" y="1680"/>
      <point x="697" y="1680" type="curve" smooth="yes"/>
      <point x="371" y="1680"/>
      <point x="160" y="1456"/>
      <point x="160" y="1205" type="curve" smooth="yes"/>
      <point x="160" y="1001"/>
      <point x="287" y="859"/>
      <point x="588" y="741" type="curve" smooth="yes"/>
      <point x="838" y="642"/>
      <point x="917" y="577"/>
      <point x="917" y="461" type="curve" smooth="yes"/>
      <point x="917" y="332"/>
      <point x="808" y="253"/>
      <point x="658" y="253" type="curve" smooth="yes"/>
      <point x="514" y="253"/>
      <point x="361" y="325"/>
      <point x="235" y="442" type="curve"/>
      <point x="66" y="229" type="line"/>
      <point x="181" y="79"/>
      <point x="416" y="-32"/>
    </contour>
  </outline>
</glyph>
<glyph name="T" format="2">
  <advance width="1250"/>
  <unicode hex="0054"/>
  <anchor x="625" y="0" name="bottom"/>
  <anchor x="625" y="1650" name="top"/>
  <outline>
    <contour>
      <point x="779" y="0" type="line"/>
      <point x="779" y="1377" type="line"/>
      <point x="1205" y="1377" type="line"/>
      <point x="1205" y="1650" type="line"/>
      <point x="45" y="1650" type="line"/>
      <point x="45" y="1377" type="line"/>
      <point x="471" y="1377" type="line"/>
      <point x="471" y="0" type="line"/>
    </contour>
  </outline>
</glyph>
<glyph name="U" format="2">
  <advance width="1648"/>
  <unicode hex="0055"/>
  <anchor x="824" y="0" name="bottom"/>
  <anchor x="918" y="0" name="ogonek"/>
  <anchor x="824" y="1650" name="top"/>
  <outline>
    <contour>
      <point x="824" y="-32" type="curve" smooth="yes"/>
      <point x="1236" y="-32"/>
      <point x="1447" y="177"/>
      <point x="1447" y="586" type="curve" smooth="yes"/>
      <point x="1447" y="1650" type="line"/>
      <point x="1139" y="1650" type="line"/>
      <point x="1139" y="673" type="line" smooth="yes"/>
      <point x="1139" y="389"/>
      <point x="1046" y="271"/>
      <point x="824" y="271" type="curve" smooth="yes"/>
      <point x="602" y="271"/>
      <point x="509" y="389"/>
      <point x="509" y="673" type="curve" smooth="yes"/>
      <point x="509" y="1650" type="line"/>
      <point x="201" y="1650" type="line"/>
      <point x="201" y="586" type="line" smooth="yes"/>
      <point x="201" y="177"/>
      <point x="412" y="-32"/>
    </contour>
  </outline>
</glyph>
<glyph name="V" format="2">
  <advance width="1676"/>
  <unicode hex="0056"/>
  <anchor x="838" y="0" name="bottom"/>
  <anchor x="838" y="1650" name="top"/>
  <outline>
    <contour>
      <point x="959" y="0" type="line"/>
      <point x="1651" y="1650" type="line"/>
      <point x="1303" y="1650" type="line"/>
      <point x="838" y="463" type="line"/>
      <point x="373" y="1650" type="line"/>
      <point x="25" y="1650" type="line"/>
      <point x="717" y="0" type="line"/>
    </contour>
  </outline>
</glyph>
<glyph name="W" format="2">
  <advance width="2388"/>
  <unicode hex="0057"/>
  <anchor x="1194" y="0" name="bottom"/>
  <anchor x="1194" y="1650" name="top"/>
  <outline>
    <contour>
      <point x="870" y="0" type="line"/>
      <point x="1194" y="1055" type="line"/>
      <point x="1518" y="0" type="line"/>
      <point x="1861" y="0" type="line"/>
      <point x="2338" y="1650" type="line"/>
      <point x="1996" y="1650" type="line"/>
      <point x="1674" y="421" type="line"/>
      <point x="1310" y="1650" type="line"/>
      <point x="1078" y="1650" type="line"/>
      <point x="714" y="421" type="line"/>
      <point x="392" y="1650" type="line"/>
      <point x="50" y="1650" type="line"/>
      <point x="527" y="0" type="line"/>
    </contour>
  </outline>
</glyph>
<glyph name="X" format="2">
  <advance width="1667"/>
  <unicode hex="0058"/>
  <outline>
    <contour>
      <point x="399" y="0" type="line"/>
      <point x="833" y="622" type="line"/>
      <point x="1267" y="0" type="line"/>
      <point x="1649" y="0" type="line"/>
      <point x="1023" y="889" type="line"/>
      <point x="1548" y="1650" type="line"/>
      <point x="1180" y="1650" type="line"/>
      <point x="833" y="1145" type="line"/>
      <point x="486" y="1650" type="line"/>
      <point x="118" y="1650" type="line"/>
      <point x="643" y="889" type="line"/>
      <point x="17" y="0" type="line"/>
    </contour>
  </outline>
</glyph>
<glyph name="Y" format="2">
  <advance width="1512"/>
  <unicode hex="0059"/>
  <anchor x="755" y="0" name="bottom"/>
  <anchor x="755" y="1650" name="top"/>
  <outline>
    <contour>
      <point x="910" y="0" type="line"/>
      <point x="910" y="733" type="line"/>
      <point x="1506" y="1650" type="line"/>
      <point x="1135" y="1650" type="line"/>
      <point x="756" y="1047" type="line"/>
      <point x="377" y="1650" type="line"/>
      <point x="6" y="1650" type="line"/>
      <point x="602" y="733" type="line"/>
      <point x="602" y="0" type="line"/>
    </contour>
  </outline>
</glyph>
<glyph name="Z" format="2">
  <advance width="1548"/>
  <unicode hex="005A"/>
  <anchor x="773" y="0" name="bottom"/>
  <anchor x="773" y="825" name="center"/>
  <anchor x="773" y="1650" name="top"/>
  <outline>
    <contour>
      <point x="1431" y="0" type="line"/>
      <point x="1431" y="271" type="line"/>
      <point x="588" y="271" type="line"/>
      <point x="1484" y="1650" type="line"/>
      <point x="163" y="1650" type="line"/>
      <point x="163" y="1379" type="line"/>
      <point x="942" y="1379" type="line"/>
      <point x="47" y="0" type="line"/>
    </contour>
  </outline>
</glyph>
<glyph name="bracketleft" format="2">
  <advance width="844"/>
  <unicode hex="005B"/>
  <outline>
    <contour>
      <point x="797" y="-520" type="line"/>
      <point x="797" y="-324" type="line"/>
      <point x="473" y="-324" type="line"/>
      <point x="473" y="1524" type="line"/>
      <point x="797" y="1524" type="line"/>
      <point x="797" y="1720" type="line"/>
      <point x="221" y="1720" type="line"/>
      <point x="221" y="-520" type="line"/>
    </contour>
  </outline>
</glyph>
<glyph name="asciicircum" format="2">
  <advance width="1191"/>
  <unicode hex="005E"/>
  <outline>
    <contour>
      <point x="369" y="1210" type="line"/>
      <point x="595" y="1474" type="line"/>
      <point x="822" y="1210" type="line"/>
      <point x="1085" y="1210" type="line"/>
      <point x="671" y="1681" type="line"/>
      <point x="520" y="1681" type="line"/>
      <point x="106" y="1210" type="line"/>
    </contour>
  </outline>
</glyph>
<glyph name="underscore" format="2">
  <advance width="1393"/>
  <unicode hex="005F"/>
  <outline>
    <contour>
      <point x="1210" y="-201" type="line"/>
      <point x="1210" y="-58" type="line"/>
      <point x="184" y="-58" type="line"/>
      <point x="184" y="-201" type="line"/>
    </contour>
  </outline>
</glyph>
<glyph name="a" format="2">
  <advance width="1236"/>
  <unicode hex="0061"/>
  <anchor x="606" y="0" name="bottom"/>
  <anchor x="1099" y="10" name="ogonek"/>
  <anchor x="606" y="1024" name="top"/>
  <outline>
    <contour>
      <point x="482" y="-32" type="curve" smooth="yes"/>
      <point x="594" y="-32"/>
      <point x="700" y="0" name=".hr01"/>
      <point x="788" y="59" type="curve"/>
      <point x="788" y="0" type="line"/>
      <point x="1082" y="0" type="line"/>
      <point x="1082" y="599" type="line" smooth="yes"/>
      <point x="1082" y="874"/>
      <point x="868" y="1056"/>
      <point x="547" y="1056" type="curve" smooth="yes"/>
      <point x="393" y="1056"/>
      <point x="254" y="1013"/>
      <point x="159" y="942" type="curve"/>
      <point x="267" y="756" type="line"/>
      <point x="336" y="798"/>
      <point x="444" y="824"/>
      <point x="527" y="824" type="curve" smooth="yes"/>
      <point x="683" y="824"/>
      <point x="788" y="733"/>
      <point x="788" y="604" type="curve" smooth="yes"/>
      <point x="788" y="515" type="line"/>
      <point x="709" y="573"/>
      <point x="590" y="609"/>
      <point x="475" y="609" type="curve" smooth="yes"/>
      <point x="244" y="609"/>
      <point x="92" y="473"/>
      <point x="92" y="284" type="curve" smooth="yes"/>
      <point x="92" y="95"/>
      <point x="248" y="-32" name=".hr02"/>
    </contour>
    <contour>
      <point x="589" y="147" type="curve" smooth="yes"/>
      <point x="470" y="147"/>
      <point x="380" y="213"/>
      <point x="380" y="302" type="curve" smooth="yes"/>
      <point x="380" y="387"/>
      <point x="465" y="449"/>
      <point x="586" y="449" type="curve" smooth="yes"/>
      <point x="708" y="449"/>
      <point x="799" y="384"/>
      <point x="799" y="298" type="curve" smooth="yes"/>
      <point x="799" y="212"/>
      <point x="708" y="147"/>
    </contour>
  </outline>
</glyph>
<glyph name="b" format="2">
  <advance width="1452"/>
  <unicode hex="0062"/>
  <anchor x="726" y="0" name="bottom"/>
  <anchor x="726" y="1720" name="top"/>
  <outline>
    <contour>
      <point x="469" y="512" type="curve" smooth="yes"/>
      <point x="469" y="684"/>
      <point x="588" y="807"/>
      <point x="754" y="807" type="curve" smooth="yes"/>
      <point x="919" y="807"/>
      <point x="1040" y="684"/>
      <point x="1040" y="512" type="curve" smooth="yes"/>
      <point x="1040" y="340"/>
      <point x="919" y="217"/>
      <point x="754" y="217" type="curve" smooth="yes"/>
      <point x="588" y="217"/>
      <point x="469" y="340"/>
    </contour>
    <contour>
      <point x="184" y="1720" type="line"/>
      <point x="184" y="0" type="line"/>
      <point x="476" y="0" type="line" name=".hr01"/>
      <point x="476" y="142" type="line"/>
      <point x="566" y="30"/>
      <point x="692" y="-32"/>
      <point x="839" y="-32" type="curve" smooth="yes" name=".hr02"/>
      <point x="1135" y="-32"/>
      <point x="1347" y="205"/>
      <point x="1347" y="513" type="curve" smooth="yes"/>
      <point x="1347" y="821"/>
      <point x="1135" y="1056"/>
      <point x="839" y="1056" type="curve" smooth="yes"/>
      <point x="692" y="1056"/>
      <point x="566" y="994"/>
      <point x="476" y="882" type="curve"/>
      <point x="476" y="1720" type="line"/>
    </contour>
  </outline>
</glyph>
<glyph name="c" format="2">
  <advance width="1071"/>
  <unicode hex="0063"/>
  <anchor x="575" y="0" name="bottom"/>
  <anchor x="575" y="1024" name="top"/>
  <anchor x="607" y="0" name="cedilla"/>
  <outline>
    <contour>
      <point x="662" y="-32" type="curve" smooth="yes"/>
      <point x="799" y="-32"/>
      <point x="925" y="11"/>
      <point x="1002" y="70" type="curve"/>
      <point x="893" y="261" type="line"/>
      <point x="844" y="226"/>
      <point x="777" y="207"/>
      <point x="706" y="207" type="curve" smooth="yes"/>
      <point x="523" y="207"/>
      <point x="399" y="342"/>
      <point x="399" y="512" type="curve" smooth="yes"/>
      <point x="399" y="682"/>
      <point x="523" y="817"/>
      <point x="706" y="817" type="curve" smooth="yes"/>
      <point x="777" y="817"/>
      <point x="844" y="798"/>
      <point x="893" y="763" type="curve"/>
      <point x="1002" y="954" type="line"/>
      <point x="925" y="1013"/>
      <point x="799" y="1056"/>
      <point x="662" y="1056" type="curve" smooth="yes"/>
      <point x="339" y="1056"/>
      <point x="92" y="818"/>
      <point x="92" y="512" type="curve" smooth="yes"/>
      <point x="92" y="206"/>
      <point x="339" y="-32"/>
    </contour>
  </outline>
</glyph>
<glyph name="d" format="2">
  <advance width="1451"/>
  <unicode hex="0064"/>
  <anchor x="619" y="0" name="bottom"/>
  <anchor x="640" y="1450" name="top"/>
  <outline>
    <contour>
      <point x="412" y="512" type="curve" smooth="yes"/>
      <point x="412" y="684"/>
      <point x="533" y="807"/>
      <point x="698" y="807" type="curve" smooth="yes"/>
      <point x="864" y="807"/>
      <point x="983" y="684"/>
      <point x="983" y="512" type="curve" smooth="yes"/>
      <point x="983" y="340"/>
      <point x="864" y="217"/>
      <point x="698" y="217" type="curve" smooth="yes"/>
      <point x="533" y="217"/>
      <point x="412" y="340"/>
    </contour>
    <contour>
      <point x="105" y="513" type="curve" smooth="yes"/>
      <point x="105" y="205"/>
      <point x="317" y="-32"/>
      <point x="613" y="-32" type="curve" smooth="yes"/>
      <point x="760" y="-32"/>
      <point x="886" y="30"/>
      <point x="976" y="142" type="curve"/>
      <point x="976" y="0" type="line"/>
      <point x="1268" y="0" type="line" name=".hr01"/>
      <point x="1268" y="1720" type="line"/>
      <point x="976" y="1720" type="line"/>
      <point x="976" y="882" type="line"/>
      <point x="886" y="994"/>
      <point x="760" y="1056"/>
      <point x="613" y="1056" type="curve" smooth="yes"/>
      <point x="317" y="1056"/>
      <point x="105" y="821"/>
    </contour>
  </outline>
</glyph>
<glyph name="e" format="2">
  <advance width="1297"/>
  <unicode hex="0065"/>
  <anchor x="690" y="0" name="bottom"/>
  <anchor x="716" y="0" name="ogonek"/>
  <anchor x="656" y="1038" name="top"/>
  <outline>
    <contour>
      <point x="675" y="-32" type="curve" smooth="yes"/>
      <point x="890" y="-32"/>
      <point x="1074" y="66"/>
      <point x="1172" y="230" type="curve"/>
      <point x="961" y="337" type="line"/>
      <point x="884" y="244"/>
      <point x="801" y="201"/>
      <point x="691" y="201" type="curve" smooth="yes"/>
      <point x="513" y="201"/>
      <point x="394" y="311"/>
      <point x="394" y="474" type="curve"/>
      <point x="1194" y="474" type="line"/>
      <point x="1196" y="497"/>
      <point x="1197" y="513"/>
      <point x="1197" y="532" type="curve" smooth="yes"/>
      <point x="1197" y="830"/>
      <point x="968" y="1056"/>
      <point x="663" y="1056" type="curve" smooth="yes"/>
      <point x="344" y="1056"/>
      <point x="94" y="821"/>
      <point x="94" y="510" type="curve" smooth="yes"/>
      <point x="94" y="203"/>
      <point x="341" y="-32"/>
    </contour>
    <contour>
      <point x="403" y="620" type="line"/>
      <point x="411" y="757"/>
      <point x="514" y="851"/>
      <point x="655" y="851" type="curve" smooth="yes"/>
      <point x="794" y="851"/>
      <point x="894" y="760"/>
      <point x="911" y="620" type="curve"/>
    </contour>
  </outline>
</glyph>
<glyph name="f" format="2">
  <advance width="813"/>
  <unicode hex="0066"/>
  <anchor x="372" y="0" name="bottom"/>
  <anchor x="597" y="1720" name="top"/>
  <outline>
    <contour>
      <point x="518" y="0" type="line"/>
      <point x="518" y="802" type="line"/>
      <point x="762" y="802" type="line"/>
      <point x="762" y="1024" type="line"/>
      <point x="518" y="1024" type="line"/>
      <point x="518" y="1296" type="line" smooth="yes"/>
      <point x="518" y="1423"/>
      <point x="558" y="1488"/>
      <point x="638" y="1488" type="curve" smooth="yes"/>
      <point x="670" y="1488"/>
      <point x="704" y="1478"/>
      <point x="733" y="1446" type="curve"/>
      <point x="874" y="1635" type="line"/>
      <point x="807" y="1707"/>
      <point x="697" y="1750"/>
      <point x="586" y="1750" type="curve" smooth="yes"/>
      <point x="373" y="1750"/>
      <point x="226" y="1594"/>
      <point x="226" y="1289" type="curve" smooth="yes"/>
      <point x="226" y="1024" type="line"/>
      <point x="92" y="1024" type="line"/>
      <point x="92" y="802" type="line"/>
      <point x="226" y="802" type="line"/>
      <point x="226" y="0" type="line"/>
    </contour>
  </outline>
</glyph>
<glyph name="g" format="2">
  <advance width="1451"/>
  <unicode hex="0067"/>
  <anchor x="698" y="-520" name="bottom"/>
  <anchor x="698" y="1024" name="top"/>
  <outline>
    <contour>
      <point x="106" y="513" type="curve" smooth="yes"/>
      <point x="106" y="205"/>
      <point x="317" y="-32"/>
      <point x="613" y="-32" type="curve" smooth="yes"/>
      <point x="760" y="-32"/>
      <point x="886" y="30"/>
      <point x="976" y="143" type="curve"/>
      <point x="976" y="-11" type="line" smooth="yes"/>
      <point x="976" y="-184"/>
      <point x="851" y="-298"/>
      <point x="673" y="-298" type="curve" smooth="yes"/>
      <point x="539" y="-298"/>
      <point x="418" y="-235"/>
      <point x="362" y="-136" type="curve"/>
      <point x="123" y="-252" type="line"/>
      <point x="209" y="-447"/>
      <point x="399" y="-550"/>
      <point x="673" y="-550" type="curve" smooth="yes"/>
      <point x="1072" y="-550"/>
      <point x="1268" y="-333"/>
      <point x="1268" y="-28" type="curve" smooth="yes"/>
      <point x="1268" y="1024" type="line"/>
      <point x="976" y="1024" type="line"/>
      <point x="976" y="881" type="line"/>
      <point x="886" y="994"/>
      <point x="760" y="1056" name=".hr01"/>
      <point x="613" y="1056" type="curve" smooth="yes"/>
      <point x="317" y="1056"/>
      <point x="106" y="821"/>
    </contour>
    <contour>
      <point x="412" y="512" type="curve" smooth="yes"/>
      <point x="412" y="683"/>
      <point x="533" y="807"/>
      <point x="699" y="807" type="curve" smooth="yes"/>
      <point x="865" y="807"/>
      <point x="984" y="684"/>
      <point x="984" y="512" type="curve" smooth="yes"/>
      <point x="984" y="341"/>
      <point x="865" y="217"/>
      <point x="699" y="217" type="curve" smooth="yes"/>
      <point x="533" y="217"/>
      <point x="412" y="341"/>
    </contour>
  </outline>
</glyph>
<glyph name="h" format="2">
  <advance width="1381"/>
  <unicode hex="0068"/>
  <anchor x="691" y="0" name="bottom"/>
  <anchor x="691" y="860" name="center"/>
  <anchor x="691" y="1720" name="top"/>
  <outline>
    <contour>
      <point x="476" y="0" type="line"/>
      <point x="476" y="611" type="line" smooth="yes"/>
      <point x="476" y="732"/>
      <point x="562" y="827"/>
      <point x="704" y="827" type="curve" smooth="yes"/>
      <point x="841" y="827"/>
      <point x="925" y="738"/>
      <point x="925" y="585" type="curve" smooth="yes"/>
      <point x="925" y="0" type="line"/>
      <point x="1217" y="0" type="line"/>
      <point x="1217" y="647" type="line" smooth="yes"/>
      <point x="1217" y="892"/>
      <point x="1054" y="1056"/>
      <point x="819" y="1056" type="curve" smooth="yes"/>
      <point x="675" y="1056"/>
      <point x="552" y="996"/>
      <point x="476" y="908" type="curve"/>
      <point x="476" y="1720" type="line"/>
      <point x="184" y="1720" type="line"/>
      <point x="184" y="0" type="line"/>
    </contour>
  </outline>
</glyph>
<glyph name="i" format="2">
  <advance width="658"/>
  <unicode hex="0069"/>
  <anchor x="330" y="0" name="bottom"/>
  <anchor x="475" y="0" name="ogonek"/>
  <outline>
    <component base="idotless"/>
    <contour>
      <point x="330" y="1237" type="curve" smooth="yes"/>
      <point x="426" y="1237"/>
      <point x="503" y="1315"/>
      <point x="503" y="1411" type="curve" smooth="yes"/>
      <point x="503" y="1508"/>
      <point x="426" y="1585"/>
      <point x="330" y="1585" type="curve" smooth="yes"/>
      <point x="233" y="1585"/>
      <point x="155" y="1508"/>
      <point x="155" y="1411" type="curve" smooth="yes"/>
      <point x="155" y="1315"/>
      <point x="233" y="1237"/>
    </contour>
  </outline>
</glyph>
<glyph name="j" format="2">
  <advance width="660"/>
  <unicode hex="006A"/>
  <outline>
    <contour>
      <point x="125" y="-550" type="curve" smooth="yes"/>
      <point x="344" y="-550"/>
      <point x="476" y="-409"/>
      <point x="476" y="-178" type="curve" smooth="yes"/>
      <point x="476" y="1024" type="line"/>
      <point x="184" y="1024" type="line"/>
      <point x="184" y="-128" type="line" smooth="yes"/>
      <point x="184" y="-223"/>
      <point x="144" y="-288"/>
      <point x="64" y="-288" type="curve" smooth="yes"/>
      <point x="33" y="-288"/>
      <point x="-2" y="-278"/>
      <point x="-30" y="-246" type="curve"/>
      <point x="-171" y="-435" type="line"/>
      <point x="-104" y="-507"/>
      <point x="6" y="-550"/>
    </contour>
    <contour>
      <point x="330" y="1237" type="curve" smooth="yes"/>
      <point x="426" y="1237"/>
      <point x="504" y="1315"/>
      <point x="504" y="1411" type="curve" smooth="yes" name=".hr01"/>
      <point x="504" y="1507"/>
      <point x="426" y="1585"/>
      <point x="330" y="1585" type="curve" smooth="yes"/>
      <point x="234" y="1585"/>
      <point x="156" y="1507"/>
      <point x="156" y="1411" type="curve" smooth="yes"/>
      <point x="156" y="1315"/>
      <point x="234" y="1237"/>
    </contour>
  </outline>
</glyph>
<glyph name="k" format="2">
  <advance width="1278"/>
  <unicode hex="006B"/>
  <anchor x="638" y="0" name="bottom"/>
  <anchor x="638" y="1720" name="top"/>
  <outline>
    <contour>
      <point x="476" y="0" type="line"/>
      <point x="476" y="412" type="line"/>
      <point x="884" y="0" type="line"/>
      <point x="1259" y="0" type="line"/>
      <point x="738" y="524" type="line"/>
      <point x="1236" y="1024" type="line"/>
      <point x="858" y="1024" type="line"/>
      <point x="476" y="646" type="line"/>
      <point x="476" y="1720" type="line"/>
      <point x="184" y="1720" type="line"/>
      <point x="184" y="0" type="line"/>
    </contour>
  </outline>
</glyph>
<glyph name="l" format="2">
  <advance width="660"/>
  <unicode hex="006C"/>
  <anchor x="330" y="0" name="bottom"/>
  <anchor x="330" y="860" name="center"/>
  <anchor x="330" y="1720" name="top"/>
  <anchor x="475" y="1720" name="topright"/>
  <outline>
    <contour>
      <point x="476" y="0" type="line"/>
      <point x="476" y="1720" type="line"/>
      <point x="184" y="1720" type="line"/>
      <point x="184" y="0" type="line"/>
    </contour>
  </outline>
</glyph>
<glyph name="m" format="2">
  <advance width="2046"/>
  <unicode hex="006D"/>
  <anchor x="1179" y="0" name="bottom"/>
  <anchor x="1092" y="1024" name="top"/>
  <outline>
    <contour>
      <point x="184" y="1024" type="line"/>
      <point x="184" y="0" type="line"/>
      <point x="476" y="0" type="line"/>
      <point x="476" y="588" type="line" smooth="yes"/>
      <point x="476" y="735"/>
      <point x="566" y="822" name=".hr01"/>
      <point x="691" y="822" type="curve" smooth="yes"/>
      <point x="813" y="822"/>
      <point x="887" y="737"/>
      <point x="887" y="606" type="curve" smooth="yes"/>
      <point x="887" y="0" type="line"/>
      <point x="1179" y="0" type="line"/>
      <point x="1179" y="594" type="line" smooth="yes"/>
      <point x="1179" y="737"/>
      <point x="1266" y="822"/>
      <point x="1392" y="822" type="curve" smooth="yes"/>
      <point x="1513" y="822"/>
      <point x="1590" y="737"/>
      <point x="1590" y="599" type="curve" smooth="yes"/>
      <point x="1590" y="0" type="line"/>
      <point x="1882" y="0" type="line"/>
      <point x="1882" y="679" type="line" smooth="yes"/>
      <point x="1882" y="910"/>
      <point x="1722" y="1056"/>
      <point x="1501" y="1056" type="curve" smooth="yes"/>
      <point x="1351" y="1056"/>
      <point x="1239" y="988"/>
      <point x="1142" y="859" type="curve"/>
      <point x="1088" y="979"/>
      <point x="951" y="1056"/>
      <point x="793" y="1056" type="curve" smooth="yes"/>
      <point x="666" y="1056"/>
      <point x="564" y="1006"/>
      <point x="476" y="885" type="curve"/>
      <point x="476" y="1024" type="line" name=".hr02"/>
    </contour>
  </outline>
</glyph>
<glyph name="n" format="2">
  <advance width="1381"/>
  <unicode hex="006E"/>
  <anchor x="703" y="0" name="bottom"/>
  <anchor x="703" y="1024" name="top"/>
  <outline>
    <contour>
      <point x="476" y="0" type="line"/>
      <point x="476" y="572" type="line" smooth="yes"/>
      <point x="476" y="733"/>
      <point x="562" y="827"/>
      <point x="704" y="827" type="curve" smooth="yes"/>
      <point x="841" y="827"/>
      <point x="925" y="738"/>
      <point x="925" y="586" type="curve" smooth="yes"/>
      <point x="925" y="0" type="line"/>
      <point x="1217" y="0" type="line"/>
      <point x="1217" y="648" type="line" smooth="yes"/>
      <point x="1217" y="893"/>
      <point x="1054" y="1056"/>
      <point x="819" y="1056" type="curve" smooth="yes"/>
      <point x="675" y="1056"/>
      <point x="552" y="996"/>
      <point x="476" y="884" type="curve"/>
      <point x="476" y="1024" type="line" name=".hr01"/>
      <point x="184" y="1024" type="line"/>
      <point x="184" y="0" type="line"/>
    </contour>
  </outline>
</glyph>
<glyph name="o" format="2">
  <advance width="1385"/>
  <unicode hex="006F"/>
  <anchor x="692" y="0" name="bottom"/>
  <anchor x="692" y="512" name="center"/>
  <anchor x="721" y="0" name="ogonek"/>
  <anchor x="692" y="1024" name="top"/>
  <outline>
    <contour>
      <point x="693" y="-32" type="curve" smooth="yes"/>
      <point x="1030" y="-32"/>
      <point x="1290" y="191"/>
      <point x="1290" y="512" type="curve" smooth="yes"/>
      <point x="1290" y="833"/>
      <point x="1030" y="1056"/>
      <point x="693" y="1056" type="curve" smooth="yes"/>
      <point x="355" y="1056"/>
      <point x="95" y="833"/>
      <point x="95" y="512" type="curve" smooth="yes"/>
      <point x="95" y="191"/>
      <point x="355" y="-32"/>
    </contour>
    <contour>
      <point x="693" y="218" type="curve" smooth="yes"/>
      <point x="527" y="218"/>
      <point x="400" y="340"/>
      <point x="400" y="512" type="curve" smooth="yes"/>
      <point x="400" y="684"/>
      <point x="527" y="806"/>
      <point x="693" y="806" type="curve" smooth="yes"/>
      <point x="858" y="806"/>
      <point x="985" y="684"/>
      <point x="985" y="512" type="curve" smooth="yes"/>
      <point x="985" y="340"/>
      <point x="858" y="218"/>
    </contour>
  </outline>
</glyph>
<glyph name="q" format="2">
  <advance width="1409"/>
  <unicode hex="0071"/>
  <anchor x="712" y="0" name="bottom"/>
  <anchor x="700" y="1024" name="top"/>
  <outline>
    <contour>
      <point x="399" y="512" type="curve" smooth="yes"/>
      <point x="399" y="684"/>
      <point x="520" y="807"/>
      <point x="685" y="807" type="curve" smooth="yes"/>
      <point x="851" y="807"/>
      <point x="970" y="684"/>
      <point x="970" y="512" type="curve" smooth="yes"/>
      <point x="970" y="340"/>
      <point x="851" y="217"/>
      <point x="685" y="217" type="curve" smooth="yes"/>
      <point x="520" y="217"/>
      <point x="399" y="340"/>
    </contour>
    <contour>
      <point x="92" y="513" type="curve" smooth="yes"/>
      <point x="92" y="205"/>
      <point x="304" y="-32"/>
      <point x="600" y="-32" type="curve" smooth="yes"/>
      <point x="747" y="-32"/>
      <point x="873" y="30"/>
      <point x="963" y="142" type="curve"/>
      <point x="963" y="-520" type="line"/>
      <point x="1255" y="-520" type="line"/>
      <point x="1255" y="1024" type="line"/>
      <point x="963" y="1024" type="line" name=".hr01"/>
      <point x="963" y="882" type="line"/>
      <point x="873" y="994"/>
      <point x="747" y="1056"/>
      <point x="600" y="1056" type="curve" smooth="yes" name=".hr02"/>
      <point x="304" y="1056"/>
      <point x="92" y="821"/>
    </contour>
  </outline>
</glyph>
<glyph name="r" format="2">
  <advance width="1007"/>
  <unicode hex="0072"/>
  <anchor x="520" y="0" name="bottom"/>
  <anchor x="567" y="1024" name="top"/>
  <outline>
    <contour>
      <point x="476" y="0" type="line"/>
      <point x="476" y="517" type="line" smooth="yes"/>
      <point x="476" y="701"/>
      <point x="586" y="803"/>
      <point x="714" y="803" type="curve" smooth="yes"/>
      <point x="770" y="803"/>
      <point x="830" y="784"/>
      <point x="877" y="754" type="curve"/>
      <point x="998" y="1001" type="line"/>
      <point x="946" y="1033"/>
      <point x="870" y="1056"/>
      <point x="794" y="1056" type="curve" smooth="yes"/>
      <point x="665" y="1056"/>
      <point x="545" y="992"/>
      <point x="476" y="856" type="curve"/>
      <point x="476" y="1024" type="line" name=".hr01"/>
      <point x="184" y="1024" type="line"/>
      <point x="184" y="0" type="line"/>
    </contour>
  </outline>
</glyph>
<glyph name="s" format="2">
  <advance width="1021"/>
  <unicode hex="0073"/>
  <anchor x="516" y="0" name="bottom"/>
  <anchor x="503" y="1024" name="top"/>
  <outline>
    <contour>
      <point x="491" y="-32" type="curve" smooth="yes"/>
      <point x="752" y="-32"/>
      <point x="915" y="83"/>
      <point x="915" y="286" type="curve" smooth="yes"/>
      <point x="915" y="453"/>
      <point x="792" y="546"/>
      <point x="593" y="618" type="curve" smooth="yes"/>
      <point x="461" y="666"/>
      <point x="393" y="699"/>
      <point x="393" y="762" type="curve" smooth="yes"/>
      <point x="393" y="817"/>
      <point x="443" y="857"/>
      <point x="534" y="857" type="curve" smooth="yes"/>
      <point x="609" y="857"/>
      <point x="688" y="833"/>
      <point x="751" y="784" type="curve"/>
      <point x="856" y="940" type="line"/>
      <point x="761" y="1015"/>
      <point x="641" y="1055"/>
      <point x="514" y="1055" type="curve" smooth="yes"/>
      <point x="274" y="1055"/>
      <point x="116" y="921"/>
      <point x="116" y="746" type="curve" smooth="yes"/>
      <point x="116" y="560"/>
      <point x="294" y="488"/>
      <point x="426" y="439" type="curve" smooth="yes"/>
      <point x="541" y="396"/>
      <point x="610" y="362"/>
      <point x="610" y="293" type="curve" smooth="yes"/>
      <point x="610" y="220"/>
      <point x="545" y="184"/>
      <point x="463" y="184" type="curve" smooth="yes"/>
      <point x="378" y="184"/>
      <point x="284" y="220"/>
      <point x="208" y="294" type="curve"/>
      <point x="81" y="133" type="line"/>
      <point x="190" y="17"/>
      <point x="325" y="-32"/>
    </contour>
  </outline>
</glyph>
<glyph name="t" format="2">
  <advance width="851"/>
  <unicode hex="0074"/>
  <anchor x="537" y="0" name="bottom"/>
  <anchor x="425" y="512" name="center"/>
  <anchor x="451" y="1407" name="top"/>
  <anchor x="765" y="1024" name="topright"/>
  <outline>
    <contour>
      <point x="528" y="-32" type="curve" smooth="yes"/>
      <point x="616" y="-32"/>
      <point x="715" y="-5"/>
      <point x="781" y="38" type="curve"/>
      <point x="673" y="250" type="line"/>
      <point x="651" y="236"/>
      <point x="624" y="229"/>
      <point x="598" y="229" type="curve" smooth="yes"/>
      <point x="537" y="229"/>
      <point x="505" y="272"/>
      <point x="505" y="352" type="curve" smooth="yes"/>
      <point x="505" y="802" type="line"/>
      <point x="733" y="802" type="line"/>
      <point x="733" y="1024" type="line"/>
      <point x="505" y="1024" type="line"/>
      <point x="505" y="1407" type="line"/>
      <point x="213" y="1407" type="line"/>
      <point x="213" y="1024" type="line"/>
      <point x="79" y="1024" type="line"/>
      <point x="79" y="802" type="line"/>
      <point x="213" y="802" type="line"/>
      <point x="213" y="331" type="line" smooth="yes"/>
      <point x="213" y="103"/>
      <point x="329" y="-32"/>
    </contour>
  </outline>
</glyph>
<glyph name="u" format="2">
  <advance width="1357"/>
  <unicode hex="0075"/>
  <anchor x="678" y="0" name="bottom"/>
  <anchor x="707" y="0" name="ogonek"/>
  <anchor x="678" y="1024" name="top"/>
  <outline>
    <contour>
      <point x="679" y="-32" type="curve" smooth="yes"/>
      <point x="1034" y="-32"/>
      <point x="1198" y="136"/>
      <point x="1198" y="477" type="curve" smooth="yes"/>
      <point x="1198" y="1024" type="line"/>
      <point x="906" y="1024" type="line"/>
      <point x="906" y="545" type="line" smooth="yes"/>
      <point x="906" y="308"/>
      <point x="841" y="206"/>
      <point x="679" y="206" type="curve" smooth="yes"/>
      <point x="517" y="206"/>
      <point x="452" y="308"/>
      <point x="452" y="545" type="curve" smooth="yes"/>
      <point x="452" y="1024" type="line"/>
      <point x="160" y="1024" type="line"/>
      <point x="160" y="477" type="line" smooth="yes"/>
      <point x="160" y="136"/>
      <point x="324" y="-32"/>
    </contour>
  </outline>
</glyph>
<glyph name="v" format="2">
  <advance width="1252"/>
  <unicode hex="0076"/>
  <anchor x="625" y="0" name="bottom"/>
  <anchor x="625" y="1024" name="top"/>
  <outline>
    <contour>
      <point x="724" y="0" type="line"/>
      <point x="1258" y="1024" type="line"/>
      <point x="913" y="1024" type="line"/>
      <point x="626" y="388" type="line"/>
      <point x="338" y="1024" type="line"/>
      <point x="-6" y="1024" type="line"/>
      <point x="528" y="0" type="line"/>
    </contour>
  </outline>
</glyph>
<glyph name="w" format="2">
  <advance width="1971"/>
  <unicode hex="0077"/>
  <anchor x="985" y="0" name="bottom"/>
  <anchor x="985" y="1024" name="top"/>
  <outline>
    <contour>
      <point x="724" y="0" type="line"/>
      <point x="985" y="610" type="line"/>
      <point x="1246" y="0" type="line"/>
      <point x="1442" y="0" type="line"/>
      <point x="1977" y="1024" type="line"/>
      <point x="1642" y="1024" type="line"/>
      <point x="1354" y="390" type="line"/>
      <point x="1084" y="1024" type="line"/>
      <point x="886" y="1024" type="line"/>
      <point x="617" y="390" type="line"/>
      <point x="328" y="1024" type="line"/>
      <point x="-6" y="1024" type="line"/>
      <point x="528" y="0" type="line"/>
    </contour>
  </outline>
</glyph>
<glyph name="x" format="2">
  <advance width="1225"/>
  <unicode hex="0078"/>
  <anchor x="613" y="0" name="bottom"/>
  <anchor x="613" y="1024" name="top"/>
  <outline>
    <contour>
      <point x="348" y="0" type="line"/>
      <point x="613" y="334" type="line"/>
      <point x="878" y="0" type="line"/>
      <point x="1228" y="0" type="line"/>
      <point x="791" y="536" type="line"/>
      <point x="1166" y="1024" type="line"/>
      <point x="828" y="1024" type="line"/>
      <point x="613" y="738" type="line"/>
      <point x="398" y="1024" type="line"/>
      <point x="60" y="1024" type="line"/>
      <point x="434" y="536" type="line"/>
      <point x="-2" y="0" type="line"/>
    </contour>
  </outline>
</glyph>
<glyph name="y" format="2">
  <advance width="1259"/>
  <unicode hex="0079"/>
  <anchor x="629" y="0" name="bottom"/>
  <anchor x="629" y="1024" name="top"/>
  <outline>
    <contour>
      <point x="487" y="-520" type="line"/>
      <point x="1263" y="1024" type="line"/>
      <point x="927" y="1024" type="line"/>
      <point x="647" y="401" type="line"/>
      <point x="326" y="1024" type="line"/>
      <point x="-9" y="1024" type="line"/>
      <point x="477" y="119" type="line"/>
      <point x="153" y="-520" type="line"/>
    </contour>
  </outline>
</glyph>
<glyph name="z" format="2">
  <advance width="1188"/>
  <unicode hex="007A"/>
  <anchor x="593" y="0" name="bottom"/>
  <anchor x="593" y="1023" name="top"/>
  <outline>
    <contour>
      <point x="1089" y="0" type="line"/>
      <point x="1089" y="224" type="line"/>
      <point x="539" y="224" type="line"/>
      <point x="1124" y="1024" type="line"/>
      <point x="127" y="1024" type="line"/>
      <point x="127" y="800" type="line"/>
      <point x="628" y="800" type="line"/>
      <point x="46" y="0" type="line"/>
    </contour>
  </outline>
</glyph>
<glyph name="braceleft" format="2">
  <advance width="787"/>
  <unicode hex="007B"/>
  <outline>
    <contour>
      <point x="700" y="-520" type="line"/>
      <point x="700" y="-307" type="line"/>
      <point x="630" y="-307" type="line" smooth="yes"/>
      <point x="536" y="-307"/>
      <point x="476" y="-239"/>
      <point x="476" y="-135" type="curve" smooth="yes"/>
      <point x="476" y="415" type="line" smooth="yes"/>
      <point x="476" y="512"/>
      <point x="431" y="570"/>
      <point x="373" y="600" type="curve"/>
      <point x="431" y="630"/>
      <point x="476" y="686"/>
      <point x="476" y="785" type="curve" smooth="yes"/>
      <point x="476" y="1335" type="line" smooth="yes"/>
      <point x="476" y="1439"/>
      <point x="536" y="1507"/>
      <point x="630" y="1507" type="curve" smooth="yes"/>
      <point x="700" y="1507" type="line"/>
      <point x="700" y="1720" type="line"/>
      <point x="541" y="1720" type="line" smooth="yes"/>
      <point x="285" y="1720"/>
      <point x="223" y="1524"/>
      <point x="223" y="1358" type="curve" smooth="yes"/>
      <point x="223" y="799" type="line" smooth="yes"/>
      <point x="223" y="714"/>
      <point x="176" y="679"/>
      <point x="98" y="679" type="curve"/>
      <point x="98" y="521" type="line"/>
      <point x="176" y="521"/>
      <point x="223" y="486"/>
      <point x="223" y="401" type="curve" smooth="yes"/>
      <point x="223" y="-158" type="line" smooth="yes"/>
      <point x="223" y="-324"/>
      <point x="285" y="-520"/>
      <point x="541" y="-520" type="curve" smooth="yes"/>
    </contour>
  </outline>
</glyph>
<glyph name="bar" format="2">
  <advance width="803"/>
  <unicode hex="007C"/>
  <outline>
    <contour>
      <point x="528" y="0" type="line"/>
      <point x="528" y="1720" type="line"/>
      <point x="275" y="1720" type="line"/>
      <point x="275" y="0" type="line"/>
    </contour>
  </outline>
</glyph>
<glyph name="asciitilde" format="2">
  <advance width="1480"/>
  <unicode hex="007E"/>
  <outline>
    <contour>
      <point x="208" y="780" type="curve"/>
      <point x="362" y="680" type="line"/>
      <point x="403" y="755"/>
      <point x="461" y="801"/>
      <point x="541" y="801" type="curve" smooth="yes"/>
      <point x="691" y="801"/>
      <point x="767" y="639" name=".hr01"/>
      <point x="951" y="639" type="curve" smooth="yes"/>
      <point x="1079" y="639"/>
      <point x="1192" y="717"/>
      <point x="1273" y="880" type="curve"/>
      <point x="1121" y="980" type="line"/>
      <point x="1077" y="900"/>
      <point x="1016" y="859"/>
      <point x="940" y="859" type="curve" smooth="yes"/>
      <point x="791" y="859"/>
      <point x="715" y="1021" name=".hr02"/>
      <point x="531" y="1021" type="curve" smooth="yes"/>
      <point x="397" y="1021"/>
      <point x="287" y="937"/>
    </contour>
  </outline>
</glyph>
<glyph name="cent" format="2">
  <advance width="1220"/>
  <unicode hex="00A2"/>
  <outline>
    <component base="c" xOffset="55"/>
    <contour>
      <point x="555" y="1272" type="line"/>
      <point x="555" y="1007" type="line"/>
      <point x="735" y="1007" type="line"/>
      <point x="735" y="1272" type="line"/>
    </contour>
    <contour>
      <point x="612" y="0" type="line" name=".hr01"/>
      <point x="612" y="-258" type="line"/>
      <point x="792" y="-258" type="line"/>
      <point x="792" y="0" type="line"/>
    </contour>
  </outline>
</glyph>
<glyph name="sterling" format="2">
  <advance width="1607"/>
  <unicode hex="00A3"/>
  <outline>
    <contour>
      <point x="1121" y="-30" type="curve" smooth="yes"/>
      <point x="1320" y="-30"/>
      <point x="1459" y="90"/>
      <point x="1492" y="269" type="curve"/>
      <point x="1264" y="381" type="line"/>
      <point x="1249" y="276"/>
      <point x="1195" y="208"/>
      <point x="1081" y="208" type="curve" smooth="yes"/>
      <point x="970" y="208"/>
      <point x="842" y="284"/>
      <point x="732" y="299" type="curve"/>
      <point x="760" y="355"/>
      <point x="772" y="410"/>
      <point x="772" y="463" type="curve" smooth="yes"/>
      <point x="772" y="511"/>
      <point x="761" y="552"/>
      <point x="744" y="591" type="curve"/>
      <point x="1098" y="591" type="line"/>
      <point x="1098" y="755" type="line"/>
      <point x="700" y="755" type="line"/>
      <point x="633" y="899"/>
      <point x="583" y="1030" name=".hr01"/>
      <point x="583" y="1155" type="curve" smooth="yes"/>
      <point x="583" y="1327"/>
      <point x="679" y="1426"/>
      <point x="842" y="1426" type="curve" smooth="yes"/>
      <point x="1019" y="1426"/>
      <point x="1106" y="1314"/>
      <point x="1144" y="1169" type="curve"/>
      <point x="1394" y="1291" type="line"/>
      <point x="1336" y="1522"/>
      <point x="1135" y="1682"/>
      <point x="847" y="1682" type="curve" smooth="yes"/>
      <point x="517" y="1682"/>
      <point x="294" y="1473"/>
      <point x="294" y="1143" type="curve" smooth="yes"/>
      <point x="294" y="990"/>
      <point x="345" y="864"/>
      <point x="411" y="755" type="curve"/>
      <point x="185" y="755" type="line"/>
      <point x="185" y="591" type="line"/>
      <point x="486" y="591" type="line"/>
      <point x="506" y="557"/>
      <point x="521" y="515" name=".hr02"/>
      <point x="521" y="464" type="curve" smooth="yes"/>
      <point x="521" y="411"/>
      <point x="508" y="357"/>
      <point x="490" y="323" type="curve"/>
      <point x="321" y="319"/>
      <point x="198" y="177"/>
      <point x="198" y="0" type="curve"/>
      <point x="452" y="0" type="line"/>
      <point x="457" y="66"/>
      <point x="513" y="101"/>
      <point x="591" y="101" type="curve" smooth="yes"/>
      <point x="742" y="101"/>
      <point x="916" y="-30"/>
    </contour>
  </outline>
</glyph>
<glyph name="currency" format="2">
  <advance width="1233"/>
  <unicode hex="00A4"/>
  <outline>
    <contour>
      <point x="339" y="243" type="line"/>
      <point x="416" y="186"/>
      <point x="511" y="153"/>
      <point x="617" y="153" type="curve" smooth="yes"/>
      <point x="722" y="153"/>
      <point x="818" y="186"/>
      <point x="895" y="243" type="curve"/>
      <point x="1033" y="104" type="line"/>
      <point x="1135" y="206" type="line"/>
      <point x="996" y="345" type="line"/>
      <point x="1051" y="422"/>
      <point x="1084" y="516"/>
      <point x="1084" y="622" type="curve" smooth="yes"/>
      <point x="1084" y="728"/>
      <point x="1051" y="822"/>
      <point x="996" y="899" type="curve"/>
      <point x="1135" y="1038" type="line"/>
      <point x="1033" y="1140" type="line"/>
      <point x="895" y="1001" type="line"/>
      <point x="818" y="1058"/>
      <point x="722" y="1091"/>
      <point x="617" y="1091" type="curve" smooth="yes"/>
      <point x="511" y="1091"/>
      <point x="416" y="1058"/>
      <point x="339" y="1001" type="curve"/>
      <point x="201" y="1140" type="line"/>
      <point x="99" y="1038" type="line"/>
      <point x="238" y="899" type="line"/>
      <point x="183" y="822"/>
      <point x="150" y="728"/>
      <point x="150" y="622" type="curve" smooth="yes"/>
      <point x="150" y="516"/>
      <point x="183" y="422"/>
      <point x="238" y="345" type="curve"/>
      <point x="99" y="206" type="line"/>
      <point x="201" y="104" type="line"/>
    </contour>
    <contour>
      <point x="617" y="397" type="curve" smooth="yes"/>
      <point x="487" y="397"/>
      <point x="389" y="491"/>
      <point x="389" y="622" type="curve" smooth="yes"/>
      <point x="389" y="753"/>
      <point x="487" y="847"/>
      <point x="617" y="847" type="curve" smooth="yes"/>
      <point x="747" y="847"/>
      <point x="845" y="753"/>
      <point x="845" y="622" type="curve" smooth="yes"/>
      <point x="845" y="491"/>
      <point x="747" y="397"/>
    </contour>
  </outline>
</glyph>
<glyph name="yen" format="2">
  <advance width="1717"/>
  <unicode hex="00A5"/>
  <outline>
    <component base="Y" xOffset="102"/>
    <contour>
      <point x="288" y="844" type="line"/>
      <point x="288" y="625" type="line"/>
      <point x="1428" y="625" type="line"/>
      <point x="1428" y="844" type="line"/>
    </contour>
    <contour>
      <point x="288" y="469" type="line"/>
      <point x="288" y="250" type="line"/>
      <point x="1428" y="250" type="line"/>
      <point x="1428" y="469" type="line"/>
    </contour>
  </outline>
</glyph>
<glyph name="brokenbar" format="2">
  <advance width="803"/>
  <unicode hex="00A6"/>
  <outline>
    <contour>
      <point x="528" y="1056" type="line"/>
      <point x="528" y="1720" type="line"/>
      <point x="275" y="1720" type="line"/>
      <point x="275" y="1056" type="line"/>
    </contour>
    <contour>
      <point x="528" y="0" type="line"/>
      <point x="528" y="664" type="line"/>
      <point x="275" y="664" type="line"/>
      <point x="275" y="0" type="line"/>
    </contour>
  </outline>
</glyph>
<glyph name="section" format="2">
  <advance width="1449"/>
  <unicode hex="00A7"/>
  <outline>
    <contour>
      <point x="705" y="-550" type="curve" smooth="yes"/>
      <point x="997" y="-550"/>
      <point x="1233" y="-398"/>
      <point x="1233" y="-118" type="curve" smooth="yes"/>
      <point x="1233" y="34"/>
      <point x="1163" y="145"/>
      <point x="1040" y="230" type="curve"/>
      <point x="1203" y="299"/>
      <point x="1296" y="419"/>
      <point x="1301" y="565" type="curve" smooth="yes"/>
      <point x="1309" y="795"/>
      <point x="1088" y="930"/>
      <point x="889" y="1021" type="curve"/>
      <point x="758" y="1079"/>
      <point x="571" y="1151"/>
      <point x="571" y="1277" type="curve" smooth="yes"/>
      <point x="571" y="1364"/>
      <point x="642" y="1435"/>
      <point x="749" y="1435" type="curve" smooth="yes"/>
      <point x="862" y="1435"/>
      <point x="932" y="1364"/>
      <point x="948" y="1287" type="curve"/>
      <point x="1213" y="1345" type="line"/>
      <point x="1171" y="1507"/>
      <point x="1041" y="1680"/>
      <point x="738" y="1680" type="curve" smooth="yes"/>
      <point x="422" y="1680"/>
      <point x="251" y="1490"/>
      <point x="251" y="1254" type="curve" smooth="yes"/>
      <point x="251" y="1106"/>
      <point x="319" y="995"/>
      <point x="449" y="913" type="curve"/>
      <point x="283" y="845"/>
      <point x="190" y="724"/>
      <point x="183" y="578" type="curve" smooth="yes"/>
      <point x="172" y="346"/>
      <point x="385" y="216"/>
      <point x="573" y="127" type="curve"/>
      <point x="760" y="43"/>
      <point x="910" y="-14"/>
      <point x="910" y="-134" type="curve" smooth="yes"/>
      <point x="910" y="-229"/>
      <point x="836" y="-305"/>
      <point x="702" y="-305" type="curve" smooth="yes"/>
      <point x="558" y="-305"/>
      <point x="461" y="-220"/>
      <point x="423" y="-114" type="curve"/>
      <point x="159" y="-174" type="line"/>
      <point x="201" y="-346"/>
      <point x="364" y="-550"/>
    </contour>
    <contour>
      <point x="847" y="342" type="curve"/>
      <point x="796" y="365"/>
      <point x="746" y="387"/>
      <point x="658" y="432" type="curve"/>
      <point x="532" y="492"/>
      <point x="471" y="543"/>
      <point x="471" y="624" type="curve" smooth="yes"/>
      <point x="471" y="717"/>
      <point x="559" y="773"/>
      <point x="641" y="795" type="curve"/>
      <point x="685" y="774"/>
      <point x="710" y="762"/>
      <point x="740" y="750" type="curve"/>
      <point x="942" y="662"/>
      <point x="1013" y="598"/>
      <point x="1013" y="516" type="curve" smooth="yes"/>
      <point x="1013" y="428"/>
      <point x="923" y="367"/>
    </contour>
  </outline>
</glyph>
<glyph name="copyright" format="2">
  <advance width="1998"/>
  <unicode hex="00A9"/>
  <outline>
    <component base="c" xScale="0.8105" yScale="0.8105" xOffset="500" yOffset="413"/>
    <contour>
      <point x="999" y="-31" type="curve" smooth="yes"/>
      <point x="1470" y="-31"/>
      <point x="1850" y="350"/>
      <point x="1850" y="823" type="curve" smooth="yes"/>
      <point x="1850" y="1297"/>
      <point x="1469" y="1680"/>
      <point x="998" y="1680" type="curve" smooth="yes"/>
      <point x="528" y="1680"/>
      <point x="149" y="1295"/>
      <point x="149" y="825" type="curve" smooth="yes"/>
      <point x="149" y="349"/>
      <point x="530" y="-31"/>
    </contour>
    <contour>
      <point x="999" y="161" type="curve" smooth="yes"/>
      <point x="635" y="161"/>
      <point x="342" y="455"/>
      <point x="342" y="824" type="curve" smooth="yes"/>
      <point x="342" y="1191"/>
      <point x="636" y="1490"/>
      <point x="998" y="1490" type="curve" smooth="yes"/>
      <point x="1362" y="1490"/>
      <point x="1658" y="1191"/>
      <point x="1658" y="823" type="curve" smooth="yes"/>
      <point x="1658" y="456"/>
      <point x="1364" y="161"/>
    </contour>
  </outline>
</glyph>
<glyph name="ordfeminine" format="2">
  <advance width="1078"/>
  <unicode hex="00AA"/>
  <outline>
    <contour>
      <point x="462" y="1008" type="curve" smooth="yes"/>
      <point x="559" y="1008"/>
      <point x="640" y="1053"/>
      <point x="688" y="1117" type="curve"/>
      <point x="688" y="1028" type="line"/>
      <point x="869" y="1028" type="line"/>
      <point x="869" y="1660" type="line"/>
      <point x="688" y="1660" type="line"/>
      <point x="688" y="1578" type="line"/>
      <point x="636" y="1643"/>
      <point x="557" y="1680"/>
      <point x="469" y="1680" type="curve" smooth="yes"/>
      <point x="280" y="1680"/>
      <point x="151" y="1532"/>
      <point x="151" y="1344" type="curve" smooth="yes"/>
      <point x="151" y="1151"/>
      <point x="287" y="1008"/>
    </contour>
    <contour>
      <point x="516" y="1161" type="curve" smooth="yes"/>
      <point x="412" y="1161"/>
      <point x="340" y="1239"/>
      <point x="340" y="1344" type="curve" smooth="yes"/>
      <point x="340" y="1451"/>
      <point x="417" y="1527"/>
      <point x="517" y="1527" type="curve" smooth="yes"/>
      <point x="616" y="1527"/>
      <point x="692" y="1451"/>
      <point x="692" y="1344" type="curve" smooth="yes"/>
      <point x="692" y="1239"/>
      <point x="619" y="1161"/>
    </contour>
  </outline>
</glyph>
<glyph name="guillemetleft" format="2">
  <advance width="1195"/>
  <unicode hex="00AB"/>
  <outline>
    <contour>
      <point x="623" y="175" type="line"/>
      <point x="324" y="557" type="line"/>
      <point x="623" y="940" type="line"/>
      <point x="474" y="1057" type="line"/>
      <point x="84" y="557" type="line"/>
      <point x="474" y="57" type="line"/>
    </contour>
    <contour>
      <point x="1088" y="175" type="line"/>
      <point x="789" y="557" type="line"/>
      <point x="1088" y="940" type="line"/>
      <point x="939" y="1057" type="line"/>
      <point x="549" y="557" type="line"/>
      <point x="939" y="57" type="line"/>
    </contour>
  </outline>
</glyph>
<glyph name="logicalnot" format="2">
  <advance width="1349"/>
  <unicode hex="00AC"/>
  <outline>
    <contour>
      <point x="1188" y="316" type="line"/>
      <point x="1188" y="956" type="line"/>
      <point x="161" y="956" type="line"/>
      <point x="161" y="703" type="line"/>
      <point x="936" y="703" type="line"/>
      <point x="936" y="316" type="line"/>
    </contour>
  </outline>
</glyph>
<glyph name="softhyphen" format="2">
  <advance width="1011"/>
  <unicode hex="00AD"/>
  <outline>
    <contour>
      <point x="828" y="453" type="line"/>
      <point x="828" y="704" type="line"/>
      <point x="184" y="704" type="line"/>
      <point x="184" y="453" type="line"/>
    </contour>
  </outline>
</glyph>
<glyph name="registered" format="2">
  <advance width="1281"/>
  <unicode hex="00AE"/>
  <outline>
    <component base="R" xScale="0.2795" yScale="0.2795" xOffset="424" yOffset="1002"/>
    <contour>
      <point x="640" y="776" type="curve" smooth="yes"/>
      <point x="891" y="776"/>
      <point x="1092" y="983"/>
      <point x="1092" y="1231" type="curve" smooth="yes"/>
      <point x="1092" y="1478"/>
      <point x="891" y="1685"/>
      <point x="640" y="1685" type="curve" smooth="yes"/>
      <point x="389" y="1685"/>
      <point x="188" y="1478"/>
      <point x="188" y="1231" type="curve" smooth="yes"/>
      <point x="188" y="983"/>
      <point x="389" y="776"/>
    </contour>
    <contour>
      <point x="640" y="875" type="curve" smooth="yes"/>
      <point x="443" y="875"/>
      <point x="287" y="1038"/>
      <point x="287" y="1231" type="curve" smooth="yes"/>
      <point x="287" y="1423"/>
      <point x="443" y="1586"/>
      <point x="640" y="1586" type="curve" smooth="yes"/>
      <point x="837" y="1586"/>
      <point x="993" y="1423"/>
      <point x="993" y="1231" type="curve" smooth="yes"/>
      <point x="993" y="1038"/>
      <point x="837" y="875"/>
    </contour>
  </outline>
</glyph>
<glyph name="degree" format="2">
  <advance width="922"/>
  <unicode hex="00B0"/>
  <outline>
    <contour>
      <point x="461" y="1338" type="curve" smooth="yes"/>
      <point x="590" y="1338"/>
      <point x="687" y="1423"/>
      <point x="687" y="1544" type="curve" smooth="yes"/>
      <point x="687" y="1666"/>
      <point x="588" y="1750"/>
      <point x="461" y="1750" type="curve" smooth="yes"/>
      <point x="334" y="1750"/>
      <point x="235" y="1666"/>
      <point x="235" y="1543" type="curve" smooth="yes"/>
      <point x="235" y="1424"/>
      <point x="331" y="1338"/>
    </contour>
    <contour>
      <point x="461" y="1440" type="curve" smooth="yes"/>
      <point x="402" y="1440"/>
      <point x="360" y="1483"/>
      <point x="360" y="1543" type="curve" smooth="yes"/>
      <point x="360" y="1605"/>
      <point x="404" y="1648"/>
      <point x="461" y="1648" type="curve" smooth="yes"/>
      <point x="516" y="1648"/>
      <point x="561" y="1606"/>
      <point x="561" y="1543" type="curve" smooth="yes"/>
      <point x="561" y="1483"/>
      <point x="519" y="1440"/>
    </contour>
  </outline>
</glyph>
<glyph name="plusminus" format="2">
  <advance width="1435"/>
  <unicode hex="00B1"/>
  <outline>
    <contour>
      <point x="844" y="394" type="line"/>
      <point x="844" y="743" type="line"/>
      <point x="1231" y="743" type="line"/>
      <point x="1231" y="994" type="line"/>
      <point x="844" y="994" type="line"/>
      <point x="844" y="1342" type="line"/>
      <point x="591" y="1342" type="line"/>
      <point x="591" y="994" type="line"/>
      <point x="204" y="994" type="line"/>
      <point x="204" y="743" type="line"/>
      <point x="591" y="743" type="line"/>
      <point x="591" y="394" type="line"/>
    </contour>
    <contour>
      <point x="1231" y="0" type="line"/>
      <point x="1231" y="252" type="line"/>
      <point x="204" y="252" type="line"/>
      <point x="204" y="0" type="line"/>
    </contour>
  </outline>
</glyph>
<glyph name="twosuperior" format="2">
  <advance width="830"/>
  <unicode hex="00B2"/>
  <outline>
    <contour>
      <point x="662" y="1026" type="line"/>
      <point x="662" y="1148" type="line"/>
      <point x="412" y="1148" type="line"/>
      <point x="584" y="1269"/>
      <point x="650" y="1361"/>
      <point x="650" y="1463" type="curve" smooth="yes"/>
      <point x="650" y="1590"/>
      <point x="551" y="1681"/>
      <point x="411" y="1681" type="curve" smooth="yes"/>
      <point x="292" y="1681"/>
      <point x="206" y="1613"/>
      <point x="167" y="1493" type="curve"/>
      <point x="284" y="1436" type="line"/>
      <point x="311" y="1520"/>
      <point x="354" y="1564"/>
      <point x="410" y="1564" type="curve" smooth="yes"/>
      <point x="462" y="1564"/>
      <point x="501" y="1526"/>
      <point x="501" y="1471" type="curve" smooth="yes"/>
      <point x="501" y="1383"/>
      <point x="398" y="1269"/>
      <point x="165" y="1101" type="curve"/>
      <point x="165" y="1026" type="line"/>
    </contour>
  </outline>
</glyph>
<glyph name="threesuperior" format="2">
  <advance width="811"/>
  <unicode hex="00B3"/>
  <outline>
    <contour>
      <point x="409" y="1026" type="curve" smooth="yes"/>
      <point x="542" y="1026"/>
      <point x="643" y="1092"/>
      <point x="643" y="1216" type="curve" smooth="yes"/>
      <point x="643" y="1287"/>
      <point x="609" y="1346"/>
      <point x="547" y="1377" type="curve"/>
      <point x="594" y="1415"/>
      <point x="620" y="1467"/>
      <point x="620" y="1522" type="curve" smooth="yes"/>
      <point x="620" y="1623"/>
      <point x="535" y="1680"/>
      <point x="412" y="1680" type="curve" smooth="yes"/>
      <point x="294" y="1680"/>
      <point x="225" y="1626"/>
      <point x="196" y="1539" type="curve"/>
      <point x="304" y="1488" type="line"/>
      <point x="311" y="1536"/>
      <point x="353" y="1571"/>
      <point x="401" y="1571" type="curve" smooth="yes"/>
      <point x="447" y="1571"/>
      <point x="483" y="1538"/>
      <point x="483" y="1497" type="curve" smooth="yes"/>
      <point x="483" y="1451"/>
      <point x="437" y="1412"/>
      <point x="389" y="1412" type="curve" smooth="yes"/>
      <point x="359" y="1412" type="line"/>
      <point x="359" y="1322" type="line"/>
      <point x="368" y="1326"/>
      <point x="377" y="1327"/>
      <point x="386" y="1327" type="curve" smooth="yes"/>
      <point x="447" y="1327"/>
      <point x="495" y="1285"/>
      <point x="495" y="1226" type="curve" smooth="yes"/>
      <point x="495" y="1177"/>
      <point x="460" y="1144"/>
      <point x="402" y="1144" type="curve" smooth="yes"/>
      <point x="338" y="1144"/>
      <point x="296" y="1184"/>
      <point x="292" y="1242" type="curve"/>
      <point x="165" y="1181" type="line"/>
      <point x="198" y="1085"/>
      <point x="282" y="1026"/>
    </contour>
  </outline>
</glyph>
<glyph name="micro" format="2">
  <advance width="1563"/>
  <unicode hex="00B5"/>
  <outline>
    <contour>
      <point x="580" y="-320" type="line"/>
      <point x="580" y="26" type="line"/>
      <point x="612" y="-12"/>
      <point x="662" y="-32"/>
      <point x="726" y="-32" type="curve" smooth="yes"/>
      <point x="842" y="-32"/>
      <point x="963" y="27"/>
      <point x="1030" y="116" type="curve"/>
      <point x="1030" y="0" type="line" name=".hr01"/>
      <point x="1322" y="0" type="line"/>
      <point x="1322" y="1024" type="line"/>
      <point x="1030" y="1024" type="line"/>
      <point x="1030" y="418" type="line" smooth="yes"/>
      <point x="1030" y="298"/>
      <point x="924" y="197" name=".hr02"/>
      <point x="796" y="197" type="curve" smooth="yes"/>
      <point x="661" y="197"/>
      <point x="581" y="286"/>
      <point x="581" y="435" type="curve" smooth="yes"/>
      <point x="581" y="1024" type="line"/>
      <point x="289" y="1024" type="line"/>
      <point x="289" y="424" type="line" smooth="yes"/>
      <point x="289" y="100"/>
      <point x="236" y="-67"/>
      <point x="236" y="-320" type="curve"/>
    </contour>
  </outline>
</glyph>
<glyph name="paragraph" format="2">
  <advance width="1567"/>
  <unicode hex="00B6"/>
  <outline>
    <contour>
      <point x="1011" y="0" type="line"/>
      <point x="1011" y="1476" type="line"/>
      <point x="1118" y="1476" type="line"/>
      <point x="1118" y="0" type="line"/>
      <point x="1292" y="0" type="line"/>
      <point x="1292" y="1650" type="line"/>
      <point x="644" y="1650" type="line" smooth="yes"/>
      <point x="322" y="1650"/>
      <point x="125" y="1434"/>
      <point x="125" y="1154" type="curve" smooth="yes"/>
      <point x="125" y="878"/>
      <point x="322" y="639"/>
      <point x="644" y="639" type="curve" smooth="yes"/>
      <point x="837" y="639" type="line"/>
      <point x="837" y="0" type="line"/>
    </contour>
  </outline>
</glyph>
<glyph name="onesuperior" format="2">
  <advance width="567"/>
  <unicode hex="00B9"/>
  <outline>
    <contour>
      <point x="399" y="1026" type="line"/>
      <point x="399" y="1650" type="line"/>
      <point x="165" y="1650" type="line"/>
      <point x="165" y="1516" type="line"/>
      <point x="265" y="1516" type="line"/>
      <point x="265" y="1026" type="line"/>
    </contour>
  </outline>
</glyph>
<glyph name="ordmasculine" format="2">
  <advance width="967"/>
  <unicode hex="00BA"/>
  <outline>
    <contour>
      <point x="483" y="1005" type="curve" smooth="yes"/>
      <point x="688" y="1005"/>
      <point x="847" y="1145"/>
      <point x="847" y="1343" type="curve" smooth="yes"/>
      <point x="847" y="1541"/>
      <point x="688" y="1680"/>
      <point x="483" y="1680" type="curve" smooth="yes"/>
      <point x="276" y="1680"/>
      <point x="118" y="1541"/>
      <point x="118" y="1343" type="curve" smooth="yes"/>
      <point x="118" y="1145"/>
      <point x="276" y="1005"/>
    </contour>
    <contour>
      <point x="482" y="1158" type="curve" smooth="yes"/>
      <point x="382" y="1158"/>
      <point x="308" y="1234"/>
      <point x="308" y="1343" type="curve" smooth="yes"/>
      <point x="308" y="1450"/>
      <point x="382" y="1527"/>
      <point x="483" y="1527" type="curve" smooth="yes"/>
      <point x="582" y="1527"/>
      <point x="657" y="1450"/>
      <point x="657" y="1343" type="curve" smooth="yes"/>
      <point x="657" y="1235"/>
      <point x="582" y="1158"/>
    </contour>
  </outline>
</glyph>
<glyph name="AE" format="2">
  <advance width="1913"/>
  <unicode hex="00C6"/>
  <outline>
    <contour>
      <point x="832" y="1235" type="line"/>
      <point x="832" y="661" type="line"/>
      <point x="610" y="661" type="line"/>
    </contour>
    <contour>
      <point x="689" y="1651" type="line"/>
      <point x="27" y="0" type="line"/>
      <point x="359" y="0" type="line"/>
      <point x="505" y="390" type="line"/>
      <point x="832" y="390" type="line"/>
      <point x="832" y="0" type="line"/>
      <point x="1742" y="0" type="line"/>
      <point x="1742" y="271" type="line" name=".hr01"/>
      <point x="1140" y="271" type="line"/>
      <point x="1140" y="692" type="line"/>
      <point x="1718" y="692" type="line"/>
      <point x="1718" y="963" type="line"/>
      <point x="1140" y="963" type="line"/>
      <point x="1140" y="1380" type="line"/>
      <point x="1742" y="1380" type="line"/>
      <point x="1742" y="1651" type="line"/>
    </contour>
  </outline>
</glyph>
<glyph name="Eth" format="2">
  <advance width="1658"/>
  <unicode hex="00D0"/>
  <outline>
    <component base="D" xOffset="43"/>
    <contour>
      <point x="109" y="949" type="line"/>
      <point x="109" y="699" type="line"/>
      <point x="867" y="699" type="line"/>
      <point x="867" y="949" type="line"/>
    </contour>
  </outline>
</glyph>
<glyph name="multiply" format="2">
  <advance width="1296"/>
  <unicode hex="00D7"/>
  <outline>
    <contour>
      <point x="648" y="652" type="line"/>
      <point x="971" y="328" type="line"/>
      <point x="1149" y="504" type="line"/>
      <point x="825" y="829" type="line"/>
      <point x="1149" y="1155" type="line"/>
      <point x="973" y="1330" type="line"/>
      <point x="648" y="1007" type="line"/>
      <point x="324" y="1330" type="line"/>
      <point x="147" y="1155" type="line"/>
      <point x="471" y="829" type="line"/>
      <point x="147" y="504" type="line"/>
      <point x="324" y="328" type="line"/>
    </contour>
  </outline>
</glyph>
<glyph name="Oslash" format="2">
  <advance width="1884"/>
  <unicode hex="00D8"/>
  <outline>
    <component base="O"/>
    <contour>
      <point x="1667" y="1550" type="line"/>
      <point x="1480" y="1693" type="line"/>
      <point x="229" y="116" type="line"/>
      <point x="415" y="-20" type="line"/>
    </contour>
  </outline>
</glyph>
<glyph name="Thorn" format="2">
  <advance width="1412"/>
  <unicode hex="00DE"/>
  <anchor x="706" y="0" name="bottom"/>
  <anchor x="706" y="1650" name="top"/>
  <outline>
    <contour>
      <point x="537" y="0" type="line"/>
      <point x="537" y="317" type="line"/>
      <point x="778" y="317" type="line" smooth="yes"/>
      <point x="1100" y="317"/>
      <point x="1330" y="497"/>
      <point x="1330" y="823" type="curve" smooth="yes"/>
      <point x="1330" y="1148"/>
      <point x="1100" y="1328"/>
      <point x="778" y="1328" type="curve" smooth="yes"/>
      <point x="537" y="1328" type="line"/>
      <point x="537" y="1650" type="line"/>
      <point x="229" y="1650" type="line"/>
      <point x="229" y="0" type="line"/>
    </contour>
    <contour>
      <point x="537" y="1082" type="line"/>
      <point x="684" y="1082" type="line" smooth="yes"/>
      <point x="861" y="1082"/>
      <point x="1008" y="1007"/>
      <point x="1008" y="823" type="curve" smooth="yes"/>
      <point x="1008" y="639"/>
      <point x="861" y="563"/>
      <point x="684" y="563" type="curve" smooth="yes"/>
      <point x="537" y="563" type="line"/>
    </contour>
  </outline>
</glyph>
<glyph name="germandbls" format="2">
  <advance width="1376"/>
  <unicode hex="00DF"/>
  <anchor x="690" y="0" name="bottom"/>
  <anchor x="690" y="1024" name="top"/>
  <outline>
    <contour>
      <point x="721" y="-32" type="line"/>
      <point x="1045" y="-27"/>
      <point x="1280" y="197"/>
      <point x="1280" y="498" type="curve" smooth="yes"/>
      <point x="1280" y="691"/>
      <point x="1179" y="842"/>
      <point x="1001" y="920" type="curve"/>
      <point x="1140" y="993"/>
      <point x="1216" y="1118"/>
      <point x="1216" y="1276" type="curve" smooth="yes"/>
      <point x="1216" y="1544"/>
      <point x="1004" y="1750"/>
      <point x="725" y="1750" type="curve" smooth="yes"/>
      <point x="443" y="1750"/>
      <point x="229" y="1537"/>
      <point x="229" y="1260" type="curve" smooth="yes"/>
      <point x="229" y="898" type="line"/>
      <point x="97" y="898" type="line"/>
      <point x="97" y="672" type="line"/>
      <point x="229" y="672" type="line"/>
      <point x="229" y="0" type="line" name=".hr01"/>
      <point x="520" y="0" type="line"/>
      <point x="520" y="1270" type="line" smooth="yes"/>
      <point x="520" y="1409"/>
      <point x="603" y="1503"/>
      <point x="721" y="1503" type="curve" smooth="yes"/>
      <point x="846" y="1503"/>
      <point x="941" y="1402"/>
      <point x="941" y="1269" type="curve" smooth="yes"/>
      <point x="941" y="1131"/>
      <point x="846" y="1026"/>
      <point x="721" y="1026" type="curve" smooth="yes"/>
      <point x="645" y="1026" type="line"/>
      <point x="645" y="802" type="line"/>
      <point x="721" y="802" type="line" smooth="yes"/>
      <point x="865" y="802"/>
      <point x="972" y="682"/>
      <point x="972" y="519" type="curve" smooth="yes"/>
      <point x="972" y="357"/>
      <point x="864" y="236" name=".hr02"/>
      <point x="721" y="236" type="curve" smooth="yes"/>
      <point x="645" y="236" type="line"/>
      <point x="645" y="-32" type="line"/>
    </contour>
  </outline>
</glyph>
<glyph name="ae" format="2">
  <advance width="1996"/>
  <unicode hex="00E6"/>
  <outline>
    <contour>
      <point x="490" y="-32" type="curve" smooth="yes"/>
      <point x="637" y="-32"/>
      <point x="768" y="27"/>
      <point x="942" y="150" type="curve"/>
      <point x="1052" y="31"/>
      <point x="1196" y="-32"/>
      <point x="1368" y="-32" type="curve" smooth="yes"/>
      <point x="1590" y="-32"/>
      <point x="1771" y="62"/>
      <point x="1871" y="230" type="curve"/>
      <point x="1661" y="337" type="line"/>
      <point x="1583" y="243"/>
      <point x="1501" y="201" name=".hr01"/>
      <point x="1391" y="201" type="curve" smooth="yes"/>
      <point x="1212" y="201"/>
      <point x="1095" y="310"/>
      <point x="1095" y="474" type="curve"/>
      <point x="1893" y="474" type="line"/>
      <point x="1896" y="503"/>
      <point x="1896" y="510"/>
      <point x="1896" y="525" type="curve" smooth="yes"/>
      <point x="1896" y="836"/>
      <point x="1671" y="1056"/>
      <point x="1355" y="1056" type="curve" smooth="yes"/>
      <point x="1201" y="1056"/>
      <point x="1063" y="992"/>
      <point x="965" y="889" type="curve"/>
      <point x="885" y="998"/>
      <point x="741" y="1056"/>
      <point x="561" y="1056" type="curve" smooth="yes"/>
      <point x="406" y="1056"/>
      <point x="271" y="1015"/>
      <point x="172" y="942" type="curve"/>
      <point x="280" y="755" type="line"/>
      <point x="349" y="797"/>
      <point x="457" y="824"/>
      <point x="541" y="824" type="curve" smooth="yes"/>
      <point x="694" y="824"/>
      <point x="802" y="737"/>
      <point x="802" y="604" type="curve" smooth="yes"/>
      <point x="802" y="515" type="line"/>
      <point x="724" y="573"/>
      <point x="607" y="609" name=".hr02"/>
      <point x="493" y="609" type="curve" smooth="yes"/>
      <point x="267" y="609"/>
      <point x="105" y="477"/>
      <point x="105" y="285" type="curve" smooth="yes"/>
      <point x="105" y="88"/>
      <point x="258" y="-32"/>
    </contour>
    <contour>
      <point x="603" y="147" type="curve" smooth="yes"/>
      <point x="487" y="147"/>
      <point x="393" y="211"/>
      <point x="393" y="302" type="curve" smooth="yes"/>
      <point x="393" y="390"/>
      <point x="483" y="449"/>
      <point x="600" y="449" type="curve" smooth="yes"/>
      <point x="717" y="449"/>
      <point x="813" y="387"/>
      <point x="813" y="298" type="curve" smooth="yes"/>
      <point x="813" y="209"/>
      <point x="719" y="147"/>
    </contour>
    <contour>
      <point x="1103" y="633" type="line"/>
      <point x="1113" y="764"/>
      <point x="1216" y="857" name=".hr03"/>
      <point x="1358" y="857" type="curve" smooth="yes"/>
      <point x="1497" y="857"/>
      <point x="1594" y="768"/>
      <point x="1610" y="633" type="curve"/>
    </contour>
  </outline>
</glyph>
<glyph name="eth" format="2">
  <advance width="1423"/>
  <unicode hex="00F0"/>
  <outline>
    <contour>
      <point x="701" y="-32" type="curve" smooth="yes"/>
      <point x="1046" y="-32"/>
      <point x="1300" y="195"/>
      <point x="1300" y="512" type="curve" smooth="yes"/>
      <point x="1300" y="991"/>
      <point x="1062" y="1308"/>
      <point x="791" y="1506" type="curve"/>
      <point x="904" y="1618" type="line"/>
      <point x="777" y="1751" type="line"/>
      <point x="629" y="1604" type="line"/>
      <point x="510" y="1672"/>
      <point x="380" y="1721"/>
      <point x="271" y="1751" type="curve"/>
      <point x="201" y="1505" type="line"/>
      <point x="266" y="1486"/>
      <point x="351" y="1453"/>
      <point x="433" y="1408" type="curve"/>
      <point x="304" y="1280" type="line"/>
      <point x="434" y="1149" type="line"/>
      <point x="597" y="1311" type="line"/>
      <point x="708" y="1230"/>
      <point x="800" y="1120"/>
      <point x="864" y="977" type="curve"/>
      <point x="826" y="1033"/>
      <point x="757" y="1067"/>
      <point x="680" y="1067" type="curve" smooth="yes"/>
      <point x="410" y="1067"/>
      <point x="97" y="876"/>
      <point x="97" y="512" type="curve" smooth="yes"/>
      <point x="97" y="195"/>
      <point x="344" y="-32"/>
    </contour>
    <contour>
      <point x="699" y="218" type="curve" smooth="yes"/>
      <point x="526" y="218"/>
      <point x="406" y="342"/>
      <point x="406" y="512" type="curve" smooth="yes"/>
      <point x="406" y="685"/>
      <point x="534" y="807"/>
      <point x="699" y="807" type="curve" smooth="yes"/>
      <point x="863" y="807"/>
      <point x="992" y="685"/>
      <point x="992" y="512" type="curve" smooth="yes"/>
      <point x="992" y="342"/>
      <point x="868" y="218"/>
    </contour>
  </outline>
</glyph>
<glyph name="divide" format="2">
  <advance width="1309"/>
  <unicode hex="00F7"/>
  <outline>
    <contour>
      <point x="132" y="703" type="line"/>
      <point x="1158" y="703" type="line"/>
      <point x="1158" y="955" type="line"/>
      <point x="132" y="955" type="line"/>
    </contour>
    <contour>
      <point x="645" y="230" type="curve" smooth="yes"/>
      <point x="720" y="230"/>
      <point x="781" y="291"/>
      <point x="781" y="370" type="curve" smooth="yes"/>
      <point x="781" y="449"/>
      <point x="720" y="510"/>
      <point x="645" y="510" type="curve" smooth="yes"/>
      <point x="570" y="510"/>
      <point x="509" y="449"/>
      <point x="509" y="370" type="curve" smooth="yes"/>
      <point x="509" y="291"/>
      <point x="570" y="230"/>
    </contour>
    <contour>
      <point x="645" y="1150" type="curve" smooth="yes"/>
      <point x="720" y="1150"/>
      <point x="781" y="1211"/>
      <point x="781" y="1290" type="curve" smooth="yes"/>
      <point x="781" y="1369"/>
      <point x="720" y="1430"/>
      <point x="645" y="1430" type="curve" smooth="yes"/>
      <point x="570" y="1430"/>
      <point x="509" y="1369"/>
      <point x="509" y="1290" type="curve" smooth="yes"/>
      <point x="509" y="1211"/>
      <point x="570" y="1150"/>
    </contour>
  </outline>
</glyph>
<glyph name="thorn" format="2">
  <advance width="1452"/>
  <unicode hex="00FE"/>
  <anchor x="733" y="0" name="bottom"/>
  <anchor x="733" y="1024" name="top"/>
  <outline>
    <contour>
      <point x="469" y="512" type="curve" smooth="yes"/>
      <point x="469" y="684"/>
      <point x="588" y="807"/>
      <point x="754" y="807" type="curve" smooth="yes"/>
      <point x="919" y="807"/>
      <point x="1040" y="684"/>
      <point x="1040" y="512" type="curve" smooth="yes"/>
      <point x="1040" y="340"/>
      <point x="919" y="217"/>
      <point x="754" y="217" type="curve" smooth="yes"/>
      <point x="588" y="217"/>
      <point x="469" y="340"/>
    </contour>
    <contour>
      <point x="184" y="1720" type="line"/>
      <point x="184" y="-520" type="line"/>
      <point x="476" y="-520" type="line"/>
      <point x="476" y="142" type="line"/>
      <point x="566" y="30"/>
      <point x="692" y="-32"/>
      <point x="839" y="-32" type="curve" smooth="yes"/>
      <point x="1135" y="-32"/>
      <point x="1347" y="205"/>
      <point x="1347" y="513" type="curve" smooth="yes"/>
      <point x="1347" y="821"/>
      <point x="1135" y="1056"/>
      <point x="839" y="1056" type="curve" smooth="yes"/>
      <point x="692" y="1056"/>
      <point x="566" y="994"/>
      <point x="476" y="882" type="curve"/>
      <point x="476" y="1720" type="line"/>
    </contour>
  </outline>
</glyph>
<glyph name="dcroat" format="2">
  <advance width="1546"/>
  <unicode hex="0111"/>
  <outline>
    <component base="d"/>
    <contour>
      <point x="680" y="1465" type="line"/>
      <point x="680" y="1276" type="line"/>
      <point x="1404" y="1276" type="line"/>
      <point x="1404" y="1465" type="line"/>
    </contour>
  </outline>
</glyph>
<glyph name="eogonek" format="2">
  <advance width="1297"/>
  <unicode hex="0119"/>
  <anchor x="690" y="0" name="bottom"/>
  <anchor x="716" y="0" name="ogonek"/>
  <anchor x="656" y="1038" name="top"/>
  <anchor x="716" y="0" name="_ogonek"/>
  <outline>
    <contour>
      <point x="675" y="-32" type="curve" smooth="yes"/>
      <point x="748" y="-32"/>
      <point x="816" y="-21"/>
      <point x="879" y="0" type="curve"/>
      <point x="818" y="0" type="line"/>
      <point x="705" y="-125"/>
      <point x="643" y="-242"/>
      <point x="643" y="-333" type="curve" smooth="yes"/>
      <point x="643" y="-457"/>
      <point x="750" y="-558"/>
      <point x="896" y="-558" type="curve" smooth="yes"/>
      <point x="1004" y="-558"/>
      <point x="1110" y="-503"/>
      <point x="1171" y="-414" type="curve"/>
      <point x="1050" y="-324" type="line"/>
      <point x="1014" y="-371"/>
      <point x="969" y="-396"/>
      <point x="920" y="-396" type="curve" smooth="yes"/>
      <point x="852" y="-396"/>
      <point x="816" y="-351"/>
      <point x="816" y="-291" type="curve" smooth="yes"/>
      <point x="816" y="-189"/>
      <point x="912" y="-20"/>
      <point x="1050" y="91" type="curve" smooth="yes"/>
      <point x="1099" y="130"/>
      <point x="1140" y="176"/>
      <point x="1172" y="230" type="curve"/>
      <point x="961" y="337" type="line"/>
      <point x="884" y="244"/>
      <point x="801" y="201"/>
      <point x="691" y="201" type="curve" smooth="yes"/>
      <point x="513" y="201"/>
      <point x="394" y="311"/>
      <point x="394" y="474" type="curve"/>
      <point x="1194" y="474" type="line"/>
      <point x="1196" y="497"/>
      <point x="1197" y="513"/>
      <point x="1197" y="532" type="curve" smooth="yes"/>
      <point x="1197" y="830"/>
      <point x="968" y="1056"/>
      <point x="663" y="1056" type="curve" smooth="yes"/>
      <point x="344" y="1056"/>
      <point x="94" y="821"/>
      <point x="94" y="510" type="curve" smooth="yes"/>
      <point x="94" y="203"/>
      <point x="341" y="-32"/>
    </contour>
    <contour>
      <point x="403" y="620" type="line"/>
      <point x="411" y="757"/>
      <point x="514" y="851"/>
      <point x="655" y="851" type="curve" smooth="yes"/>
      <point x="794" y="851"/>
      <point x="894" y="760"/>
      <point x="911" y="620" type="curve"/>
    </contour>
  </outline>
</glyph>
<glyph name="Hbar" format="2">
  <advance width="1716"/>
  <unicode hex="0126"/>
  <outline>
    <contour>
      <point x="537" y="0" type="line"/>
      <point x="537" y="646" type="line"/>
      <point x="1179" y="646" type="line"/>
      <point x="1179" y="0" type="line"/>
      <point x="1487" y="0" type="line"/>
      <point x="1487" y="1650" type="line"/>
      <point x="1179" y="1650" type="line"/>
      <point x="1179" y="856" type="line"/>
      <point x="537" y="856" type="line"/>
      <point x="537" y="1650" type="line"/>
      <point x="229" y="1650" type="line"/>
      <point x="229" y="0" type="line"/>
    </contour>
    <contour>
      <point x="1618" y="1066" type="line"/>
      <point x="1618" y="1276" type="line"/>
      <point x="98" y="1276" type="line"/>
      <point x="98" y="1066" type="line"/>
    </contour>
  </outline>
</glyph>
<glyph name="hbar" format="2">
  <advance width="1381"/>
  <unicode hex="0127"/>
  <outline>
    <component base="h"/>
    <contour>
      <point x="699" y="1260" type="line"/>
      <point x="699" y="1439" type="line"/>
      <point x="44" y="1439" type="line"/>
      <point x="44" y="1260" type="line"/>
    </contour>
  </outline>
</glyph>
<glyph name="idotless" format="2">
  <advance width="660"/>
  <unicode hex="0131"/>
  <anchor x="330" y="0" name="bottom"/>
  <anchor x="475" y="0" name="ogonek"/>
  <anchor x="330" y="1024" name="top"/>
  <outline>
    <contour>
      <point x="476" y="0" type="line"/>
      <point x="476" y="1024" type="line"/>
      <point x="184" y="1024" type="line"/>
      <point x="184" y="0" type="line"/>
    </contour>
  </outline>
</glyph>
<glyph name="Lslash" format="2">
  <advance width="1227"/>
  <unicode hex="0141"/>
  <outline>
    <component base="L" xOffset="41"/>
    <contour>
      <point x="789" y="1053" type="line"/>
      <point x="789" y="1304" type="line"/>
      <point x="115" y="774" type="line"/>
      <point x="115" y="523" type="line"/>
    </contour>
  </outline>
</glyph>
<glyph name="lslash" format="2">
  <advance width="981"/>
  <unicode hex="0142"/>
  <outline>
    <component base="l" xOffset="161"/>
    <contour>
      <point x="797" y="1030" type="line"/>
      <point x="797" y="1285" type="line"/>
      <point x="184" y="804" type="line"/>
      <point x="184" y="550" type="line"/>
    </contour>
  </outline>
</glyph>
<glyph name="Eng" format="2">
  <advance width="1783"/>
  <unicode hex="014A"/>
  <outline>
    <contour>
      <point x="229" y="1650" type="line"/>
      <point x="229" y="0" type="line"/>
      <point x="537" y="0" type="line"/>
      <point x="537" y="1135" type="line"/>
      <point x="1264" y="0" type="line"/>
      <point x="1264" y="-11" type="line" smooth="yes"/>
      <point x="1264" y="-148"/>
      <point x="1179" y="-256"/>
      <point x="1030" y="-256" type="curve" smooth="yes"/>
      <point x="957" y="-256"/>
      <point x="876" y="-227"/>
      <point x="803" y="-152" type="curve"/>
      <point x="633" y="-341" type="line"/>
      <point x="761" y="-488"/>
      <point x="896" y="-551"/>
      <point x="1079" y="-551" type="curve" smooth="yes"/>
      <point x="1387" y="-551"/>
      <point x="1572" y="-370"/>
      <point x="1572" y="-55" type="curve" smooth="yes"/>
      <point x="1572" y="1650" type="line"/>
      <point x="1264" y="1650" type="line"/>
      <point x="1264" y="514" type="line"/>
      <point x="537" y="1650" type="line"/>
    </contour>
  </outline>
</glyph>
<glyph name="eng" format="2">
  <advance width="1373"/>
  <unicode hex="014B"/>
  <outline>
    <contour>
      <point x="184" y="1024" type="line"/>
      <point x="184" y="0" type="line"/>
      <point x="476" y="0" type="line"/>
      <point x="476" y="572" type="line" smooth="yes"/>
      <point x="476" y="732"/>
      <point x="563" y="827" name=".hr01"/>
      <point x="704" y="827" type="curve" smooth="yes"/>
      <point x="841" y="827"/>
      <point x="925" y="738"/>
      <point x="925" y="586" type="curve" smooth="yes"/>
      <point x="925" y="-128" type="line" smooth="yes"/>
      <point x="925" y="-223"/>
      <point x="885" y="-288"/>
      <point x="804" y="-288" type="curve" smooth="yes"/>
      <point x="773" y="-288"/>
      <point x="739" y="-278"/>
      <point x="711" y="-246" type="curve"/>
      <point x="570" y="-435" type="line"/>
      <point x="636" y="-507"/>
      <point x="746" y="-550"/>
      <point x="866" y="-550" type="curve" smooth="yes"/>
      <point x="1085" y="-550"/>
      <point x="1217" y="-409"/>
      <point x="1217" y="-178" type="curve" smooth="yes"/>
      <point x="1217" y="647" type="line" smooth="yes"/>
      <point x="1217" y="893"/>
      <point x="1054" y="1056"/>
      <point x="819" y="1056" type="curve" smooth="yes"/>
      <point x="675" y="1056"/>
      <point x="552" y="996"/>
      <point x="476" y="902" type="curve"/>
      <point x="476" y="1024" type="line" name=".hr02"/>
    </contour>
  </outline>
</glyph>
<glyph name="OE" format="2">
  <advance width="2102"/>
  <unicode hex="0152"/>
  <outline>
    <contour>
      <point x="1931" y="0" type="line"/>
      <point x="1931" y="271" type="line"/>
      <point x="1329" y="271" type="line"/>
      <point x="1329" y="692" type="line"/>
      <point x="1907" y="692" type="line"/>
      <point x="1907" y="963" type="line"/>
      <point x="1329" y="963" type="line"/>
      <point x="1329" y="1380" type="line"/>
      <point x="1931" y="1380" type="line"/>
      <point x="1931" y="1650" type="line"/>
      <point x="1078" y="1650" type="line" smooth="yes"/>
      <point x="458" y="1650"/>
      <point x="110" y="1305"/>
      <point x="110" y="825" type="curve" smooth="yes"/>
      <point x="110" y="345"/>
      <point x="458" y="0"/>
      <point x="1078" y="0" type="curve" smooth="yes"/>
    </contour>
    <contour>
      <point x="1021" y="276" type="line"/>
      <point x="670" y="276"/>
      <point x="442" y="495"/>
      <point x="442" y="825" type="curve" smooth="yes"/>
      <point x="442" y="1156"/>
      <point x="676" y="1375"/>
      <point x="1021" y="1375" type="curve"/>
    </contour>
  </outline>
</glyph>
<glyph name="oe" format="2">
  <advance width="2175"/>
  <unicode hex="0153"/>
  <anchor x="1086" y="0" name="bottom"/>
  <anchor x="1086" y="1024" name="top"/>
  <outline>
    <contour>
      <point x="680" y="-32" type="curve" smooth="yes"/>
      <point x="871" y="-32"/>
      <point x="1026" y="47"/>
      <point x="1109" y="182" type="curve"/>
      <point x="1211" y="44"/>
      <point x="1359" y="-32"/>
      <point x="1546" y="-32" type="curve" smooth="yes"/>
      <point x="1768" y="-32"/>
      <point x="1950" y="63"/>
      <point x="2050" y="230" type="curve"/>
      <point x="1840" y="337" type="line"/>
      <point x="1762" y="243"/>
      <point x="1681" y="201" name=".hr01"/>
      <point x="1570" y="201" type="curve" smooth="yes"/>
      <point x="1391" y="201"/>
      <point x="1274" y="310"/>
      <point x="1274" y="474" type="curve"/>
      <point x="2073" y="474" type="line"/>
      <point x="2075" y="500"/>
      <point x="2075" y="513"/>
      <point x="2075" y="526" type="curve" smooth="yes"/>
      <point x="2075" y="834"/>
      <point x="1849" y="1056"/>
      <point x="1536" y="1056" type="curve" smooth="yes"/>
      <point x="1359" y="1056"/>
      <point x="1209" y="976"/>
      <point x="1110" y="841" type="curve"/>
      <point x="1024" y="978"/>
      <point x="869" y="1056"/>
      <point x="679" y="1056" type="curve" smooth="yes"/>
      <point x="341" y="1056"/>
      <point x="95" y="831"/>
      <point x="95" y="512" type="curve" smooth="yes"/>
      <point x="95" y="192"/>
      <point x="341" y="-32"/>
    </contour>
    <contour>
      <point x="693" y="217" type="curve" smooth="yes"/>
      <point x="524" y="217"/>
      <point x="399" y="342"/>
      <point x="399" y="512" type="curve" smooth="yes"/>
      <point x="399" y="682"/>
      <point x="524" y="807"/>
      <point x="693" y="807" type="curve" smooth="yes"/>
      <point x="862" y="807"/>
      <point x="987" y="682"/>
      <point x="987" y="512" type="curve" smooth="yes"/>
      <point x="987" y="342"/>
      <point x="862" y="217"/>
    </contour>
    <contour>
      <point x="1282" y="633" type="line"/>
      <point x="1292" y="764"/>
      <point x="1395" y="857"/>
      <point x="1538" y="857" type="curve" smooth="yes"/>
      <point x="1675" y="857" name=".hr02"/>
      <point x="1773" y="768"/>
      <point x="1790" y="633" type="curve"/>
    </contour>
  </outline>
</glyph>
<glyph name="Tbar" format="2">
  <advance width="1250"/>
  <unicode hex="0166"/>
  <outline>
    <component base="T"/>
    <contour>
      <point x="1006" y="847" type="line"/>
      <point x="1006" y="1057" type="line"/>
      <point x="244" y="1057" type="line"/>
      <point x="244" y="847" type="line"/>
    </contour>
  </outline>
</glyph>
<glyph name="tbar" format="2">
  <advance width="851"/>
  <unicode hex="0167"/>
  <outline>
    <contour>
      <point x="528" y="-32" type="curve" smooth="yes"/>
      <point x="616" y="-32"/>
      <point x="715" y="-5"/>
      <point x="781" y="38" type="curve"/>
      <point x="673" y="250" type="line"/>
      <point x="651" y="236"/>
      <point x="624" y="229"/>
      <point x="598" y="229" type="curve" smooth="yes"/>
      <point x="537" y="229"/>
      <point x="505" y="272"/>
      <point x="505" y="352" type="curve" smooth="yes"/>
      <point x="505" y="668" type="line"/>
      <point x="733" y="668" type="line"/>
      <point x="733" y="824" type="line"/>
      <point x="505" y="824" type="line"/>
      <point x="505" y="934" type="line"/>
      <point x="733" y="934" type="line"/>
      <point x="733" y="1090" type="line"/>
      <point x="505" y="1090" type="line"/>
      <point x="505" y="1407" type="line"/>
      <point x="213" y="1407" type="line"/>
      <point x="213" y="1090" type="line"/>
      <point x="79" y="1090" type="line"/>
      <point x="79" y="934" type="line"/>
      <point x="213" y="934" type="line"/>
      <point x="213" y="824" type="line"/>
      <point x="79" y="824" type="line"/>
      <point x="79" y="668" type="line"/>
      <point x="213" y="668" type="line"/>
      <point x="213" y="331" type="line" smooth="yes"/>
      <point x="213" y="103"/>
      <point x="329" y="-32"/>
    </contour>
  </outline>
</glyph>
<glyph name="Uogonek" format="2">
  <advance width="1648"/>
  <unicode hex="0172"/>
  <outline>
    <contour>
      <point x="823" y="-32" type="curve" smooth="yes"/>
      <point x="916" y="-32"/>
      <point x="999" y="-21"/>
      <point x="1072" y="0" type="curve"/>
      <point x="1021" y="0" type="line"/>
      <point x="908" y="-125"/>
      <point x="847" y="-242"/>
      <point x="847" y="-333" type="curve" smooth="yes"/>
      <point x="847" y="-457"/>
      <point x="953" y="-558"/>
      <point x="1098" y="-558" type="curve" smooth="yes"/>
      <point x="1205" y="-558"/>
      <point x="1311" y="-503"/>
      <point x="1372" y="-414" type="curve"/>
      <point x="1252" y="-324" type="line"/>
      <point x="1216" y="-371"/>
      <point x="1172" y="-396"/>
      <point x="1123" y="-396" type="curve" smooth="yes"/>
      <point x="1055" y="-396"/>
      <point x="1020" y="-352"/>
      <point x="1020" y="-291" type="curve" smooth="yes"/>
      <point x="1020" y="-189"/>
      <point x="1115" y="-20"/>
      <point x="1252" y="90" type="curve" smooth="yes"/>
      <point x="1381" y="193"/>
      <point x="1447" y="358"/>
      <point x="1447" y="586" type="curve" smooth="yes"/>
      <point x="1447" y="1650" type="line"/>
      <point x="1139" y="1650" type="line"/>
      <point x="1139" y="673" type="line" smooth="yes"/>
      <point x="1139" y="389"/>
      <point x="1045" y="271"/>
      <point x="823" y="271" type="curve" smooth="yes"/>
      <point x="602" y="271"/>
      <point x="509" y="389"/>
      <point x="509" y="673" type="curve" smooth="yes"/>
      <point x="509" y="1650" type="line"/>
      <point x="201" y="1650" type="line"/>
      <point x="201" y="586" type="line" smooth="yes"/>
      <point x="201" y="177"/>
      <point x="412" y="-32"/>
    </contour>
  </outline>
</glyph>
<glyph name="uogonek" format="2">
  <advance width="1357"/>
  <unicode hex="0173"/>
  <outline>
    <contour>
      <point x="678" y="-32" type="curve" smooth="yes"/>
      <point x="768" y="-32"/>
      <point x="845" y="-21"/>
      <point x="911" y="0" type="curve"/>
      <point x="837" y="0" type="line"/>
      <point x="725" y="-125"/>
      <point x="663" y="-235"/>
      <point x="663" y="-331" type="curve" smooth="yes"/>
      <point x="663" y="-457"/>
      <point x="770" y="-558"/>
      <point x="915" y="-558" type="curve" smooth="yes"/>
      <point x="1023" y="-558"/>
      <point x="1129" y="-503"/>
      <point x="1190" y="-414" type="curve"/>
      <point x="1069" y="-324" type="line"/>
      <point x="1033" y="-371"/>
      <point x="989" y="-396"/>
      <point x="940" y="-396" type="curve" smooth="yes"/>
      <point x="871" y="-396"/>
      <point x="836" y="-352"/>
      <point x="836" y="-288" type="curve" smooth="yes"/>
      <point x="836" y="-187"/>
      <point x="924" y="-32"/>
      <point x="1050" y="75" type="curve" smooth="yes"/>
      <point x="1150" y="160"/>
      <point x="1198" y="292"/>
      <point x="1198" y="477" type="curve" smooth="yes"/>
      <point x="1198" y="1024" type="line"/>
      <point x="906" y="1024" type="line"/>
      <point x="906" y="545" type="line" smooth="yes"/>
      <point x="906" y="308"/>
      <point x="842" y="206"/>
      <point x="679" y="206" type="curve" smooth="yes"/>
      <point x="516" y="206"/>
      <point x="452" y="308"/>
      <point x="452" y="545" type="curve" smooth="yes"/>
      <point x="452" y="1024" type="line"/>
      <point x="160" y="1024" type="line"/>
      <point x="160" y="477" type="line" smooth="yes"/>
      <point x="160" y="136"/>
      <point x="324" y="-32"/>
    </contour>
  </outline>
</glyph>
<glyph name="florin" format="2">
  <advance width="934"/>
  <unicode hex="0192"/>
  <outline>
    <contour>
      <point x="81" y="-551" type="curve" smooth="yes"/>
      <point x="309" y="-551"/>
      <point x="465" y="-374"/>
      <point x="492" y="-89" type="curve" smooth="yes"/>
      <point x="577" y="803" type="line"/>
      <point x="821" y="803" type="line"/>
      <point x="840" y="1025" type="line"/>
      <point x="597" y="1025" type="line"/>
      <point x="623" y="1283" type="line" smooth="yes"/>
      <point x="638" y="1434"/>
      <point x="680" y="1492"/>
      <point x="770" y="1492" type="curve" smooth="yes"/>
      <point x="806" y="1492"/>
      <point x="846" y="1482"/>
      <point x="872" y="1464" type="curve"/>
      <point x="995" y="1667" type="line"/>
      <point x="933" y="1719"/>
      <point x="839" y="1750"/>
      <point x="743" y="1750" type="curve" smooth="yes"/>
      <point x="516" y="1750"/>
      <point x="358" y="1573"/>
      <point x="331" y="1289" type="curve" smooth="yes"/>
      <point x="305" y="1025" type="line"/>
      <point x="171" y="1025" type="line"/>
      <point x="151" y="803" type="line"/>
      <point x="285" y="803" type="line"/>
      <point x="201" y="-84" type="line" smooth="yes"/>
      <point x="187" y="-235"/>
      <point x="143" y="-293"/>
      <point x="54" y="-293" type="curve" smooth="yes"/>
      <point x="17" y="-293"/>
      <point x="-23" y="-283"/>
      <point x="-49" y="-265" type="curve"/>
      <point x="-171" y="-468" type="line"/>
      <point x="-110" y="-520"/>
      <point x="-15" y="-551"/>
    </contour>
  </outline>
</glyph>
<glyph name="gravecomb" format="2">
  <advance width="498"/>
  <unicode hex="0300"/>
  <anchor x="333" y="1024" name="_top"/>
  <anchor x="248" y="1671" name="top"/>
  <outline>
    <contour>
      <point x="518" y="1303" type="line"/>
      <point x="110" y="1612" type="line"/>
      <point x="-20" y="1405" type="line"/>
      <point x="427" y="1170" type="line"/>
    </contour>
  </outline>
</glyph>
<glyph name="acutecomb" format="2">
  <advance width="466"/>
  <unicode hex="0301"/>
  <anchor x="165" y="1024" name="_top"/>
  <anchor x="187" y="1692" name="top"/>
  <outline>
    <contour>
      <point x="-53" y="1303" type="line"/>
      <point x="38" y="1170" type="line"/>
      <point x="478" y="1400" type="line"/>
      <point x="355" y="1612" type="line"/>
    </contour>
  </outline>
</glyph>
<glyph name="circumflexcomb" format="2">
  <advance width="838"/>
  <unicode hex="0302"/>
  <anchor x="419" y="1024" name="_top"/>
  <anchor x="419" y="1680" name="top"/>
  <outline>
    <contour>
      <point x="419" y="1444" type="line"/>
      <point x="725" y="1220" type="line"/>
      <point x="838" y="1373" type="line"/>
      <point x="419" y="1680" type="line"/>
      <point x="0" y="1373" type="line"/>
      <point x="113" y="1220" type="line"/>
    </contour>
  </outline>
</glyph>
<glyph name="tildecomb" format="2">
  <advance width="1064"/>
  <unicode hex="0303"/>
  <anchor x="532" y="1024" name="_top"/>
  <anchor x="532" y="1564" name="top"/>
  <outline>
    <contour>
      <point x="0" y="1324" type="curve"/>
      <point x="154" y="1223" type="line"/>
      <point x="195" y="1298"/>
      <point x="253" y="1344"/>
      <point x="333" y="1344" type="curve" smooth="yes"/>
      <point x="483" y="1344"/>
      <point x="558" y="1182"/>
      <point x="742" y="1182" type="curve" smooth="yes"/>
      <point x="870" y="1182"/>
      <point x="982" y="1260"/>
      <point x="1064" y="1422" type="curve"/>
      <point x="911" y="1523" type="line"/>
      <point x="867" y="1443"/>
      <point x="806" y="1402"/>
      <point x="731" y="1402" type="curve" smooth="yes"/>
      <point x="581" y="1402"/>
      <point x="507" y="1564"/>
      <point x="322" y="1564" type="curve" smooth="yes"/>
      <point x="189" y="1564"/>
      <point x="79" y="1480"/>
    </contour>
  </outline>
</glyph>
<glyph name="macroncomb" format="2">
  <advance width="816"/>
  <unicode hex="0304"/>
  <anchor x="408" y="1024" name="_top"/>
  <anchor x="408" y="1488" name="top"/>
  <outline>
    <contour>
      <point x="816" y="1289" type="line"/>
      <point x="816" y="1488" type="line"/>
      <point x="0" y="1488" type="line"/>
      <point x="0" y="1289" type="line"/>
    </contour>
  </outline>
</glyph>
<glyph name="brevecomb" format="2">
  <advance width="892"/>
  <unicode hex="0306"/>
  <anchor x="446" y="1024" name="_top"/>
  <anchor x="446" y="1680" name="top"/>
  <outline>
    <contour>
      <point x="446" y="1278" type="curve" smooth="yes"/>
      <point x="690" y="1278"/>
      <point x="864" y="1421"/>
      <point x="892" y="1629" type="curve"/>
      <point x="683" y="1680" type="line"/>
      <point x="668" y="1567"/>
      <point x="593" y="1462"/>
      <point x="446" y="1462" type="curve" smooth="yes"/>
      <point x="299" y="1462"/>
      <point x="224" y="1567"/>
      <point x="209" y="1680" type="curve"/>
      <point x="0" y="1629" type="line"/>
      <point x="28" y="1421"/>
      <point x="202" y="1278"/>
    </contour>
  </outline>
</glyph>
<glyph name="dotaccentcomb" format="2">
  <advance width="348"/>
  <unicode hex="0307"/>
  <anchor x="174" y="1024" name="_top"/>
  <anchor x="174" y="1654" name="top"/>
  <outline>
    <contour>
      <point x="174" y="1306" type="curve" smooth="yes"/>
      <point x="270" y="1306"/>
      <point x="348" y="1384"/>
      <point x="348" y="1480" type="curve" smooth="yes"/>
      <point x="348" y="1576"/>
      <point x="270" y="1654"/>
      <point x="174" y="1654" type="curve" smooth="yes"/>
      <point x="78" y="1654"/>
      <point x="0" y="1576"/>
      <point x="0" y="1480" type="curve" smooth="yes"/>
      <point x="0" y="1384"/>
      <point x="78" y="1306"/>
    </contour>
  </outline>
</glyph>
<glyph name="dieresiscomb" format="2">
  <advance width="783"/>
  <unicode hex="0308"/>
  <anchor x="391" y="1023" name="_top"/>
  <anchor x="391" y="1553" name="top"/>
  <outline>
    <contour>
      <point x="628" y="1242" type="curve" smooth="yes"/>
      <point x="714" y="1242"/>
      <point x="783" y="1312"/>
      <point x="783" y="1398" type="curve" smooth="yes"/>
      <point x="783" y="1484"/>
      <point x="714" y="1554"/>
      <point x="628" y="1554" type="curve" smooth="yes"/>
      <point x="541" y="1554"/>
      <point x="472" y="1484"/>
      <point x="472" y="1398" type="curve" smooth="yes"/>
      <point x="472" y="1312"/>
      <point x="541" y="1242"/>
    </contour>
    <contour>
      <point x="156" y="1242" type="curve" smooth="yes"/>
      <point x="242" y="1242"/>
      <point x="311" y="1312"/>
      <point x="311" y="1398" type="curve" smooth="yes"/>
      <point x="311" y="1484"/>
      <point x="242" y="1554"/>
      <point x="156" y="1554" type="curve" smooth="yes"/>
      <point x="69" y="1554"/>
      <point x="0" y="1484"/>
      <point x="0" y="1398" type="curve" smooth="yes"/>
      <point x="0" y="1312"/>
      <point x="69" y="1242"/>
    </contour>
  </outline>
</glyph>
<glyph name="ringcomb" format="2">
  <advance width="590"/>
  <unicode hex="030A"/>
  <anchor x="295" y="1024" name="_top"/>
  <anchor x="295" y="1725" name="top"/>
  <outline>
    <contour>
      <point x="295" y="1205" type="curve" smooth="yes"/>
      <point x="460" y="1205"/>
      <point x="590" y="1312"/>
      <point x="590" y="1465" type="curve" smooth="yes"/>
      <point x="590" y="1618"/>
      <point x="460" y="1725"/>
      <point x="295" y="1725" type="curve" smooth="yes"/>
      <point x="130" y="1725"/>
      <point x="0" y="1618"/>
      <point x="0" y="1465" type="curve" smooth="yes"/>
      <point x="0" y="1312"/>
      <point x="130" y="1205"/>
    </contour>
    <contour>
      <point x="295" y="1342" type="curve" smooth="yes"/>
      <point x="226" y="1342"/>
      <point x="168" y="1396"/>
      <point x="168" y="1465" type="curve" smooth="yes"/>
      <point x="168" y="1534"/>
      <point x="226" y="1588"/>
      <point x="295" y="1588" type="curve" smooth="yes"/>
      <point x="364" y="1588"/>
      <point x="422" y="1534"/>
      <point x="422" y="1465" type="curve" smooth="yes"/>
      <point x="422" y="1396"/>
      <point x="364" y="1342"/>
    </contour>
  </outline>
</glyph>
<glyph name="hungarumlautcomb" format="2">
  <advance width="989"/>
  <unicode hex="030B"/>
  <anchor x="412" y="1024" name="_top"/>
  <anchor x="412" y="1680" name="top"/>
  <outline>
    <contour>
      <point x="989" y="1485" type="line"/>
      <point x="810" y="1680" type="line"/>
      <point x="490" y="1367" type="line"/>
      <point x="601" y="1237" type="line"/>
    </contour>
    <contour>
      <point x="499" y="1485" type="line"/>
      <point x="320" y="1680" type="line"/>
      <point x="0" y="1367" type="line"/>
      <point x="112" y="1237" type="line"/>
    </contour>
  </outline>
</glyph>
<glyph name="caroncomb" format="2">
  <advance width="838"/>
  <unicode hex="030C"/>
  <anchor x="419" y="1024" name="_top"/>
  <anchor x="419" y="1680" name="top"/>
  <outline>
    <contour>
      <point x="838" y="1480" type="line"/>
      <point x="725" y="1632" type="line"/>
      <point x="419" y="1408" type="line"/>
      <point x="113" y="1632" type="line"/>
      <point x="0" y="1480" type="line"/>
      <point x="419" y="1172" type="line"/>
    </contour>
  </outline>
</glyph>
<glyph name="commaaccentcomb" format="2">
  <advance width="753"/>
  <unicode hex="0326"/>
  <anchor x="382" y="0" name="_bottom"/>
  <anchor x="382" y="-681" name="bottom"/>
  <outline>
    <contour>
      <point x="330" y="-512" type="line"/>
      <point x="426" y="-434"/>
      <point x="487" y="-324"/>
      <point x="487" y="-232" type="curve" smooth="yes"/>
      <point x="487" y="-154"/>
      <point x="444" y="-113"/>
      <point x="382" y="-113" type="curve" smooth="yes"/>
      <point x="319" y="-113"/>
      <point x="276" y="-156"/>
      <point x="276" y="-215" type="curve" smooth="yes"/>
      <point x="276" y="-267"/>
      <point x="309" y="-305"/>
      <point x="359" y="-315" type="curve"/>
      <point x="353" y="-372"/>
      <point x="319" y="-443"/>
      <point x="288" y="-476" type="curve"/>
    </contour>
  </outline>
</glyph>
<glyph name="cedillacomb" format="2">
  <advance width="554"/>
  <unicode hex="0327"/>
  <anchor x="350" y="15" name="_cedilla"/>
  <anchor x="264" y="-575" name="bottom"/>
  <outline>
    <contour>
      <point x="223" y="15" type="line"/>
      <point x="145" y="-228" type="line"/>
      <point x="161" y="-241" type="line"/>
      <point x="181" y="-228"/>
      <point x="227" y="-219"/>
      <point x="265" y="-219" type="curve" smooth="yes"/>
      <point x="341" y="-219"/>
      <point x="393" y="-255"/>
      <point x="393" y="-311" type="curve" smooth="yes"/>
      <point x="393" y="-364"/>
      <point x="349" y="-400"/>
      <point x="282" y="-400" type="curve" smooth="yes"/>
      <point x="218" y="-400"/>
      <point x="158" y="-367"/>
      <point x="115" y="-307" type="curve"/>
      <point x="0" y="-392" type="line"/>
      <point x="78" y="-492"/>
      <point x="175" y="-544"/>
      <point x="288" y="-544" type="curve" smooth="yes"/>
      <point x="443" y="-544"/>
      <point x="554" y="-449"/>
      <point x="554" y="-316" type="curve" smooth="yes"/>
      <point x="554" y="-186"/>
      <point x="435" y="-124"/>
      <point x="320" y="-124" type="curve" smooth="yes"/>
      <point x="302" y="-124"/>
      <point x="286" y="-125"/>
      <point x="271" y="-129" type="curve"/>
      <point x="296" y="-147" type="line"/>
      <point x="350" y="15" type="line"/>
    </contour>
  </outline>
</glyph>
<glyph name="ogonekcomb" format="2">
  <advance width="526"/>
  <unicode hex="0328"/>
  <anchor x="312" y="15" name="_ogonek"/>
  <outline>
    <contour>
      <point x="251" y="-543" type="curve" smooth="yes"/>
      <point x="359" y="-543"/>
      <point x="465" y="-488"/>
      <point x="526" y="-399" type="curve"/>
      <point x="405" y="-309" type="line"/>
      <point x="369" y="-356"/>
      <point x="325" y="-381"/>
      <point x="277" y="-381" type="curve" smooth="yes"/>
      <point x="208" y="-381"/>
      <point x="173" y="-336"/>
      <point x="173" y="-276" type="curve" smooth="yes"/>
      <point x="173" y="-199"/>
      <point x="227" y="-85"/>
      <point x="312" y="15" type="curve"/>
      <point x="174" y="15" type="line"/>
      <point x="62" y="-110"/>
      <point x="0" y="-227"/>
      <point x="0" y="-318" type="curve" smooth="yes"/>
      <point x="0" y="-442"/>
      <point x="107" y="-543"/>
    </contour>
  </outline>
</glyph>
<glyph name="Delta" format="2">
  <advance width="1425"/>
  <unicode hex="0394"/>
  <outline>
    <contour>
      <point x="673" y="1650" type="line"/>
      <point x="27" y="0" type="line"/>
      <point x="1398" y="0" type="line"/>
      <point x="752" y="1650" type="line"/>
    </contour>
    <contour>
      <point x="650" y="1459" type="line"/>
      <point x="1094" y="196" type="line"/>
      <point x="331" y="196" type="line"/>
      <point x="775" y="1459" type="line"/>
    </contour>
  </outline>
</glyph>
<glyph name="Omega" format="2">
  <advance width="1784"/>
  <unicode hex="03A9"/>
  <outline>
    <contour>
      <point x="892" y="1680" type="curve" smooth="yes"/>
      <point x="441" y="1680"/>
      <point x="110" y="1345"/>
      <point x="110" y="898" type="curve" smooth="yes"/>
      <point x="110" y="528"/>
      <point x="342" y="268"/>
      <point x="591" y="176" type="curve"/>
      <point x="179" y="205" type="line"/>
      <point x="179" y="0" type="line"/>
      <point x="847" y="0" type="line"/>
      <point x="847" y="127" type="line"/>
      <point x="826" y="141" type="line"/>
      <point x="599" y="281"/>
      <point x="392" y="569"/>
      <point x="392" y="863" type="curve" smooth="yes"/>
      <point x="392" y="1127"/>
      <point x="556" y="1428"/>
      <point x="892" y="1428" type="curve" smooth="yes"/>
      <point x="1229" y="1428"/>
      <point x="1392" y="1127"/>
      <point x="1392" y="863" type="curve" smooth="yes"/>
      <point x="1392" y="569"/>
      <point x="1184" y="281"/>
      <point x="958" y="141" type="curve"/>
      <point x="937" y="127" type="line"/>
      <point x="937" y="0" type="line"/>
      <point x="1604" y="0" type="line"/>
      <point x="1604" y="205" type="line"/>
      <point x="1193" y="176" type="line"/>
      <point x="1443" y="268"/>
      <point x="1674" y="528"/>
      <point x="1674" y="898" type="curve" smooth="yes"/>
      <point x="1674" y="1345"/>
      <point x="1343" y="1680"/>
    </contour>
  </outline>
</glyph>
<glyph name="mu" format="2">
  <advance width="1563"/>
  <unicode hex="03BC"/>
  <outline>
    <contour>
      <point x="580" y="-320" type="line"/>
      <point x="580" y="26" type="line"/>
      <point x="608" y="-10"/>
      <point x="656" y="-32"/>
      <point x="726" y="-32" type="curve" smooth="yes"/>
      <point x="838" y="-32"/>
      <point x="966" y="25"/>
      <point x="1030" y="116" type="curve"/>
      <point x="1030" y="0" type="line"/>
      <point x="1322" y="0" type="line"/>
      <point x="1322" y="1024" type="line"/>
      <point x="1030" y="1024" type="line"/>
      <point x="1030" y="418" type="line" smooth="yes"/>
      <point x="1030" y="307"/>
      <point x="935" y="197"/>
      <point x="796" y="197" type="curve" smooth="yes"/>
      <point x="655" y="197"/>
      <point x="581" y="292"/>
      <point x="581" y="435" type="curve" smooth="yes"/>
      <point x="581" y="1024" type="line"/>
      <point x="289" y="1024" type="line"/>
      <point x="289" y="424" type="line" smooth="yes"/>
      <point x="289" y="99"/>
      <point x="235" y="-67"/>
      <point x="235" y="-320" type="curve"/>
    </contour>
  </outline>
</glyph>
<glyph name="pi" format="2">
  <advance width="1349"/>
  <unicode hex="03C0"/>
  <outline>
    <contour>
      <point x="574" y="0" type="line"/>
      <point x="574" y="816" type="line"/>
      <point x="796" y="816" type="line"/>
      <point x="796" y="276" type="line" smooth="yes"/>
      <point x="796" y="75"/>
      <point x="887" y="0"/>
      <point x="1130" y="0" type="curve"/>
      <point x="1130" y="225" type="line"/>
      <point x="1046" y="225"/>
      <point x="1021" y="248"/>
      <point x="1021" y="324" type="curve" smooth="yes"/>
      <point x="1021" y="816" type="line"/>
      <point x="1185" y="816" type="line"/>
      <point x="1185" y="1024" type="line"/>
      <point x="184" y="1024" type="line"/>
      <point x="184" y="816" type="line"/>
      <point x="349" y="816" type="line"/>
      <point x="349" y="0" type="line"/>
    </contour>
  </outline>
</glyph>
<glyph name="Germandbls" format="2">
  <advance width="1667"/>
  <unicode hex="1E9E"/>
  <outline>
    <contour>
      <point x="1064" y="-26" type="curve" smooth="yes"/>
      <point x="1330" y="-26"/>
      <point x="1555" y="138"/>
      <point x="1555" y="416" type="curve" smooth="yes"/>
      <point x="1555" y="766"/>
      <point x="1198" y="767"/>
      <point x="1198" y="862" type="curve" smooth="yes"/>
      <point x="1198" y="927"/>
      <point x="1367" y="966" name=".hr01"/>
      <point x="1367" y="1222" type="curve" smooth="yes"/>
      <point x="1367" y="1520"/>
      <point x="1139" y="1681"/>
      <point x="839" y="1681" type="curve" smooth="yes"/>
      <point x="454" y="1681"/>
      <point x="229" y="1419"/>
      <point x="229" y="968" type="curve" smooth="yes"/>
      <point x="229" y="1" type="line"/>
      <point x="538" y="1" type="line"/>
      <point x="538" y="997" type="line" smooth="yes"/>
      <point x="538" y="1247"/>
      <point x="633" y="1382"/>
      <point x="817" y="1382" type="curve" smooth="yes"/>
      <point x="950" y="1382"/>
      <point x="1055" y="1311"/>
      <point x="1055" y="1163" type="curve" smooth="yes"/>
      <point x="1055" y="967"/>
      <point x="867" y="966"/>
      <point x="867" y="817" type="curve" smooth="yes"/>
      <point x="867" y="604"/>
      <point x="1253" y="657" name=".hr02"/>
      <point x="1253" y="442" type="curve" smooth="yes"/>
      <point x="1253" y="335"/>
      <point x="1169" y="270"/>
      <point x="1045" y="270" type="curve" smooth="yes"/>
      <point x="960" y="270"/>
      <point x="878" y="297"/>
      <point x="775" y="350" type="curve"/>
      <point x="664" y="79" type="line"/>
      <point x="802" y="11"/>
      <point x="945" y="-26"/>
    </contour>
  </outline>
</glyph>
<glyph name="endash" format="2">
  <advance width="1382"/>
  <unicode hex="2013"/>
  <outline>
    <contour>
      <point x="1198" y="453" type="line"/>
      <point x="1198" y="703" type="line"/>
      <point x="184" y="703" type="line"/>
      <point x="184" y="453" type="line"/>
    </contour>
  </outline>
</glyph>
<glyph name="emdash" format="2">
  <advance width="2388"/>
  <unicode hex="2014"/>
  <outline>
    <contour>
      <point x="2204" y="453" type="line"/>
      <point x="2204" y="703" type="line"/>
      <point x="184" y="703" type="line"/>
      <point x="184" y="453" type="line"/>
    </contour>
  </outline>
</glyph>
<glyph name="quotesinglbase" format="2">
  <advance width="753"/>
  <unicode hex="201A"/>
  <outline>
    <contour>
      <point x="249" y="-291" type="line"/>
      <point x="410" y="-159"/>
      <point x="509" y="6"/>
      <point x="509" y="144" type="curve" smooth="yes"/>
      <point x="509" y="263"/>
      <point x="434" y="337"/>
      <point x="334" y="337" type="curve" smooth="yes"/>
      <point x="234" y="337"/>
      <point x="157" y="262"/>
      <point x="157" y="164" type="curve" smooth="yes"/>
      <point x="157" y="84"/>
      <point x="207" y="21"/>
      <point x="290" y="2" type="curve"/>
      <point x="278" y="-74"/>
      <point x="220" y="-185"/>
      <point x="174" y="-229" type="curve"/>
    </contour>
  </outline>
</glyph>
<glyph name="dagger" format="2">
  <advance width="1058"/>
  <unicode hex="2020"/>
  <outline>
    <contour>
      <point x="656" y="0" type="line"/>
      <point x="656" y="1050" type="line"/>
      <point x="931" y="1050" type="line"/>
      <point x="931" y="1278" type="line"/>
      <point x="656" y="1278" type="line"/>
      <point x="656" y="1720" type="line"/>
      <point x="403" y="1720" type="line"/>
      <point x="403" y="1278" type="line"/>
      <point x="127" y="1278" type="line"/>
      <point x="127" y="1050" type="line"/>
      <point x="403" y="1050" type="line"/>
      <point x="403" y="0" type="line"/>
    </contour>
  </outline>
</glyph>
<glyph name="daggerdbl" format="2">
  <advance width="1152"/>
  <unicode hex="2021"/>
  <outline>
    <contour>
      <point x="703" y="0" type="line"/>
      <point x="703" y="482" type="line"/>
      <point x="978" y="482" type="line"/>
      <point x="978" y="710" type="line"/>
      <point x="703" y="710" type="line"/>
      <point x="703" y="1019" type="line"/>
      <point x="978" y="1019" type="line"/>
      <point x="978" y="1246" type="line"/>
      <point x="703" y="1246" type="line"/>
      <point x="703" y="1720" type="line"/>
      <point x="449" y="1720" type="line"/>
      <point x="449" y="1246" type="line"/>
      <point x="174" y="1246" type="line"/>
      <point x="174" y="1019" type="line"/>
      <point x="449" y="1019" type="line"/>
      <point x="449" y="710" type="line"/>
      <point x="174" y="710" type="line"/>
      <point x="174" y="482" type="line"/>
      <point x="449" y="482" type="line"/>
      <point x="449" y="0" type="line"/>
    </contour>
  </outline>
</glyph>
<glyph name="bullet" format="2">
  <advance width="1012"/>
  <unicode hex="2022"/>
  <outline>
    <contour>
      <point x="505" y="394" type="curve" smooth="yes"/>
      <point x="683" y="394"/>
      <point x="825" y="535"/>
      <point x="825" y="714" type="curve" smooth="yes"/>
      <point x="825" y="893"/>
      <point x="683" y="1034"/>
      <point x="505" y="1034" type="curve" smooth="yes"/>
      <point x="326" y="1034"/>
      <point x="184" y="893"/>
      <point x="184" y="714" type="curve" smooth="yes"/>
      <point x="184" y="535"/>
      <point x="326" y="394"/>
    </contour>
  </outline>
</glyph>
<glyph name="perthousand" format="2">
  <advance width="3034"/>
  <unicode hex="2030"/>
  <outline>
    <component base="percent"/>
    <contour>
      <point x="2494" y="-32" type="curve" smooth="yes"/>
      <point x="2740" y="-32"/>
      <point x="2929" y="130"/>
      <point x="2929" y="362" type="curve" smooth="yes"/>
      <point x="2929" y="594"/>
      <point x="2740" y="756"/>
      <point x="2494" y="756" type="curve" smooth="yes"/>
      <point x="2248" y="756"/>
      <point x="2059" y="594"/>
      <point x="2059" y="362" type="curve" smooth="yes"/>
      <point x="2059" y="130"/>
      <point x="2248" y="-32"/>
    </contour>
    <contour>
      <point x="2494" y="146" type="curve" smooth="yes"/>
      <point x="2373" y="146"/>
      <point x="2277" y="235"/>
      <point x="2277" y="362" type="curve" smooth="yes"/>
      <point x="2277" y="489"/>
      <point x="2373" y="578"/>
      <point x="2494" y="578" type="curve" smooth="yes"/>
      <point x="2615" y="578"/>
      <point x="2711" y="489"/>
      <point x="2711" y="362" type="curve" smooth="yes"/>
      <point x="2711" y="235"/>
      <point x="2615" y="146"/>
    </contour>
  </outline>
</glyph>
<glyph name="guilsinglleft" format="2">
  <advance width="737"/>
  <unicode hex="2039"/>
  <outline>
    <contour>
      <point x="630" y="180" type="line"/>
      <point x="336" y="557" type="line"/>
      <point x="630" y="934" type="line"/>
      <point x="474" y="1057" type="line"/>
      <point x="84" y="557" type="line"/>
      <point x="474" y="57" type="line"/>
    </contour>
  </outline>
</glyph>
<glyph name="guilsinglright" format="2">
  <advance width="735"/>
  <unicode hex="203A"/>
  <outline>
    <contour>
      <point x="651" y="557" type="line"/>
      <point x="261" y="1057" type="line"/>
      <point x="104" y="934" type="line"/>
      <point x="400" y="557" type="line"/>
      <point x="104" y="180" type="line"/>
      <point x="261" y="57" type="line"/>
    </contour>
  </outline>
</glyph>
<glyph name="fraction" format="2">
  <advance width="355"/>
  <unicode hex="2044"/>
  <outline>
    <contour>
      <point x="-240" y="0" type="line"/>
      <point x="789" y="1650" type="line"/>
      <point x="594" y="1650" type="line"/>
      <point x="-434" y="0" type="line"/>
    </contour>
  </outline>
</glyph>
<glyph name="foursuperior" format="2">
  <advance width="881"/>
  <unicode hex="2074"/>
  <outline>
    <contour>
      <point x="634" y="1040" type="line"/>
      <point x="634" y="1148" type="line"/>
      <point x="713" y="1148" type="line"/>
      <point x="713" y="1271" type="line"/>
      <point x="634" y="1271" type="line"/>
      <point x="634" y="1650" type="line"/>
      <point x="497" y="1650" type="line"/>
      <point x="165" y="1191" type="line"/>
      <point x="165" y="1148" type="line"/>
      <point x="503" y="1148" type="line"/>
      <point x="503" y="1040" type="line"/>
    </contour>
    <contour>
      <point x="503" y="1482" type="line"/>
      <point x="503" y="1271" type="line"/>
      <point x="356" y="1271" type="line"/>
    </contour>
  </outline>
</glyph>
<glyph name="euro" format="2">
  <advance width="1867"/>
  <unicode hex="20AC"/>
  <outline>
    <component base="C" xOffset="229"/>
    <contour>
      <point x="157" y="1083" type="line"/>
      <point x="157" y="903" type="line"/>
      <point x="1402" y="903" type="line"/>
      <point x="1402" y="1083" type="line"/>
    </contour>
    <contour>
      <point x="157" y="743" type="line"/>
      <point x="157" y="563" type="line"/>
      <point x="1402" y="563" type="line"/>
      <point x="1402" y="743" type="line"/>
    </contour>
  </outline>
</glyph>
<glyph name="arrowleft" format="2">
  <advance width="2048"/>
  <unicode hex="2190"/>
  <outline>
    <contour>
      <point x="377" y="979" type="line"/>
      <point x="377" y="671" type="line"/>
      <point x="1864" y="671" type="line"/>
      <point x="1864" y="979" type="line"/>
    </contour>
    <contour>
      <point x="184" y="825" type="line"/>
      <point x="1009" y="0" type="line"/>
      <point x="1442" y="0" type="line"/>
      <point x="557" y="844" type="line"/>
      <point x="557" y="806" type="line"/>
      <point x="1442" y="1650" type="line"/>
      <point x="1009" y="1650" type="line"/>
    </contour>
  </outline>
</glyph>
<glyph name="arrowup" format="2">
  <advance width="2018"/>
  <unicode hex="2191"/>
  <outline>
    <contour>
      <point x="1163" y="1487" type="line"/>
      <point x="855" y="1487" type="line"/>
      <point x="855" y="0" type="line"/>
      <point x="1163" y="0" type="line"/>
    </contour>
    <contour>
      <point x="1009" y="1680" type="line"/>
      <point x="184" y="855" type="line"/>
      <point x="184" y="422" type="line"/>
      <point x="1028" y="1307" type="line"/>
      <point x="990" y="1307" type="line"/>
      <point x="1834" y="422" type="line"/>
      <point x="1834" y="855" type="line"/>
    </contour>
  </outline>
</glyph>
<glyph name="arrowboth" format="2">
  <advance width="2682"/>
  <unicode hex="2194"/>
  <outline>
    <contour>
      <point x="373" y="979" type="line"/>
      <point x="373" y="671" type="line"/>
      <point x="2322" y="671" type="line"/>
      <point x="2322" y="979" type="line"/>
    </contour>
    <contour>
      <point x="774" y="1650" type="line"/>
      <point x="184" y="825" type="line"/>
      <point x="774" y="0" type="line"/>
      <point x="1164" y="0" type="line"/>
      <point x="544" y="844" type="line"/>
      <point x="544" y="806" type="line"/>
      <point x="1164" y="1650" type="line"/>
    </contour>
    <contour>
      <point x="1518" y="1650" type="line"/>
      <point x="2139" y="806" type="line"/>
      <point x="2139" y="844" type="line"/>
      <point x="1518" y="0" type="line"/>
      <point x="1909" y="0" type="line"/>
      <point x="2498" y="825" type="line"/>
      <point x="1909" y="1650" type="line"/>
    </contour>
  </outline>
</glyph>
<glyph name="arrowupdn" format="2">
  <advance width="1498"/>
  <unicode hex="2195"/>
  <outline>
    <contour>
      <point x="903" y="1487" type="line"/>
      <point x="595" y="1487" type="line"/>
      <point x="595" y="168" type="line"/>
      <point x="903" y="168" type="line"/>
    </contour>
    <contour>
      <point x="749" y="1680" type="line"/>
      <point x="184" y="1247" type="line"/>
      <point x="184" y="933" type="line"/>
      <point x="768" y="1387" type="line"/>
      <point x="730" y="1387" type="line"/>
      <point x="1314" y="933" type="line"/>
      <point x="1314" y="1247" type="line"/>
    </contour>
    <contour>
      <point x="184" y="717" type="line"/>
      <point x="184" y="403" type="line"/>
      <point x="749" y="-30" type="line"/>
      <point x="1314" y="403" type="line"/>
      <point x="1314" y="717" type="line"/>
      <point x="730" y="263" type="line"/>
      <point x="768" y="263" type="line"/>
    </contour>
  </outline>
</glyph>
<glyph name="arrowNW" format="2">
  <advance width="1944"/>
  <unicode hex="2196"/>
  <outline>
    <contour>
      <point x="430" y="1623" type="line"/>
      <point x="212" y="1404" type="line"/>
      <point x="1465" y="151" type="line"/>
      <point x="1684" y="369" type="line"/>
    </contour>
    <contour>
      <point x="184" y="1650" type="line"/>
      <point x="184" y="380" type="line"/>
      <point x="490" y="75" type="line"/>
      <point x="462" y="1400" type="line"/>
      <point x="435" y="1373" type="line"/>
      <point x="1760" y="1344" type="line"/>
      <point x="1455" y="1650" type="line"/>
    </contour>
  </outline>
</glyph>
<glyph name="arrowNE" format="2">
  <advance width="1943"/>
  <unicode hex="2197"/>
  <outline>
    <contour>
      <point x="1732" y="1405" type="line"/>
      <point x="1513" y="1623" type="line"/>
      <point x="260" y="369" type="line"/>
      <point x="478" y="150" type="line"/>
    </contour>
    <contour>
      <point x="1759" y="1651" type="line"/>
      <point x="489" y="1651" type="line"/>
      <point x="184" y="1345" type="line"/>
      <point x="1509" y="1373" type="line"/>
      <point x="1482" y="1400" type="line"/>
      <point x="1453" y="74" type="line"/>
      <point x="1759" y="379" type="line"/>
    </contour>
  </outline>
</glyph>
<glyph name="arrowSE" format="2">
  <advance width="1944"/>
  <unicode hex="2198"/>
  <outline>
    <contour>
      <point x="1514" y="27" type="line"/>
      <point x="1732" y="246" type="line"/>
      <point x="479" y="1499" type="line"/>
      <point x="260" y="1281" type="line"/>
    </contour>
    <contour>
      <point x="1760" y="0" type="line"/>
      <point x="1760" y="1270" type="line"/>
      <point x="1454" y="1575" type="line"/>
      <point x="1482" y="250" type="line"/>
      <point x="1509" y="277" type="line"/>
      <point x="184" y="306" type="line"/>
      <point x="489" y="0" type="line"/>
    </contour>
  </outline>
</glyph>
<glyph name="arrowSW" format="2">
  <advance width="1944"/>
  <unicode hex="2199"/>
  <outline>
    <contour>
      <point x="211" y="246" type="line"/>
      <point x="430" y="28" type="line"/>
      <point x="1683" y="1281" type="line"/>
      <point x="1465" y="1500" type="line"/>
    </contour>
    <contour>
      <point x="184" y="0" type="line"/>
      <point x="1454" y="0" type="line"/>
      <point x="1760" y="306" type="line"/>
      <point x="434" y="278" type="line"/>
      <point x="461" y="251" type="line"/>
      <point x="490" y="1576" type="line"/>
      <point x="184" y="1271" type="line"/>
    </contour>
  </outline>
</glyph>
<glyph name="partialdiff" format="2">
  <advance width="1481"/>
  <unicode hex="2202"/>
  <outline>
    <contour>
      <point x="763" y="-36" type="curve" smooth="yes"/>
      <point x="1123" y="-36"/>
      <point x="1353" y="210"/>
      <point x="1353" y="659" type="curve" smooth="yes"/>
      <point x="1353" y="1167"/>
      <point x="1056" y="1573"/>
      <point x="602" y="1825" type="curve"/>
      <point x="473" y="1609" type="line"/>
      <point x="748" y="1452"/>
      <point x="943" y="1220"/>
      <point x="1008" y="937" type="curve"/>
      <point x="957" y="1022"/>
      <point x="828" y="1078"/>
      <point x="694" y="1078" type="curve" smooth="yes"/>
      <point x="378" y="1078"/>
      <point x="132" y="832"/>
      <point x="132" y="530" type="curve" smooth="yes"/>
      <point x="132" y="208"/>
      <point x="408" y="-36"/>
    </contour>
    <contour>
      <point x="736" y="221" type="curve" smooth="yes"/>
      <point x="578" y="221"/>
      <point x="438" y="334"/>
      <point x="438" y="510" type="curve" smooth="yes"/>
      <point x="438" y="668"/>
      <point x="553" y="811"/>
      <point x="730" y="811" type="curve" smooth="yes"/>
      <point x="888" y="811"/>
      <point x="1027" y="695"/>
      <point x="1027" y="521" type="curve" smooth="yes"/>
      <point x="1027" y="362"/>
      <point x="912" y="221"/>
    </contour>
  </outline>
</glyph>
<glyph name="emptyset" format="2">
  <advance width="1200"/>
  <unicode hex="2205"/>
  <outline>
    <contour>
      <point x="1134" y="1038" type="line"/>
      <point x="1034" y="1140" type="line"/>
      <point x="99" y="205" type="line"/>
      <point x="201" y="103" type="line"/>
    </contour>
    <contour>
      <point x="617" y="152" type="curve" smooth="yes"/>
      <point x="878" y="152"/>
      <point x="1084" y="354"/>
      <point x="1084" y="622" type="curve" smooth="yes"/>
      <point x="1084" y="888"/>
      <point x="880" y="1091"/>
      <point x="618" y="1091" type="curve" smooth="yes"/>
      <point x="353" y="1091"/>
      <point x="150" y="884"/>
      <point x="150" y="621" type="curve" smooth="yes"/>
      <point x="150" y="358"/>
      <point x="353" y="152"/>
    </contour>
    <contour>
      <point x="617" y="344" type="curve" smooth="yes"/>
      <point x="455" y="344"/>
      <point x="336" y="458"/>
      <point x="336" y="622" type="curve" smooth="yes"/>
      <point x="336" y="785"/>
      <point x="455" y="899"/>
      <point x="617" y="899" type="curve" smooth="yes"/>
      <point x="779" y="899"/>
      <point x="899" y="785"/>
      <point x="899" y="622" type="curve" smooth="yes"/>
      <point x="899" y="458"/>
      <point x="779" y="344"/>
    </contour>
  </outline>
</glyph>
<glyph name="product" format="2">
  <advance width="1798"/>
  <unicode hex="220F"/>
  <outline>
    <contour>
      <point x="619" y="0" type="line"/>
      <point x="619" y="1512" type="line"/>
      <point x="1177" y="1512" type="line"/>
      <point x="1177" y="0" type="line"/>
      <point x="1402" y="0" type="line"/>
      <point x="1402" y="1512" type="line"/>
      <point x="1567" y="1512" type="line"/>
      <point x="1567" y="1720" type="line"/>
      <point x="229" y="1720" type="line"/>
      <point x="229" y="1512" type="line"/>
      <point x="394" y="1512" type="line"/>
      <point x="394" y="0" type="line"/>
    </contour>
  </outline>
</glyph>
<glyph name="summation" format="2">
  <advance width="1606"/>
  <unicode hex="2211"/>
  <outline>
    <contour>
      <point x="1375" y="0" type="line"/>
      <point x="1375" y="208" type="line"/>
      <point x="609" y="208" type="line"/>
      <point x="1056" y="860" type="line"/>
      <point x="609" y="1512" type="line"/>
      <point x="1375" y="1512" type="line"/>
      <point x="1375" y="1720" type="line"/>
      <point x="229" y="1720" type="line"/>
      <point x="821" y="860" type="line"/>
      <point x="229" y="0" type="line"/>
    </contour>
  </outline>
</glyph>
<glyph name="minus" format="2">
  <advance width="1577"/>
  <unicode hex="2212"/>
  <outline>
    <contour>
      <point x="1302" y="703" type="line"/>
      <point x="1302" y="955" type="line"/>
      <point x="275" y="955" type="line"/>
      <point x="275" y="703" type="line"/>
    </contour>
  </outline>
</glyph>
<glyph name="DivisionSlash" format="2">
  <advance width="1017"/>
  <unicode hex="2215"/>
  <outline>
    <contour>
      <point x="221" y="-240" type="line"/>
      <point x="1045" y="1720" type="line"/>
      <point x="796" y="1720" type="line"/>
      <point x="-28" y="-240" type="line"/>
    </contour>
  </outline>
</glyph>
<glyph name="radical" format="2">
  <advance width="1789"/>
  <unicode hex="221A"/>
  <outline>
    <contour>
      <point x="769" y="-32" type="line"/>
      <point x="1157" y="1512" type="line"/>
      <point x="1558" y="1512" type="line"/>
      <point x="1558" y="1720" type="line"/>
      <point x="978" y="1720" type="line"/>
      <point x="622" y="212" type="line"/>
      <point x="455" y="609" type="line"/>
      <point x="229" y="609" type="line"/>
      <point x="499" y="-32" type="line"/>
    </contour>
  </outline>
</glyph>
<glyph name="infinity" format="2">
  <advance width="2113"/>
  <unicode hex="221E"/>
  <outline>
    <contour>
      <point x="566" y="65" type="curve" smooth="yes"/>
      <point x="752" y="65"/>
      <point x="903" y="191"/>
      <point x="1056" y="366" type="curve"/>
      <point x="1209" y="191"/>
      <point x="1360" y="65"/>
      <point x="1546" y="65" type="curve" smooth="yes"/>
      <point x="1785" y="65"/>
      <point x="2018" y="265"/>
      <point x="2018" y="545" type="curve" smooth="yes"/>
      <point x="2018" y="825"/>
      <point x="1784" y="1024"/>
      <point x="1546" y="1024" type="curve" smooth="yes"/>
      <point x="1360" y="1024"/>
      <point x="1209" y="898"/>
      <point x="1056" y="724" type="curve"/>
      <point x="903" y="898"/>
      <point x="752" y="1024"/>
      <point x="566" y="1024" type="curve" smooth="yes"/>
      <point x="329" y="1024"/>
      <point x="95" y="825"/>
      <point x="95" y="545" type="curve" smooth="yes"/>
      <point x="95" y="265"/>
      <point x="328" y="65"/>
    </contour>
    <contour>
      <point x="603" y="320" type="curve" smooth="yes"/>
      <point x="494" y="320"/>
      <point x="383" y="411"/>
      <point x="383" y="545" type="curve" smooth="yes"/>
      <point x="383" y="678"/>
      <point x="495" y="769"/>
      <point x="603" y="769" type="curve" smooth="yes"/>
      <point x="717" y="769"/>
      <point x="801" y="669"/>
      <point x="907" y="545" type="curve"/>
      <point x="800" y="420"/>
      <point x="717" y="320"/>
    </contour>
    <contour>
      <point x="1509" y="320" type="curve" smooth="yes"/>
      <point x="1395" y="320"/>
      <point x="1312" y="420"/>
      <point x="1205" y="545" type="curve"/>
      <point x="1311" y="669"/>
      <point x="1395" y="769"/>
      <point x="1509" y="769" type="curve" smooth="yes"/>
      <point x="1618" y="769"/>
      <point x="1729" y="678"/>
      <point x="1729" y="545" type="curve" smooth="yes"/>
      <point x="1729" y="411"/>
      <point x="1619" y="320"/>
    </contour>
  </outline>
</glyph>
<glyph name="integral" format="2">
  <advance width="934"/>
  <unicode hex="222B"/>
  <outline>
    <contour>
      <point x="82" y="-551" type="curve" smooth="yes"/>
      <point x="312" y="-551"/>
      <point x="466" y="-377"/>
      <point x="492" y="-90" type="curve"/>
      <point x="623" y="1283" type="line"/>
      <point x="636" y="1434"/>
      <point x="680" y="1492"/>
      <point x="770" y="1492" type="curve" smooth="yes"/>
      <point x="809" y="1492"/>
      <point x="848" y="1481"/>
      <point x="874" y="1463" type="curve"/>
      <point x="995" y="1667" type="line"/>
      <point x="933" y="1719"/>
      <point x="838" y="1750"/>
      <point x="741" y="1750" type="curve" smooth="yes"/>
      <point x="512" y="1750"/>
      <point x="358" y="1576"/>
      <point x="331" y="1289" type="curve" smooth="yes"/>
      <point x="201" y="-84" type="line" smooth="yes"/>
      <point x="187" y="-235"/>
      <point x="143" y="-293"/>
      <point x="54" y="-293" type="curve" smooth="yes"/>
      <point x="14" y="-293"/>
      <point x="-24" y="-282"/>
      <point x="-51" y="-264" type="curve"/>
      <point x="-171" y="-468" type="line"/>
      <point x="-110" y="-520"/>
      <point x="-14" y="-551"/>
    </contour>
  </outline>
</glyph>
<glyph name="notequal" format="2">
  <advance width="1464"/>
  <unicode hex="2260"/>
  <outline>
    <component base="equal" xOffset="-51"/>
    <contour>
      <point x="409" y="175" type="line"/>
      <point x="1163" y="1475" type="line"/>
      <point x="966" y="1475" type="line"/>
      <point x="212" y="175" type="line"/>
    </contour>
  </outline>
</glyph>
<glyph name="lessequal" format="2">
  <advance width="1480"/>
  <unicode hex="2264"/>
  <outline>
    <contour>
      <point x="1261" y="734" type="line"/>
      <point x="474" y="1061" type="line"/>
      <point x="1261" y="1392" type="line"/>
      <point x="1261" y="1626" type="line"/>
      <point x="165" y="1160" type="line"/>
      <point x="165" y="967" type="line"/>
      <point x="1261" y="502" type="line"/>
    </contour>
    <contour>
      <point x="1261" y="67" type="line"/>
      <point x="1261" y="319" type="line"/>
      <point x="165" y="319" type="line"/>
      <point x="165" y="67" type="line"/>
    </contour>
  </outline>
</glyph>
<glyph name="greaterequal" format="2">
  <advance width="1480"/>
  <unicode hex="2265"/>
  <outline>
    <contour>
      <point x="1315" y="967" type="line"/>
      <point x="1315" y="1160" type="line"/>
      <point x="220" y="1626" type="line"/>
      <point x="220" y="1392" type="line"/>
      <point x="1006" y="1061" type="line"/>
      <point x="220" y="734" type="line"/>
      <point x="220" y="502" type="line"/>
    </contour>
    <contour>
      <point x="1315" y="67" type="line"/>
      <point x="1315" y="319" type="line"/>
      <point x="220" y="319" type="line"/>
      <point x="220" y="67" type="line"/>
    </contour>
  </outline>
</glyph>
<glyph name="lozenge" format="2">
  <advance width="1200"/>
  <unicode hex="25CA"/>
  <outline>
    <contour>
      <point x="694" y="-80" type="line"/>
      <point x="1114" y="795" type="line"/>
      <point x="694" y="1670" type="line"/>
      <point x="506" y="1670" type="line"/>
      <point x="86" y="795" type="line"/>
      <point x="506" y="-80" type="line"/>
    </contour>
    <contour>
      <point x="336" y="795" type="line"/>
      <point x="600" y="1344" type="line"/>
      <point x="864" y="795" type="line"/>
      <point x="600" y="246" type="line"/>
    </contour>
  </outline>
</glyph>
<glyph name="f_f" format="2">
  <advance width="1523"/>
  <unicode hex="FB00"/>
  <anchor x="713" y="0" name="caret_1"/>
  <outline>
    <contour>
      <point x="510" y="0" type="line"/>
      <point x="510" y="802" type="line"/>
      <point x="860" y="802" type="line"/>
      <point x="860" y="0" type="line"/>
      <point x="1152" y="0" type="line"/>
      <point x="1152" y="802" type="line"/>
      <point x="1395" y="802" type="line"/>
      <point x="1395" y="1024" type="line"/>
      <point x="1152" y="1024" type="line"/>
      <point x="1152" y="1283" type="line" smooth="yes"/>
      <point x="1152" y="1432"/>
      <point x="1182" y="1492"/>
      <point x="1277" y="1492" type="curve" smooth="yes"/>
      <point x="1325" y="1492"/>
      <point x="1363" y="1478"/>
      <point x="1388" y="1463" type="curve"/>
      <point x="1489" y="1667" type="line"/>
      <point x="1440" y="1705"/>
      <point x="1349" y="1750"/>
      <point x="1227" y="1750" type="curve" smooth="yes"/>
      <point x="996" y="1750"/>
      <point x="860" y="1571"/>
      <point x="860" y="1289" type="curve" smooth="yes"/>
      <point x="860" y="1024" type="line"/>
      <point x="510" y="1024" type="line"/>
      <point x="510" y="1283" type="line" smooth="yes"/>
      <point x="510" y="1432"/>
      <point x="540" y="1492"/>
      <point x="635" y="1492" type="curve" smooth="yes"/>
      <point x="679" y="1492"/>
      <point x="717" y="1478"/>
      <point x="739" y="1466" type="curve"/>
      <point x="842" y="1671" type="line"/>
      <point x="791" y="1709"/>
      <point x="701" y="1750"/>
      <point x="586" y="1750" type="curve" smooth="yes"/>
      <point x="356" y="1750"/>
      <point x="219" y="1571"/>
      <point x="219" y="1289" type="curve" smooth="yes"/>
      <point x="219" y="1024" type="line"/>
      <point x="84" y="1024" type="line"/>
      <point x="84" y="802" type="line"/>
      <point x="219" y="802" type="line"/>
      <point x="219" y="0" type="line"/>
    </contour>
  </outline>
</glyph>
<glyph name="fi" format="2">
  <advance width="1274"/>
  <unicode hex="FB01"/>
  <anchor x="648" y="0" name="caret_1"/>
  <outline>
    <contour>
      <point x="517" y="0" type="line"/>
      <point x="517" y="802" type="line"/>
      <point x="846" y="802" type="line"/>
      <point x="846" y="0" type="line"/>
      <point x="1139" y="0" type="line"/>
      <point x="1139" y="1024" type="line"/>
      <point x="517" y="1024" type="line"/>
      <point x="517" y="1283" type="line" smooth="yes"/>
      <point x="517" y="1432"/>
      <point x="560" y="1494"/>
      <point x="678" y="1494" type="curve" smooth="yes"/>
      <point x="760" y="1494"/>
      <point x="854" y="1445"/>
      <point x="905" y="1393" type="curve"/>
      <point x="1012" y="1593" type="line"/>
      <point x="932" y="1672"/>
      <point x="777" y="1750"/>
      <point x="593" y="1750" type="curve" smooth="yes"/>
      <point x="362" y="1750"/>
      <point x="224" y="1571"/>
      <point x="224" y="1289" type="curve" smooth="yes"/>
      <point x="224" y="1024" type="line"/>
      <point x="91" y="1024" type="line"/>
      <point x="91" y="802" type="line"/>
      <point x="224" y="802" type="line"/>
      <point x="224" y="0" type="line"/>
    </contour>
  </outline>
</glyph>
<glyph name="fl" format="2">
  <advance width="1340"/>
  <unicode hex="FB02"/>
  <anchor x="654" y="0" name="caret_1"/>
  <outline>
    <contour>
      <point x="506" y="0" type="line"/>
      <point x="506" y="802" type="line"/>
      <point x="749" y="802" type="line"/>
      <point x="749" y="1024" type="line"/>
      <point x="506" y="1024" type="line"/>
      <point x="506" y="1283" type="line" smooth="yes"/>
      <point x="506" y="1432"/>
      <point x="536" y="1492"/>
      <point x="631" y="1492" type="curve" smooth="yes"/>
      <point x="661" y="1492"/>
      <point x="689" y="1486"/>
      <point x="716" y="1475" type="curve"/>
      <point x="783" y="1704" type="line"/>
      <point x="745" y="1726"/>
      <point x="675" y="1750"/>
      <point x="581" y="1750" type="curve" smooth="yes"/>
      <point x="351" y="1750"/>
      <point x="215" y="1571"/>
      <point x="215" y="1289" type="curve" smooth="yes"/>
      <point x="215" y="1024" type="line"/>
      <point x="80" y="1024" type="line"/>
      <point x="80" y="802" type="line"/>
      <point x="215" y="802" type="line"/>
      <point x="215" y="0" type="line"/>
    </contour>
    <contour>
      <point x="1141" y="0" type="line"/>
      <point x="1141" y="1720" type="line" name=".hr01"/>
      <point x="850" y="1720" type="line"/>
      <point x="850" y="0" type="line"/>
    </contour>
  </outline>
</glyph>
<glyph name="f_f_i" format="2">
  <advance width="1948"/>
  <unicode hex="FB03"/>
  <anchor x="646" y="0" name="caret_1"/>
  <anchor x="1293" y="0" name="caret_2"/>
  <outline>
    <contour>
      <point x="533" y="0" type="line"/>
      <point x="533" y="802" type="line"/>
      <point x="883" y="802" type="line"/>
      <point x="883" y="0" type="line"/>
      <point x="1175" y="0" type="line"/>
      <point x="1175" y="802" type="line"/>
      <point x="1504" y="802" type="line"/>
      <point x="1504" y="0" type="line"/>
      <point x="1797" y="0" type="line"/>
      <point x="1797" y="1024" type="line"/>
      <point x="1175" y="1024" type="line"/>
      <point x="1175" y="1283" type="line" smooth="yes"/>
      <point x="1175" y="1432"/>
      <point x="1219" y="1494"/>
      <point x="1337" y="1494" type="curve" smooth="yes"/>
      <point x="1419" y="1494"/>
      <point x="1513" y="1445"/>
      <point x="1564" y="1393" type="curve"/>
      <point x="1671" y="1593" type="line"/>
      <point x="1590" y="1672"/>
      <point x="1436" y="1750"/>
      <point x="1252" y="1750" type="curve" smooth="yes"/>
      <point x="1021" y="1750"/>
      <point x="883" y="1571"/>
      <point x="883" y="1289" type="curve" smooth="yes"/>
      <point x="883" y="1024" type="line"/>
      <point x="533" y="1024" type="line"/>
      <point x="533" y="1283" type="line" smooth="yes"/>
      <point x="533" y="1432"/>
      <point x="562" y="1492"/>
      <point x="657" y="1492" type="curve" smooth="yes"/>
      <point x="701" y="1492"/>
      <point x="739" y="1478"/>
      <point x="760" y="1466" type="curve"/>
      <point x="864" y="1671" type="line"/>
      <point x="813" y="1709"/>
      <point x="723" y="1750"/>
      <point x="607" y="1750" type="curve" smooth="yes"/>
      <point x="377" y="1750"/>
      <point x="240" y="1571"/>
      <point x="240" y="1289" type="curve" smooth="yes"/>
      <point x="240" y="1024" type="line"/>
      <point x="107" y="1024" type="line"/>
      <point x="107" y="802" type="line"/>
      <point x="240" y="802" type="line"/>
      <point x="240" y="0" type="line"/>
    </contour>
  </outline>
</glyph>
<glyph name="f_f_l" format="2">
  <advance width="1983"/>
  <unicode hex="FB04"/>
  <anchor x="630" y="0" name="caret_1"/>
  <anchor x="1288" y="0" name="caret_2"/>
  <outline>
    <contour>
      <point x="507" y="0" type="line"/>
      <point x="507" y="802" type="line"/>
      <point x="856" y="802" type="line"/>
      <point x="856" y="0" type="line"/>
      <point x="1148" y="0" type="line"/>
      <point x="1148" y="802" type="line"/>
      <point x="1391" y="802" type="line"/>
      <point x="1391" y="1024" type="line"/>
      <point x="1148" y="1024" type="line"/>
      <point x="1148" y="1283" type="line" smooth="yes"/>
      <point x="1148" y="1432"/>
      <point x="1178" y="1492"/>
      <point x="1273" y="1492" type="curve" smooth="yes"/>
      <point x="1303" y="1492"/>
      <point x="1331" y="1486"/>
      <point x="1358" y="1475" type="curve"/>
      <point x="1425" y="1704" type="line"/>
      <point x="1387" y="1726"/>
      <point x="1317" y="1750"/>
      <point x="1223" y="1750" type="curve" smooth="yes"/>
      <point x="993" y="1750"/>
      <point x="856" y="1571"/>
      <point x="856" y="1289" type="curve" smooth="yes"/>
      <point x="856" y="1024" type="line"/>
      <point x="507" y="1024" type="line"/>
      <point x="507" y="1283" type="line" smooth="yes"/>
      <point x="507" y="1432"/>
      <point x="536" y="1492"/>
      <point x="632" y="1492" type="curve" smooth="yes"/>
      <point x="675" y="1492"/>
      <point x="713" y="1478"/>
      <point x="735" y="1466" type="curve"/>
      <point x="838" y="1671" type="line"/>
      <point x="788" y="1709"/>
      <point x="698" y="1750"/>
      <point x="582" y="1750" type="curve" smooth="yes"/>
      <point x="352" y="1750"/>
      <point x="215" y="1571"/>
      <point x="215" y="1289" type="curve" smooth="yes"/>
      <point x="215" y="1024" type="line"/>
      <point x="81" y="1024" type="line"/>
      <point x="81" y="802" type="line"/>
      <point x="215" y="802" type="line"/>
      <point x="215" y="0" type="line"/>
    </contour>
    <contour>
      <point x="1784" y="0" type="line"/>
      <point x="1784" y="1720" type="line" name=".hr01"/>
      <point x="1491" y="1720" type="line"/>
      <point x="1491" y="0" type="line"/>
    </contour>
  </outline>
</glyph>
<glyph name="A.tnum" format="2">
  <advance width="1500"/>
  <anchor x="750" y="0" name="bottom"/>
  <anchor x="1555" y="0" name="ogonek"/>
  <anchor x="750" y="1650" name="top"/>
  <outline>
    <contour>
      <point x="277" y="0" type="line"/>
      <point x="423" y="389" type="line"/>
      <point x="1077" y="389" type="line"/>
      <point x="1223" y="0" type="line"/>
      <point x="1555" y="0" type="line"/>
      <point x="892" y="1650" type="line"/>
      <point x="608" y="1650" type="line"/>
      <point x="-55" y="0" type="line"/>
    </contour>
    <contour>
      <point x="750" y="1234" type="line"/>
      <point x="971" y="660" type="line"/>
      <point x="529" y="660" type="line"/>
    </contour>
  </outline>
</glyph>
<glyph name="M.ss01" format="2">
  <advance width="2098"/>
  <anchor x="1048" y="46" name="bottom"/>
  <anchor x="1048" y="1650" name="top"/>
  <outline>
    <contour>
      <point x="458" y="0" type="line"/>
      <point x="568" y="1096" type="line"/>
      <point x="953" y="46" type="line"/>
      <point x="1144" y="46" type="line"/>
      <point x="1529" y="1096" type="line"/>
      <point x="1639" y="0" type="line"/>
      <point x="1947" y="0" type="line"/>
      <point x="1779" y="1650" type="line"/>
      <point x="1451" y="1650" type="line"/>
      <point x="1048" y="595" type="line"/>
      <point x="647" y="1650" type="line"/>
      <point x="319" y="1650" type="line"/>
      <point x="150" y="0" type="line"/>
    </contour>
  </outline>
</glyph>
<glyph name="P.tnum" format="2">
  <advance width="1500"/>
  <outline>
    <contour>
      <point x="581" y="0" type="line"/>
      <point x="581" y="638" type="line"/>
      <point x="822" y="638" type="line" smooth="yes"/>
      <point x="1144" y="638"/>
      <point x="1374" y="818"/>
      <point x="1374" y="1144" type="curve" smooth="yes"/>
      <point x="1374" y="1470"/>
      <point x="1144" y="1650"/>
      <point x="822" y="1650" type="curve" smooth="yes"/>
      <point x="273" y="1650" type="line"/>
      <point x="273" y="0" type="line"/>
    </contour>
    <contour>
      <point x="581" y="1404" type="line"/>
      <point x="728" y="1404" type="line" smooth="yes"/>
      <point x="905" y="1404"/>
      <point x="1052" y="1328"/>
      <point x="1052" y="1144" type="curve" smooth="yes"/>
      <point x="1052" y="960"/>
      <point x="905" y="884"/>
      <point x="728" y="884" type="curve" smooth="yes"/>
      <point x="581" y="884" type="line"/>
    </contour>
  </outline>
</glyph>
<glyph name="a.ss01" format="2">
  <advance width="1451"/>
  <anchor x="612" y="-4" name="bottom"/>
  <anchor x="1267" y="0" name="ogonek"/>
  <anchor x="699" y="1024" name="top"/>
  <outline>
    <contour>
      <point x="412" y="512" type="curve" smooth="yes"/>
      <point x="412" y="683"/>
      <point x="533" y="807"/>
      <point x="698" y="807" type="curve" smooth="yes"/>
      <point x="864" y="807"/>
      <point x="983" y="684"/>
      <point x="983" y="512" type="curve" smooth="yes"/>
      <point x="983" y="341"/>
      <point x="864" y="217"/>
      <point x="698" y="217" type="curve" smooth="yes"/>
      <point x="533" y="217"/>
      <point x="412" y="341"/>
    </contour>
    <contour>
      <point x="105" y="513" type="curve" smooth="yes"/>
      <point x="105" y="205"/>
      <point x="317" y="-32"/>
      <point x="612" y="-32" type="curve" smooth="yes"/>
      <point x="759" y="-32"/>
      <point x="885" y="30"/>
      <point x="976" y="143" type="curve"/>
      <point x="976" y="0" type="line"/>
      <point x="1267" y="0" type="line" name=".hr01"/>
      <point x="1267" y="1024" type="line"/>
      <point x="976" y="1024" type="line"/>
      <point x="976" y="881" type="line"/>
      <point x="885" y="994"/>
      <point x="759" y="1056"/>
      <point x="612" y="1056" type="curve" smooth="yes" name=".hr02"/>
      <point x="317" y="1056"/>
      <point x="105" y="821"/>
    </contour>
  </outline>
</glyph>
<glyph name="eight.pnum" format="2">
  <advance width="1409"/>
  <outline>
    <contour>
      <point x="704" y="-32" type="curve" smooth="yes"/>
      <point x="1034" y="-32"/>
      <point x="1293" y="172"/>
      <point x="1293" y="453" type="curve" smooth="yes"/>
      <point x="1293" y="645"/>
      <point x="1176" y="812"/>
      <point x="998" y="886" type="curve"/>
      <point x="1136" y="958"/>
      <point x="1225" y="1097" name=".hr01"/>
      <point x="1225" y="1253" type="curve" smooth="yes"/>
      <point x="1225" y="1523"/>
      <point x="957" y="1680" name=".hr02"/>
      <point x="704" y="1680" type="curve" smooth="yes"/>
      <point x="416" y="1680"/>
      <point x="183" y="1498"/>
      <point x="183" y="1252" type="curve" smooth="yes"/>
      <point x="183" y="1101"/>
      <point x="268" y="960"/>
      <point x="410" y="886" type="curve"/>
      <point x="235" y="813"/>
      <point x="116" y="647" name=".hr03"/>
      <point x="116" y="454" type="curve" smooth="yes"/>
      <point x="116" y="171"/>
      <point x="374" y="-32"/>
    </contour>
    <contour>
      <point x="704" y="235" type="curve" smooth="yes"/>
      <point x="554" y="235"/>
      <point x="451" y="343"/>
      <point x="451" y="487" type="curve" smooth="yes"/>
      <point x="451" y="636"/>
      <point x="560" y="741"/>
      <point x="704" y="741" type="curve" smooth="yes"/>
      <point x="851" y="741"/>
      <point x="957" y="634"/>
      <point x="957" y="487" type="curve" smooth="yes"/>
      <point x="957" y="344"/>
      <point x="856" y="235"/>
    </contour>
    <contour>
      <point x="704" y="999" type="curve" smooth="yes"/>
      <point x="575" y="999"/>
      <point x="480" y="1094"/>
      <point x="480" y="1222" type="curve" smooth="yes"/>
      <point x="480" y="1349" name=".hr04"/>
      <point x="576" y="1445"/>
      <point x="704" y="1445" type="curve" smooth="yes"/>
      <point x="832" y="1445"/>
      <point x="928" y="1349"/>
      <point x="928" y="1222" type="curve" smooth="yes"/>
      <point x="928" y="1094"/>
      <point x="833" y="999"/>
    </contour>
  </outline>
</glyph>
<glyph name="f_f_j" format="2">
  <advance width="1845"/>
  <outline>
    <contour>
      <point x="1385" y="-550" type="curve" smooth="yes"/>
      <point x="1636" y="-550"/>
      <point x="1726" y="-369"/>
      <point x="1726" y="-178" type="curve" smooth="yes"/>
      <point x="1726" y="1024" type="line"/>
      <point x="1105" y="1024" type="line"/>
      <point x="1105" y="1283" type="line" smooth="yes"/>
      <point x="1105" y="1432"/>
      <point x="1148" y="1494"/>
      <point x="1266" y="1494" type="curve" smooth="yes"/>
      <point x="1349" y="1494"/>
      <point x="1443" y="1445"/>
      <point x="1494" y="1393" type="curve"/>
      <point x="1600" y="1593" type="line"/>
      <point x="1521" y="1672"/>
      <point x="1366" y="1750"/>
      <point x="1181" y="1750" type="curve" smooth="yes"/>
      <point x="951" y="1750"/>
      <point x="812" y="1571"/>
      <point x="812" y="1289" type="curve" smooth="yes"/>
      <point x="812" y="1024" type="line"/>
      <point x="462" y="1024" type="line"/>
      <point x="462" y="1283" type="line" smooth="yes"/>
      <point x="462" y="1432"/>
      <point x="491" y="1492"/>
      <point x="587" y="1492" type="curve" smooth="yes"/>
      <point x="631" y="1492"/>
      <point x="668" y="1478"/>
      <point x="690" y="1466" type="curve"/>
      <point x="793" y="1671" type="line"/>
      <point x="743" y="1709"/>
      <point x="653" y="1750"/>
      <point x="538" y="1750" type="curve" smooth="yes"/>
      <point x="307" y="1750"/>
      <point x="170" y="1571"/>
      <point x="170" y="1289" type="curve" smooth="yes"/>
      <point x="170" y="1024" type="line"/>
      <point x="36" y="1024" type="line"/>
      <point x="36" y="802" type="line"/>
      <point x="170" y="802" type="line"/>
      <point x="170" y="0" type="line"/>
      <point x="462" y="0" type="line"/>
      <point x="462" y="802" type="line"/>
      <point x="812" y="802" type="line"/>
      <point x="812" y="0" type="line"/>
      <point x="1105" y="0" type="line"/>
      <point x="1105" y="802" type="line"/>
      <point x="1434" y="802" type="line"/>
      <point x="1434" y="-128" type="line" smooth="yes"/>
      <point x="1434" y="-237"/>
      <point x="1392" y="-288"/>
      <point x="1320" y="-288" type="curve" smooth="yes"/>
      <point x="1281" y="-288"/>
      <point x="1243" y="-272"/>
      <point x="1222" y="-256" type="curve"/>
      <point x="1132" y="-490" type="line"/>
      <point x="1174" y="-517"/>
      <point x="1259" y="-550"/>
    </contour>
  </outline>
</glyph>
